<svg width="56" height="53" viewBox="0 0 56 53" fill="none" xmlns="http://www.w3.org/2000/svg">
<g clip-path="url(#clip0_8_19475)">
<g clip-path="url(#clip1_8_19475)">
<path d="M43.1331 35.9456C43.1331 28.4973 37.095 22.4592 29.6466 22.4592C22.1983 22.4592 16.1602 28.4973 16.1602 35.9456C16.1602 43.394 22.1983 49.4321 29.6466 49.4321C37.095 49.4321 43.1331 43.394 43.1331 35.9456Z" fill="#EFE025"/>
<path d="M37.616 47.439C37.614 47.5761 37.5869 47.7117 37.536 47.839C37.4843 47.9673 37.4059 48.0832 37.306 48.179C37.209 48.2779 37.093 48.3561 36.965 48.409C36.8417 48.4605 36.7096 48.4877 36.576 48.489C36.4379 48.49 36.3011 48.4631 36.1737 48.4098C36.0464 48.3565 35.9311 48.278 35.835 48.179C35.6885 48.0328 35.5886 47.8465 35.5479 47.6436C35.5071 47.4408 35.5273 47.2304 35.606 47.039C35.6577 46.9109 35.7357 46.795 35.835 46.699C36.033 46.5056 36.2992 46.3978 36.576 46.399C36.7089 46.3969 36.8411 46.4207 36.965 46.469C37.093 46.5218 37.209 46.6001 37.306 46.699C37.404 46.7957 37.4819 46.9109 37.5351 47.0379C37.5883 47.1649 37.6158 47.3012 37.616 47.439Z" fill="#3E4449"/>
<path d="M55.1868 32.5696C55.1869 32.7074 55.1595 32.8438 55.1063 32.9708C55.0531 33.0979 54.9751 33.2131 54.8768 33.3096C54.7811 33.4095 54.6652 33.4879 54.5368 33.5396C54.41 33.592 54.2741 33.6192 54.1368 33.6196C53.9998 33.6173 53.8642 33.5902 53.7368 33.5396C53.6118 33.4818 53.497 33.4042 53.3968 33.3096C53.2535 33.1614 53.1563 32.9748 53.1171 32.7724C53.0779 32.57 53.0983 32.3606 53.1758 32.1696C53.2283 32.0439 53.3032 31.9287 53.3968 31.8296C53.4973 31.7381 53.6122 31.6638 53.7368 31.6096C53.8628 31.5543 53.9993 31.527 54.1368 31.5296C54.4129 31.5305 54.6781 31.638 54.8768 31.8296C54.9751 31.9262 55.0531 32.0414 55.1063 32.1684C55.1595 32.2955 55.1869 32.4319 55.1868 32.5696Z" fill="#3E4449"/>
<path d="M23.5062 2.6907C23.5054 2.96684 23.398 3.23201 23.2062 3.43073C23.1087 3.5285 22.9933 3.60657 22.8662 3.66071C22.739 3.71208 22.6034 3.73923 22.4662 3.74072C22.3958 3.73903 22.3257 3.73232 22.2562 3.7207C22.1962 3.7007 22.1262 3.68071 22.0662 3.66071C22.002 3.6356 21.9415 3.60199 21.8862 3.56073C21.8286 3.52296 21.775 3.4794 21.7262 3.43073C21.5382 3.23018 21.4336 2.96559 21.4336 2.6907C21.4336 2.41582 21.5382 2.15126 21.7262 1.95071C21.775 1.90204 21.8286 1.85848 21.8862 1.82071C21.9419 1.78283 22.0025 1.75257 22.0662 1.73071C22.1264 1.70176 22.1903 1.68155 22.2562 1.67072C22.3249 1.65418 22.3956 1.64745 22.4662 1.65073C22.6038 1.64726 22.7405 1.67458 22.8662 1.73071C22.9928 1.78115 23.1083 1.85589 23.2062 1.95071C23.2977 2.0512 23.372 2.16607 23.4262 2.29071C23.4823 2.41642 23.5097 2.55308 23.5062 2.6907Z" fill="#3E4449"/>
<path d="M10.1376 20.68C10.1419 20.8177 10.1145 20.9545 10.0576 21.08C10.0058 21.2059 9.93123 21.3212 9.83758 21.42C9.74101 21.5182 9.62583 21.5962 9.49877 21.6494C9.37172 21.7027 9.23533 21.73 9.09758 21.73C9.0272 21.7283 8.95702 21.7216 8.88758 21.71C8.82758 21.69 8.75758 21.67 8.69758 21.65C8.63336 21.6249 8.57281 21.5913 8.51758 21.55C8.45996 21.5122 8.40634 21.4687 8.35758 21.42C8.3089 21.3712 8.26534 21.3176 8.22758 21.26C8.18838 21.2034 8.15488 21.1431 8.12758 21.08C8.10306 21.0182 8.08301 20.9547 8.06758 20.89C8.03321 20.72 8.04173 20.5442 8.09236 20.3783C8.14299 20.2124 8.23414 20.0618 8.35758 19.94C8.40633 19.8913 8.45995 19.8478 8.51758 19.81C8.57098 19.7683 8.63218 19.7377 8.69758 19.72C8.75773 19.691 8.82171 19.6708 8.88758 19.66C8.95629 19.6434 9.02699 19.6367 9.09758 19.64C9.23471 19.638 9.37084 19.6636 9.49793 19.7151C9.62503 19.7666 9.74051 19.8431 9.83758 19.94C10.0293 20.1387 10.1368 20.4039 10.1376 20.68Z" fill="#3E4449"/>
<path d="M17.7094 8.92233C17.7092 9.13514 17.6596 9.34498 17.5644 9.5353C17.4266 9.8113 17.2026 10.0349 16.9264 10.1723L14.2154 11.3043L13.1094 13.9683C13.0936 14.006 13.0756 14.0428 13.0554 14.0783C12.9353 14.2905 12.7633 14.4687 12.5555 14.5962C12.3477 14.7238 12.1109 14.7964 11.8674 14.8073C11.6078 14.8098 11.3522 14.7436 11.1266 14.6154C10.9009 14.4872 10.7131 14.3016 10.5824 14.0773C10.5625 14.0421 10.5448 14.0057 10.5294 13.9683L9.42038 11.3093L6.76438 10.2043C6.59171 10.1254 6.4365 10.0129 6.30782 9.87337C6.17915 9.73381 6.07959 9.57 6.01497 9.3915C5.95035 9.21301 5.92197 9.02342 5.93148 8.83382C5.941 8.64423 5.98822 8.45844 6.07038 8.28732C6.2075 8.01468 6.42875 7.79342 6.70138 7.6563L9.42038 6.52032L10.5294 3.8583C10.5448 3.82158 10.5625 3.78585 10.5824 3.7513C10.7019 3.53783 10.8739 3.35838 11.0822 3.22994C11.2904 3.1015 11.528 3.02833 11.7724 3.01733C12.0311 3.01568 12.2858 3.08192 12.511 3.2095C12.7361 3.33707 12.9238 3.52149 13.0554 3.74432C13.0758 3.7818 13.0939 3.82054 13.1094 3.86031L14.2094 6.51931L16.8664 7.61932C17.1155 7.73491 17.3268 7.91857 17.476 8.14913C17.6251 8.37969 17.706 8.64774 17.7094 8.92233ZM12.5094 10.2003C12.5565 10.0705 12.6299 9.95194 12.7251 9.85195C12.8203 9.75196 12.9351 9.67275 13.0624 9.61932L14.7624 8.9103L13.0624 8.20431C12.933 8.15047 12.8164 8.07004 12.7201 7.96822C12.6238 7.86641 12.5499 7.74548 12.5034 7.6133L11.8174 5.9623L11.1174 7.6433C11.0689 7.76919 10.9954 7.88398 10.9014 7.98074C10.8074 8.07749 10.6948 8.15423 10.5704 8.20632L8.87038 8.91631L10.5704 9.61633C10.7002 9.67027 10.8171 9.75093 10.9136 9.85311C11.0101 9.95529 11.084 10.0767 11.1304 10.2093L11.8184 11.8603L12.5094 10.2003Z" fill="#3E4449"/>
<path d="M11.9692 32.9084C11.9691 33.1242 11.9191 33.3371 11.8232 33.5304C11.6857 33.8069 11.4617 34.0309 11.1852 34.1684L8.47416 35.3014L7.36316 37.9644C7.34813 38.002 7.33041 38.0384 7.31016 38.0734C7.19005 38.2859 7.01795 38.4645 6.80999 38.5923C6.60203 38.7202 6.36502 38.7932 6.12116 38.8044C5.86176 38.8062 5.60646 38.7396 5.38103 38.6113C5.1556 38.4829 4.968 38.2974 4.83716 38.0734C4.81658 38.0384 4.79853 38.002 4.78316 37.9644L3.67416 35.3054L1.01816 34.2004C0.84539 34.1217 0.690089 34.0092 0.561363 33.8696C0.432638 33.7301 0.333081 33.5662 0.268532 33.3876C0.203982 33.2091 0.175741 33.0194 0.185465 32.8298C0.195189 32.6402 0.242681 32.4544 0.325157 32.2834C0.462481 32.0113 0.683231 31.7902 0.955157 31.6524L3.67416 30.5164L4.78416 27.8544C4.79939 27.8169 4.8171 27.7805 4.83716 27.7454C4.95714 27.5327 5.12918 27.3539 5.33715 27.2259C5.54512 27.0979 5.7822 27.0247 6.02616 27.0134C6.28484 27.0121 6.53936 27.0786 6.76443 27.2061C6.98949 27.3336 7.17729 27.5179 7.30916 27.7404C7.33022 27.7772 7.34893 27.8152 7.36516 27.8544L8.47016 30.5144L11.1262 31.6194C11.3046 31.699 11.4649 31.8143 11.597 31.9582C11.7291 32.1022 11.8302 32.2718 11.8942 32.4564C11.9436 32.602 11.969 32.7547 11.9692 32.9084ZM6.76816 34.1954C6.81524 34.0659 6.88858 33.9476 6.98357 33.8477C7.07856 33.7479 7.19315 33.6688 7.32016 33.6154L9.02016 32.9074L7.32016 32.2014C7.18968 32.1467 7.0723 32.0649 6.97577 31.9615C6.87923 31.8581 6.80575 31.7353 6.76016 31.6014L6.07516 29.9544L5.37516 31.6354C5.32626 31.7612 5.25254 31.8759 5.15839 31.9726C5.06425 32.0693 4.9516 32.1461 4.82716 32.1984L3.12716 32.9074L4.82716 33.6134C4.95693 33.6673 5.07387 33.748 5.17036 33.8502C5.26685 33.9524 5.34072 34.0737 5.38716 34.2064L6.07516 35.8564L6.76816 34.1954Z" fill="#3E4449"/>
<path d="M55.1158 47.0139C55.1164 47.2264 55.0671 47.436 54.9718 47.6259C54.834 47.9022 54.61 48.1261 54.3338 48.2639L51.6228 49.3969L50.5118 52.0599C50.4965 52.0968 50.4791 52.1329 50.4598 52.1679C50.3397 52.3807 50.1675 52.5596 49.9593 52.6876C49.7512 52.8157 49.5139 52.8887 49.2698 52.8999C49.0111 52.9016 48.7565 52.8354 48.5315 52.7079C48.3065 52.5803 48.119 52.3958 47.9878 52.1729C47.9663 52.1367 47.9476 52.0989 47.9318 52.0599L46.8238 49.4009L44.1678 48.3009C43.9948 48.2223 43.8393 48.11 43.7104 47.9705C43.5815 47.831 43.4818 47.6671 43.4171 47.4885C43.3525 47.3099 43.3242 47.1202 43.3339 46.9305C43.3436 46.7408 43.3912 46.5549 43.4738 46.3839C43.6099 46.1109 43.831 45.8895 44.1038 45.7529L46.8228 44.6169L47.9328 41.9549C47.9477 41.9181 47.965 41.8823 47.9848 41.8479C48.1044 41.6345 48.2764 41.4551 48.4846 41.3267C48.6928 41.1982 48.9304 41.125 49.1748 41.1139C49.4335 41.1122 49.6882 41.1785 49.9133 41.3061C50.1385 41.4337 50.3262 41.618 50.4578 41.8409C50.4788 41.8777 50.4975 41.9157 50.5138 41.9549L51.6138 44.6139L54.2698 45.7189C54.5183 45.8333 54.7295 46.0156 54.8791 46.2447C55.0287 46.4737 55.1108 46.7403 55.1158 47.0139ZM49.9168 48.2909C49.9638 48.1614 50.0372 48.043 50.1322 47.9432C50.2272 47.8434 50.3418 47.7643 50.4688 47.7109L52.1688 47.0029L50.4688 46.2969C50.3383 46.2422 50.2209 46.1604 50.1244 46.057C50.0278 45.9535 49.9543 45.8308 49.9088 45.6969L49.2238 44.0489L48.5238 45.7309C48.4752 45.8566 48.4017 45.9712 48.3077 46.0677C48.2137 46.1643 48.1011 46.2409 47.9768 46.2929L46.2768 47.0019L47.9768 47.7079C48.1066 47.7622 48.2236 47.8431 48.3202 47.9454C48.4168 48.0477 48.4909 48.1692 48.5378 48.3019L49.2248 49.9519L49.9168 48.2909Z" fill="#3E4449"/>
<path d="M49.2272 15.8129C49.224 18.3959 48.1965 20.8721 46.37 22.6984C44.5435 24.5247 42.0671 25.552 39.4842 25.5549C36.9013 25.552 34.4251 24.5247 32.5988 22.6983C30.7724 20.872 29.7451 18.3958 29.7422 15.8129C29.7451 13.23 30.7724 10.7537 32.5987 8.92715C34.425 7.10065 36.9013 6.07309 39.4842 6.06992C42.0673 6.07283 44.5438 7.10025 46.3703 8.92679C48.1969 10.7533 49.2243 13.2298 49.2272 15.8129ZM31.8342 15.8129C31.8363 17.8413 32.6429 19.786 34.0771 21.2203C35.5113 22.6547 37.4558 23.4615 39.4842 23.4639C41.5126 23.4615 43.4573 22.6547 44.8916 21.2204C46.326 19.786 47.1328 17.8414 47.1352 15.8129C47.1331 13.7844 46.3263 11.8396 44.8919 10.4052C43.4575 8.9708 41.5127 8.16404 39.4842 8.16193C37.4558 8.16431 35.5113 8.9712 34.0771 10.4055C32.6429 11.8399 31.8363 13.7846 31.8342 15.8129Z" fill="#3E4449"/>
<path d="M55.1869 15.8083C55.1922 17.8535 54.7918 19.8794 54.009 21.7689C53.2261 23.6583 52.0763 25.3737 50.6261 26.8158C46.6482 30.7157 36.3746 37.5074 30.6038 41.2073C26.831 43.6232 24.8281 44.6892 23.2181 45.5461C22.4112 45.9761 21.7132 46.3461 20.9442 46.8091C20.7583 46.9213 20.542 46.9727 20.3255 46.9562C20.109 46.9397 19.903 46.8561 19.7363 46.7171C19.5692 46.5784 19.4496 46.391 19.3941 46.1812C19.3385 45.9713 19.3498 45.7493 19.4263 45.5461L20.9422 41.5113L5.71679 51.1969C5.51397 51.326 5.2729 51.3812 5.03414 51.3533C4.79538 51.3254 4.5735 51.2162 4.40584 51.0439C4.23826 50.8718 4.13506 50.6472 4.11357 50.4079C4.09208 50.1686 4.15362 49.9292 4.28784 49.73L19.1223 27.7108L14.4965 29.0508C14.2948 29.1095 14.0801 29.106 13.8804 29.0407C13.6807 28.9754 13.5055 28.8514 13.3775 28.6848C13.2488 28.5186 13.1734 28.3173 13.1611 28.1075C13.1488 27.8976 13.2002 27.6889 13.3085 27.5088C13.7085 26.8388 13.9755 26.3019 14.2825 25.6809C15.167 23.8692 16.1667 22.116 17.2754 20.4321C19.5593 16.8652 25.1671 8.30453 28.4689 4.98366C28.5089 4.91698 28.5565 4.85523 28.6109 4.79967C30.0532 3.34978 31.7687 2.20025 33.6581 1.41757C35.5476 0.634892 37.5734 0.2346 39.6185 0.239853C41.6637 0.234455 43.6897 0.634796 45.5792 1.41766C47.4686 2.20053 49.184 3.35038 50.6261 4.80068C52.0764 6.24275 53.2263 7.95815 54.0091 9.84761C54.792 11.7371 55.1923 13.763 55.1869 15.8083ZM22.3882 43.6212C23.9401 42.7942 25.893 41.7423 29.4799 39.4454C35.1797 35.7905 45.3213 29.0958 49.1581 25.3299C50.4117 24.082 51.4055 22.598 52.0819 20.9636C52.7583 19.3293 53.104 17.5771 53.099 15.8083C53.1038 14.0378 52.7574 12.284 52.0797 10.6484C51.402 9.01281 50.4066 7.5279 49.1511 6.27963C47.9028 5.02422 46.4179 4.02887 44.7823 3.35122C43.1467 2.67356 41.3929 2.32708 39.6225 2.33178C36.1143 2.32209 32.7425 3.69019 30.2329 6.14164C30.192 6.21085 30.1426 6.27468 30.0859 6.33163C27.9159 8.45155 23.7861 14.1443 19.0413 21.5601C18.0256 23.1023 17.1052 24.7052 16.2854 26.3599L21.3142 24.9029C21.5205 24.8429 21.7402 24.8479 21.9435 24.9173C22.1468 24.9868 22.3237 25.1172 22.4502 25.2909C22.5764 25.4645 22.6462 25.6728 22.6502 25.8874C22.6541 26.102 22.592 26.3127 22.4722 26.4909L8.82667 46.7451L22.4642 38.0694C22.6493 37.9516 22.8668 37.8951 23.0859 37.9076C23.305 37.9202 23.5146 38.0013 23.6851 38.1394C23.8551 38.278 23.9774 38.4663 24.0348 38.678C24.0922 38.8896 24.0818 39.1139 24.0051 39.3194L22.3882 43.6212Z" fill="#3E4449"/>
</g>
</g>
<defs>
<clipPath id="clip0_8_19475">
<rect width="55.02" height="52.66" fill="white" transform="translate(0.171875 0.23999)"/>
</clipPath>
<clipPath id="clip1_8_19475">
<rect width="55.0059" height="52.66" fill="white" transform="translate(0.179688 0.23999)"/>
</clipPath>
</defs>
</svg>
