<svg width="50" height="52" viewBox="0 0 50 52" fill="none" xmlns="http://www.w3.org/2000/svg">
<g clip-path="url(#clip0_8_19402)">
<g clip-path="url(#clip1_8_19402)">
<g clip-path="url(#clip2_8_19402)">
<path d="M14.2207 44.4153C21.6701 44.4153 27.709 38.3764 27.709 30.927C27.709 23.4776 21.6701 17.4387 14.2207 17.4387C6.77135 17.4387 0.732422 23.4776 0.732422 30.927C0.732422 38.3764 6.77135 44.4153 14.2207 44.4153Z" fill="#EFE025"/>
<path d="M44.6293 27.7291C44.0736 27.7289 43.5304 27.564 43.0684 27.2551C42.6065 26.9462 42.2465 26.5073 42.0339 25.9938C41.8214 25.4803 41.7659 24.9153 41.8744 24.3703C41.983 23.8253 42.2507 23.3247 42.6437 22.9318C43.0367 22.5389 43.5374 22.2714 44.0825 22.1631C44.6275 22.0547 45.1925 22.1104 45.7059 22.3231C46.2193 22.5358 46.6581 22.896 46.9668 23.3581C47.2755 23.8202 47.4403 24.3634 47.4403 24.9191C47.4393 25.6642 47.1427 26.3785 46.6158 26.9053C46.0888 27.4321 45.3744 27.7283 44.6293 27.7291ZM44.6293 24.1091C44.4692 24.1093 44.3126 24.157 44.1796 24.2461C44.0465 24.3353 43.9428 24.4618 43.8817 24.6099C43.8205 24.7579 43.8046 24.9207 43.836 25.0778C43.8674 25.2348 43.9446 25.3791 44.0579 25.4922C44.1712 25.6054 44.3156 25.6825 44.4727 25.7136C44.6298 25.7448 44.7926 25.7287 44.9405 25.6674C45.0885 25.606 45.2149 25.5022 45.3039 25.369C45.3928 25.2359 45.4403 25.0793 45.4403 24.9191C45.4406 24.8125 45.4198 24.7069 45.3791 24.6083C45.3385 24.5097 45.2788 24.4202 45.2034 24.3447C45.1281 24.2693 45.0386 24.2095 44.9401 24.1687C44.8415 24.1279 44.7359 24.107 44.6293 24.1071V24.1091Z" fill="#3E4449"/>
<path d="M18.2455 51.5494C17.6898 51.5494 17.1465 51.3846 16.6844 51.0759C16.2223 50.7671 15.8621 50.3282 15.6494 49.8148C15.4368 49.3013 15.3811 48.7363 15.4895 48.1912C15.598 47.6462 15.8656 47.1455 16.2586 46.7525C16.6516 46.3595 17.1523 46.0919 17.6973 45.9834C18.2424 45.875 18.8074 45.9307 19.3209 46.1433C19.8343 46.356 20.2732 46.7162 20.582 47.1783C20.8907 47.6404 21.0555 48.1837 21.0555 48.7394C21.0548 49.4845 20.7584 50.1987 20.2316 50.7255C19.7048 51.2523 18.9906 51.5486 18.2455 51.5494ZM18.2455 47.9294C18.0853 47.9294 17.9287 47.9769 17.7955 48.066C17.6623 48.155 17.5585 48.2815 17.4972 48.4295C17.4359 48.5775 17.4199 48.7403 17.4511 48.8975C17.4824 49.0546 17.5595 49.1989 17.6728 49.3122C17.7861 49.4255 17.9304 49.5026 18.0875 49.5339C18.2447 49.5651 18.4075 49.5491 18.5555 49.4878C18.7035 49.4265 18.83 49.3227 18.919 49.1895C19.008 49.0563 19.0555 48.8996 19.0555 48.7394C19.0548 48.525 18.9691 48.3197 18.8173 48.1683C18.6655 48.0169 18.4599 47.9317 18.2455 47.9314V47.9294Z" fill="#3E4449"/>
<path d="M24.7905 10.6085C24.2347 10.6085 23.6914 10.4437 23.2293 10.135C22.7672 9.82619 22.4071 9.38733 22.1944 8.87387C21.9817 8.36041 21.926 7.79541 22.0345 7.25032C22.1429 6.70524 22.4105 6.20454 22.8035 5.81156C23.1965 5.41857 23.6972 5.15094 24.2423 5.04252C24.7874 4.9341 25.3523 4.98974 25.8658 5.20243C26.3793 5.41511 26.8181 5.77527 27.1269 6.23737C27.4357 6.69948 27.6005 7.24276 27.6005 7.79853C27.5997 8.54354 27.3034 9.25781 26.7766 9.78462C26.2498 10.3114 25.5355 10.6077 24.7905 10.6085ZM24.7905 6.98853C24.6303 6.98853 24.4737 7.03603 24.3405 7.12504C24.2073 7.21404 24.1034 7.34055 24.0421 7.48855C23.9808 7.63656 23.9648 7.79943 23.996 7.95655C24.0273 8.11367 24.1044 8.258 24.2177 8.37128C24.331 8.48456 24.4753 8.56171 24.6324 8.59296C24.7896 8.62422 24.9524 8.60818 25.1004 8.54687C25.2485 8.48556 25.375 8.38174 25.464 8.24854C25.553 8.11534 25.6005 7.95873 25.6005 7.79853C25.6002 7.58378 25.5148 7.37791 25.3629 7.22606C25.2111 7.07422 25.0052 6.98879 24.7905 6.98853Z" fill="#3E4449"/>
<path d="M27.2774 44.081C27.1286 44.0827 26.9813 44.0513 26.8463 43.9889C26.7112 43.9265 26.5918 43.8348 26.4967 43.7204C26.4016 43.6059 26.3332 43.4718 26.2965 43.3276C26.2598 43.1834 26.2558 43.0328 26.2847 42.8869C26.3135 42.741 26.3746 42.6033 26.4635 42.484C26.5523 42.3646 26.6666 42.2666 26.7981 42.1971C26.9297 42.1275 27.075 42.0882 27.2237 42.0819C27.3723 42.0757 27.5205 42.1027 27.6574 42.161C27.7767 42.2095 27.8854 42.2808 27.9774 42.371C28.0723 42.4633 28.1478 42.5736 28.1994 42.6956C28.2509 42.8175 28.2775 42.9486 28.2775 43.081C28.2775 43.2134 28.2509 43.3444 28.1994 43.4664C28.1478 43.5883 28.0723 43.6987 27.9774 43.791C27.7889 43.9723 27.5389 44.0759 27.2774 44.081Z" fill="#3E4449"/>
<path d="M8.76528 27.4895C8.53668 27.4872 8.31591 27.4059 8.14046 27.2593C7.96501 27.1127 7.8457 26.91 7.80277 26.6854C7.75984 26.4609 7.79595 26.2284 7.90496 26.0274C8.01398 25.8265 8.18918 25.6695 8.40081 25.583C8.61245 25.4966 8.84749 25.486 9.06601 25.5532C9.28453 25.6204 9.47308 25.7611 9.59963 25.9515C9.72619 26.1419 9.78295 26.3702 9.76028 26.5977C9.73761 26.8252 9.63691 27.0378 9.47528 27.1995C9.28354 27.382 9.03 27.4856 8.76528 27.4895Z" fill="#3E4449"/>
<path d="M33.1172 4.55723C32.9828 4.56067 32.8494 4.53331 32.7272 4.47723C32.6079 4.42876 32.4992 4.35742 32.4072 4.26723C32.3116 4.17384 32.2366 4.06141 32.1872 3.93723C32.0938 3.6925 32.0938 3.42196 32.1872 3.17723C32.2393 3.05741 32.314 2.94876 32.4072 2.85723C32.4961 2.76085 32.6054 2.68567 32.7272 2.63723C32.9741 2.53726 33.2503 2.53726 33.4972 2.63723C33.7377 2.74436 33.9301 2.93672 34.0372 3.17723C34.0899 3.29698 34.1172 3.42639 34.1172 3.55723C34.1172 3.68807 34.0899 3.81748 34.0372 3.93723C33.9915 4.06332 33.916 4.17652 33.8172 4.26723C33.7253 4.35742 33.6166 4.42876 33.4972 4.47723C33.3786 4.53328 33.2484 4.56068 33.1172 4.55723Z" fill="#3E4449"/>
<path d="M32.1074 16.0983C31.8434 16.0944 31.5913 15.9878 31.4046 15.8011C31.2179 15.6144 31.1113 15.3623 31.1074 15.0983C31.1099 14.9645 31.137 14.8322 31.1874 14.7083C31.2359 14.5889 31.3072 14.4802 31.3974 14.3883C31.4943 14.297 31.6059 14.2226 31.7274 14.1683C31.9709 14.0683 32.244 14.0683 32.4874 14.1683C32.609 14.2226 32.7205 14.297 32.8174 14.3883C32.9076 14.4802 32.979 14.5889 33.0274 14.7083C33.0779 14.8322 33.105 14.9645 33.1074 15.0983C33.1035 15.3623 32.9969 15.6144 32.8102 15.8011C32.6235 15.9878 32.3714 16.0944 32.1074 16.0983Z" fill="#3E4449"/>
<path d="M48.9199 34.13C48.7876 34.1295 48.6567 34.1027 48.5349 34.0512C48.413 33.9997 48.3025 33.9245 48.2099 33.83C48.1622 33.7867 48.1217 33.736 48.0899 33.68C48.0503 33.629 48.0198 33.5715 47.9999 33.51C47.9695 33.4505 47.9492 33.3862 47.9399 33.32C47.9283 33.2573 47.9216 33.1938 47.9199 33.13C47.9224 32.9962 47.9495 32.864 47.9999 32.74C48.0484 32.6207 48.1197 32.512 48.2099 32.42C48.3509 32.2819 48.5289 32.1876 48.7223 32.1486C48.9158 32.1096 49.1164 32.1274 49.2999 32.2C49.4215 32.2544 49.533 32.3287 49.6299 32.42C49.7201 32.512 49.7914 32.6207 49.8399 32.74C49.8903 32.864 49.9175 32.9962 49.9199 33.13C49.9182 33.1938 49.9115 33.2573 49.8999 33.32C49.8907 33.3862 49.8704 33.4505 49.8399 33.51C49.82 33.5715 49.7896 33.629 49.7499 33.68C49.7149 33.7338 49.6747 33.784 49.6299 33.83C49.4405 34.0174 49.1863 34.1248 48.9199 34.13Z" fill="#3E4449"/>
<path d="M9.5364 17.3776C9.28967 17.3775 9.04631 17.3204 8.82533 17.2106C8.50551 17.051 8.24641 16.7916 8.08726 16.4715L6.26408 12.1051L1.93866 10.3049C1.89999 10.2894 1.86255 10.2711 1.82665 10.2499C1.57925 10.1092 1.37154 9.90805 1.22289 9.66532C1.07424 9.42258 0.989495 9.14615 0.976564 8.8618C0.976121 8.56146 1.0546 8.26626 1.20414 8.00579C1.35369 7.74532 1.56905 7.52871 1.82865 7.37766C1.86378 7.35668 1.90057 7.33861 1.93866 7.32366L6.25808 5.52348L8.05825 1.21006C8.15147 1.00473 8.28571 0.820644 8.45271 0.669121C8.61971 0.517598 8.81595 0.401842 9.02935 0.328975C9.23242 0.260694 9.447 0.233316 9.66071 0.248422C9.87442 0.263527 10.083 0.320817 10.2745 0.416983C10.5903 0.575601 10.8464 0.832035 11.0045 1.14805L12.8317 5.52348L17.1551 7.32366C17.1919 7.33875 17.2276 7.35612 17.2622 7.37566C17.5114 7.51567 17.7209 7.71686 17.8708 7.96025C18.0208 8.20364 18.1063 8.48121 18.1192 8.7668C18.1189 9.06662 18.0403 9.36117 17.8912 9.62129C17.7421 9.88142 17.5277 10.0981 17.2692 10.2499C17.2328 10.2712 17.1951 10.2899 17.1561 10.3059L12.8357 12.1001L11.0355 16.4155C10.9012 16.7005 10.6894 16.9419 10.4243 17.1121C10.1591 17.2822 9.85142 17.3743 9.5364 17.3776ZM7.35619 10.393C7.48816 10.4392 7.60905 10.5125 7.71116 10.608C7.81326 10.7036 7.89435 10.8194 7.94924 10.948L9.5494 14.7844L11.1456 10.945C11.2005 10.8128 11.2833 10.6939 11.3882 10.5964C11.4931 10.4989 11.6177 10.4251 11.7536 10.38L15.53 8.8118L11.7126 7.22065C11.5851 7.17262 11.4688 7.09905 11.3708 7.00447C11.2728 6.90988 11.1951 6.79627 11.1426 6.67059L9.5424 2.83422L7.94524 6.67159C7.88991 6.80333 7.80716 6.92176 7.70248 7.01902C7.59781 7.11628 7.47362 7.19013 7.33818 7.23565L3.56082 8.8108L7.35619 10.393Z" fill="#3E4449"/>
<path d="M40.6851 50.6569C40.4347 50.6568 40.1878 50.5982 39.964 50.4859C39.6452 50.3276 39.3865 50.07 39.2269 49.7518L37.4028 45.3814L33.0773 43.5812C33.039 43.5657 33.0019 43.5473 32.9663 43.5262C32.719 43.3858 32.5112 43.1851 32.3623 42.9427C32.2135 42.7003 32.1285 42.4242 32.1152 42.1401C32.1146 41.8394 32.193 41.5439 32.3426 41.2831C32.4921 41.0223 32.7076 40.8053 32.9673 40.6539C33.0025 40.633 33.0392 40.6149 33.0773 40.5999L37.3958 38.7998L39.1959 34.4853C39.2891 34.2803 39.4233 34.0965 39.5901 33.9451C39.7569 33.7938 39.9529 33.6781 40.166 33.6053C40.369 33.5368 40.5836 33.5093 40.7973 33.5242C41.011 33.5391 41.2196 33.5963 41.4111 33.6923C41.7273 33.8512 41.9837 34.108 42.1422 34.4243L43.9694 38.7998L48.2918 40.5999C48.3287 40.6146 48.3645 40.632 48.3988 40.6519C48.6467 40.7924 48.8549 40.9936 49.0038 41.2366C49.1526 41.4796 49.2373 41.7564 49.2499 42.0411C49.25 42.3414 49.1714 42.6364 49.0219 42.8969C48.8724 43.1573 48.6572 43.3739 48.3978 43.5252C48.3615 43.5455 48.3241 43.5639 48.2858 43.5802L43.9694 45.3744L42.1692 49.6898C42.0765 49.8943 41.9431 50.0778 41.7772 50.2292C41.6113 50.3805 41.4163 50.4964 41.2041 50.5699C41.0369 50.6267 40.8617 50.6561 40.6851 50.6569ZM38.4949 43.6692C38.627 43.7156 38.7479 43.7889 38.8501 43.8847C38.9522 43.9804 39.0332 44.0964 39.0879 44.2253L40.6881 48.0607L42.2882 44.2213C42.3432 44.0891 42.426 43.9702 42.5309 43.8727C42.6358 43.7752 42.7604 43.7014 42.8963 43.6562L46.6717 42.0881L42.8493 40.4969C42.7221 40.4489 42.606 40.3754 42.5082 40.281C42.4103 40.1866 42.3328 40.0733 42.2802 39.9479L40.6801 36.1105L39.0799 39.9479C39.0257 40.0791 38.9441 40.1973 38.8406 40.2945C38.7372 40.3918 38.6142 40.4659 38.4799 40.5119L34.6995 42.0871L38.4949 43.6692Z" fill="#3E4449"/>
<path d="M25.1159 34.6004C24.8233 34.5994 24.5367 34.5171 24.2882 34.3625C24.0397 34.208 23.839 33.9873 23.7088 33.7253L22.0666 29.7899L18.1742 28.1677C18.1361 28.1518 18.099 28.1335 18.0632 28.1127C17.8248 27.9775 17.6246 27.784 17.4814 27.5503C17.3381 27.3166 17.2565 27.0504 17.2441 26.7766C17.2432 26.4871 17.3184 26.2023 17.4621 25.951C17.6059 25.6996 17.8132 25.4905 18.0632 25.3445C18.0992 25.3245 18.1363 25.3064 18.1742 25.2905L22.0596 23.6703L23.6748 19.7899C23.7647 19.5917 23.894 19.4139 24.055 19.2674C24.2159 19.1209 24.4051 19.0087 24.6109 18.9378C24.8065 18.8716 25.0133 18.8448 25.2194 18.8593C25.4254 18.8737 25.6265 18.929 25.811 19.0219C26.1167 19.1753 26.3645 19.4237 26.5171 19.7299L28.1632 23.6703L32.0476 25.2915C32.0845 25.3068 32.1206 25.3241 32.1556 25.3435C32.3954 25.4784 32.597 25.6721 32.7413 25.9063C32.8856 26.1406 32.968 26.4077 32.9807 26.6826C32.981 26.9719 32.9055 27.2562 32.7618 27.5073C32.6181 27.7584 32.4112 27.9674 32.1616 28.1137C32.125 28.1343 32.0873 28.1526 32.0486 28.1687L28.1632 29.7829L26.5471 33.6653C26.4579 33.8632 26.3292 34.0407 26.1689 34.1871C26.0086 34.3334 25.8201 34.4455 25.615 34.5164C25.4543 34.5712 25.2857 34.5996 25.1159 34.6004ZM23.1607 28.0827C23.2924 28.129 23.4129 28.2023 23.5145 28.2978C23.6161 28.3934 23.6966 28.5092 23.7508 28.6378L25.1179 31.9151L26.481 28.6348C26.5354 28.5037 26.617 28.3858 26.7205 28.2887C26.8239 28.1916 26.9469 28.1177 27.0811 28.0717L30.3044 26.7296L27.0471 25.3705C26.9206 25.3222 26.8051 25.2487 26.7078 25.1545C26.6105 25.0603 26.5334 24.9473 26.481 24.8224L25.1129 21.5421L23.7468 24.8224C23.6924 24.9535 23.6108 25.0714 23.5073 25.1685C23.4039 25.2656 23.281 25.3396 23.1467 25.3855L19.9224 26.7296L23.1607 28.0827Z" fill="#3E4449"/>
<path d="M43.9649 15.4974C43.7517 15.4972 43.5415 15.4476 43.3508 15.3523C43.0738 15.2152 42.8494 14.9911 42.7118 14.7143L41.5667 11.973L38.8734 10.8499C38.8346 10.834 38.7968 10.8156 38.7604 10.7949C38.5482 10.6738 38.37 10.501 38.2425 10.2926C38.1151 10.0842 38.0424 9.84686 38.0313 9.60279C38.029 9.34262 38.0955 9.08647 38.2243 8.86038C38.3531 8.6343 38.5394 8.44636 38.7644 8.31566C38.7995 8.2956 38.8359 8.27789 38.8734 8.26265L41.5617 7.14155L42.6788 4.45628C42.7593 4.27672 42.8758 4.11561 43.0212 3.98297C43.1666 3.85033 43.3377 3.74898 43.5238 3.68521C43.6994 3.6258 43.885 3.60184 44.0699 3.61471C44.2548 3.62759 44.4353 3.67704 44.601 3.76022C44.8747 3.89746 45.0968 4.11952 45.234 4.39328L46.3831 7.14055L49.0734 8.26265C49.1103 8.27796 49.1464 8.29532 49.1814 8.31466C49.3953 8.43511 49.575 8.60802 49.7036 8.8171C49.8322 9.02618 49.9054 9.26456 49.9165 9.50978C49.9181 9.76944 49.8515 10.025 49.7231 10.2507C49.5948 10.4765 49.4094 10.6645 49.1854 10.7959C49.1494 10.8168 49.112 10.8352 49.0734 10.8509L46.3861 11.968L45.268 14.6543C45.1521 14.9032 44.9684 15.1143 44.7378 15.2635C44.5073 15.4126 44.2394 15.4937 43.9649 15.4974ZM42.6708 10.2659C42.8004 10.3128 42.919 10.3861 43.019 10.4811C43.119 10.5761 43.1983 10.6908 43.2518 10.8179L43.9759 12.5551L44.698 10.8159C44.7518 10.6865 44.8322 10.5699 44.9341 10.4736C45.0359 10.3772 45.1568 10.3034 45.289 10.2568L46.9772 9.55678L45.259 8.84071C45.133 8.79211 45.0182 8.71849 44.9214 8.6243C44.8246 8.5301 44.748 8.41729 44.696 8.29266L43.9709 6.55549L43.2478 8.29166C43.1938 8.42154 43.1129 8.53856 43.0105 8.63507C42.9082 8.73157 42.7866 8.80539 42.6538 8.85171L40.9656 9.55178L42.6708 10.2659Z" fill="#3E4449"/>
<path d="M7.30082 44.0793C7.08778 44.0792 6.87765 44.0299 6.68676 43.9353C6.41016 43.7976 6.18586 43.5736 6.0477 43.2973L4.90259 40.555L2.20932 39.4309C2.1705 39.4146 2.13275 39.3959 2.09631 39.3749C1.88437 39.254 1.7064 39.0815 1.57894 38.8734C1.45149 38.6654 1.37866 38.4285 1.36724 38.1848C1.36502 37.9247 1.43144 37.6687 1.5598 37.4425C1.68816 37.2164 1.87391 37.0281 2.09831 36.8966C2.13421 36.8764 2.17128 36.8584 2.20932 36.8426L4.89759 35.7215L6.01469 33.0363C6.12271 32.7909 6.29834 32.5814 6.52104 32.4321C6.74374 32.2829 7.00432 32.2002 7.27232 32.1935C7.54031 32.1869 7.80465 32.2567 8.03444 32.3948C8.26423 32.5329 8.44997 32.7335 8.56994 32.9733L9.71806 35.7215L12.4093 36.8436C12.4464 36.8585 12.4825 36.8759 12.5173 36.8956C12.7311 37.0159 12.9108 37.1887 13.0394 37.3976C13.168 37.6065 13.2413 37.8447 13.2524 38.0898C13.2541 38.3496 13.1875 38.6053 13.0592 38.8312C12.9309 39.0571 12.7454 39.2453 12.5213 39.3769C12.485 39.3972 12.4476 39.4156 12.4093 39.4319L9.72106 40.548L8.60395 43.2343C8.48834 43.4835 8.3047 43.6951 8.07417 43.8446C7.84363 43.9941 7.57556 44.0755 7.30082 44.0793ZM6.00669 38.8478C6.13647 38.8949 6.2551 38.9684 6.3551 39.0635C6.4551 39.1587 6.53432 39.2736 6.58775 39.4009L7.31182 41.137L8.03389 39.3989C8.08785 39.2694 8.16844 39.1527 8.27045 39.0564C8.37245 38.96 8.49357 38.8863 8.62595 38.8398L10.3131 38.1398L8.59595 37.4237C8.46958 37.3753 8.35435 37.3018 8.25723 37.2076C8.1601 37.1134 8.08311 37.0005 8.03089 36.8756L7.30682 35.1385L6.58575 36.8756C6.53169 37.0055 6.45084 37.1225 6.34847 37.219C6.24611 37.3155 6.12453 37.3894 5.99169 37.4357L4.30353 38.1358L6.00669 38.8478Z" fill="#3E4449"/>
</g>
</g>
</g>
<defs>
<clipPath id="clip0_8_19402">
<rect width="49.19" height="51.31" fill="white" transform="translate(0.730469 0.23999)"/>
</clipPath>
<clipPath id="clip1_8_19402">
<rect width="49.19" height="51.31" fill="white" transform="translate(0.730469 0.23999)"/>
</clipPath>
<clipPath id="clip2_8_19402">
<rect width="49.1868" height="51.31" fill="white" transform="translate(0.732422 0.23999)"/>
</clipPath>
</defs>
</svg>
