<svg width="62" height="52" viewBox="0 0 62 52" fill="none" xmlns="http://www.w3.org/2000/svg">
<g clip-path="url(#clip0_8_19437)">
<path d="M31.691 41.3573C38.5382 41.3573 44.089 35.8065 44.089 28.9593C44.089 22.1121 38.5382 16.5613 31.691 16.5613C24.8437 16.5613 19.293 22.1121 19.293 28.9593C19.293 35.8065 24.8437 41.3573 31.691 41.3573Z" fill="#EFE025"/>
<path d="M47.0503 45.3691C46.8684 45.3692 46.6906 45.3153 46.5394 45.2144C46.3882 45.1134 46.2705 44.9697 46.2009 44.8018C46.1313 44.6338 46.113 44.4488 46.1485 44.2705C46.184 44.0922 46.2716 43.9283 46.4002 43.7998C47.7831 42.4193 48.964 40.8508 49.9082 39.1401C49.9784 38.974 50.096 38.8322 50.2463 38.7324C50.3966 38.6327 50.5728 38.5794 50.7531 38.5791C50.8738 38.579 50.9934 38.6024 51.1049 38.6484C51.2165 38.6945 51.3178 38.7624 51.4033 38.8477C51.4887 38.9329 51.5566 39.0341 51.6029 39.1455C51.6492 39.257 51.673 39.3764 51.6732 39.4971C51.671 39.6581 51.6292 39.8161 51.5512 39.957C50.5173 41.8436 49.2196 43.5728 47.6972 45.0928C47.613 45.1793 47.5124 45.2485 47.4013 45.2959C47.2903 45.3433 47.171 45.3682 47.0503 45.3691Z" fill="#3E4449"/>
<path d="M16.1518 45.3683C16.0311 45.3687 15.9114 45.3452 15.7999 45.299C15.6883 45.2528 15.5869 45.1849 15.5018 45.0993C11.7261 41.325 9.39726 36.344 8.92232 31.0266C8.44737 25.7092 9.85667 20.3936 12.9037 16.01C15.9506 11.6263 20.4415 8.45321 25.5911 7.0453C30.7407 5.63739 36.2212 6.0844 41.0746 8.30804C41.1843 8.35855 41.283 8.43032 41.365 8.51898C41.447 8.60765 41.5107 8.71135 41.5525 8.82466C41.5943 8.93797 41.6134 9.05849 41.6086 9.17916C41.6038 9.29984 41.5753 9.41865 41.5247 9.5283C41.4223 9.74949 41.2363 9.92085 41.0075 10.0049C40.7787 10.0889 40.5258 10.0784 40.3046 9.97606C37.575 8.71571 34.6028 8.06732 31.5963 8.0761C27.4576 8.07554 23.4117 9.30244 19.9704 11.6016C16.5291 13.9008 13.8469 17.1688 12.2632 20.9925C10.6796 24.8163 10.2654 29.0237 11.0733 33.0828C11.8812 37.1419 13.8748 40.8701 16.8019 43.796C16.9306 43.9244 17.0184 44.0884 17.0539 44.2667C17.0895 44.4451 17.0713 44.6301 17.0017 44.798C16.9321 44.966 16.8141 45.1093 16.6628 45.2101C16.5115 45.311 16.3336 45.3648 16.1518 45.3644V45.3683Z" fill="#3E4449"/>
<path d="M49.4679 51.7686H13.7337C13.6032 51.7685 13.4743 51.7403 13.3554 51.6866C13.2365 51.6328 13.1305 51.5544 13.0442 51.4566C12.958 51.3587 12.8935 51.2438 12.8551 51.1192C12.8168 50.9945 12.8054 50.8628 12.8217 50.7334L13.6307 44.3333C13.6594 44.1118 13.7678 43.9083 13.9357 43.761C14.1036 43.6137 14.3195 43.5331 14.5428 43.5335H48.6559C48.8794 43.5328 49.0955 43.6137 49.2636 43.761C49.4316 43.9083 49.5401 44.1116 49.5689 44.3333L50.377 50.7334C50.3934 50.8627 50.3821 50.994 50.3439 51.1187C50.3057 51.2433 50.2415 51.3582 50.1554 51.4561C50.0694 51.554 49.9635 51.6327 49.8447 51.6866C49.726 51.7404 49.5982 51.7684 49.4679 51.7686ZM14.7768 49.9306H48.4218L47.8459 45.3704H15.3468L14.7768 49.9306Z" fill="#3E4449"/>
<path d="M50.7458 40.4418C50.5912 40.4415 50.4392 40.4021 50.3037 40.3276L34.7787 31.8007C34.6727 31.7431 34.579 31.6655 34.5031 31.5717C34.4272 31.4779 34.3705 31.37 34.3363 31.2543C34.3022 31.1386 34.2912 31.0169 34.304 30.8969C34.3167 30.7769 34.3529 30.6606 34.4107 30.5546C34.5272 30.3404 34.724 30.1814 34.9578 30.1122C35.1916 30.043 35.4434 30.0697 35.6577 30.186L51.1838 38.7128C51.2898 38.7704 51.3834 38.8485 51.4593 38.9423C51.5352 39.0361 51.5918 39.144 51.626 39.2597C51.6602 39.3754 51.6712 39.4966 51.6585 39.6166C51.6457 39.7366 51.6094 39.853 51.5517 39.9589C51.4731 40.1044 51.3568 40.226 51.215 40.311C51.0732 40.396 50.9111 40.4412 50.7458 40.4418Z" fill="#3E4449"/>
<path d="M33.3526 26.098C33.199 26.0975 33.0479 26.0586 32.9132 25.9847C32.7785 25.9109 32.6644 25.8044 32.5814 25.6751C32.4984 25.5459 32.4491 25.3977 32.438 25.2445C32.4268 25.0913 32.4542 24.9376 32.5177 24.7977L39.8557 8.76401C39.9031 8.6502 39.9728 8.54706 40.0609 8.46079C40.149 8.37452 40.2536 8.30661 40.3684 8.26157C40.4832 8.21654 40.6057 8.19523 40.729 8.19858C40.8522 8.20194 40.9735 8.22989 41.0857 8.2811C41.1978 8.33231 41.2986 8.4055 41.3818 8.49644C41.4651 8.58737 41.5292 8.69418 41.5703 8.8104C41.6114 8.92663 41.6288 9.05013 41.6213 9.17319C41.6138 9.29626 41.5816 9.41635 41.5266 9.52671L34.1887 25.5628C34.1152 25.7227 33.9973 25.8581 33.8491 25.953C33.7009 26.0478 33.5286 26.0982 33.3526 26.098Z" fill="#3E4449"/>
<path d="M48.9463 39.4293C48.7866 39.4293 48.6297 39.3874 48.491 39.3082C48.3523 39.2291 48.2367 39.1151 48.1554 38.9776C48.0741 38.8402 48.0301 38.6842 48.0276 38.5245C48.0251 38.3648 48.0644 38.2069 48.1414 38.067C49.3863 35.7949 50.1497 33.2907 50.3842 30.7106C50.6186 28.1304 50.3188 25.5297 49.5038 23.0704C48.6887 20.6112 47.3757 18.3465 45.6467 16.4171C43.9177 14.4877 41.8098 12.9349 39.4544 11.8561C39.2328 11.7546 39.0605 11.5693 38.9756 11.3409C38.8906 11.1125 38.8999 10.8599 39.0014 10.6383C39.0515 10.5285 39.1227 10.4295 39.2111 10.3473C39.2994 10.265 39.4031 10.201 39.5162 10.1588C39.6294 10.1166 39.7497 10.0973 39.8704 10.1017C39.991 10.106 40.1096 10.134 40.2194 10.1842C42.8047 11.3684 45.1182 13.0722 47.0158 15.1901C48.9134 17.3079 50.3543 19.794 51.2487 22.4933C52.143 25.1926 52.4716 28.0471 52.214 30.879C51.9564 33.7109 51.1181 36.4596 49.7514 38.9532C49.6718 39.0972 49.5552 39.2172 49.4137 39.3009C49.2722 39.3846 49.1107 39.429 48.9463 39.4293Z" fill="#3E4449"/>
<path d="M31.5535 34.0823C30.5413 34.0823 29.5518 33.7819 28.7102 33.2195C27.8685 32.6571 27.2125 31.8578 26.8251 30.9226C26.4378 29.9874 26.3364 28.9584 26.5339 27.9656C26.7314 26.9728 27.2189 26.0607 27.9346 25.345C28.6504 24.6292 29.5623 24.1421 30.5551 23.9446C31.5479 23.7471 32.577 23.8482 33.5122 24.2356C34.4473 24.623 35.2467 25.2792 35.809 26.1209C36.3714 26.9625 36.6716 27.9519 36.6716 28.9641C36.6697 30.3209 36.1299 31.6219 35.1705 32.5813C34.2111 33.5407 32.9103 34.0804 31.5535 34.0823ZM31.5535 25.6824C30.9047 25.6822 30.2705 25.8743 29.7309 26.2346C29.1914 26.595 28.7708 27.1069 28.5224 27.7063C28.274 28.3057 28.209 28.9655 28.3355 29.6018C28.462 30.2382 28.7745 30.8227 29.2332 31.2815C29.692 31.7403 30.2766 32.0524 30.9129 32.179C31.5493 32.3055 32.2089 32.2408 32.8083 31.9924C33.4077 31.7441 33.9199 31.3235 34.2802 30.7839C34.6406 30.2444 34.8328 29.61 34.8326 28.9612C34.8305 28.0925 34.4843 27.2598 33.8697 26.6458C33.2551 26.0318 32.4223 25.6866 31.5535 25.6853V25.6824Z" fill="#3E4449"/>
<path d="M20.2189 29.8831C20.0982 29.8832 19.9785 29.8598 19.8669 29.8137C19.7553 29.7676 19.6539 29.6999 19.5684 29.6145C19.483 29.5292 19.4152 29.4277 19.369 29.3162C19.3227 29.2046 19.2989 29.0849 19.2989 28.9641C19.2938 27.3541 19.6082 25.7594 20.2237 24.2717C20.8392 22.784 21.7437 21.4329 22.8848 20.2971C23.0572 20.1247 23.2911 20.0281 23.5349 20.0281C23.7786 20.0281 24.0125 20.1247 24.1849 20.2971C24.3573 20.4695 24.4542 20.7032 24.4542 20.947C24.4542 21.1908 24.3573 21.425 24.1849 21.5974C23.2146 22.5628 22.4453 23.7108 21.9214 24.9753C21.3976 26.2398 21.1296 27.5954 21.1329 28.9641C21.1331 29.2071 21.0371 29.4403 20.8658 29.6125C20.6945 29.7848 20.4619 29.882 20.2189 29.8831Z" fill="#3E4449"/>
<path d="M14.926 29.8831C14.8052 29.8832 14.6855 29.8598 14.5739 29.8137C14.4623 29.7676 14.3609 29.6999 14.2755 29.6145C14.19 29.5292 14.1222 29.4277 14.076 29.3162C14.0297 29.2046 14.0059 29.0849 14.0059 28.9641C13.9995 26.6584 14.4506 24.3746 15.3331 22.2444C16.2155 20.1142 17.5118 18.1802 19.1469 16.5544C19.3193 16.3821 19.5531 16.2849 19.7969 16.2849C20.0407 16.2849 20.2746 16.3821 20.447 16.5544C20.6194 16.7268 20.7161 16.9605 20.7161 17.2043C20.7161 17.4481 20.6194 17.6819 20.447 17.8542C18.9838 19.3098 17.8238 21.0411 17.0342 22.948C16.2447 24.8549 15.8411 26.8993 15.8469 28.9631C15.847 29.0838 15.8235 29.2036 15.7774 29.3152C15.7313 29.4267 15.6637 29.5281 15.5784 29.6135C15.4932 29.699 15.392 29.7664 15.2806 29.8127C15.1691 29.859 15.0496 29.8829 14.9289 29.8831H14.926Z" fill="#3E4449"/>
<path d="M16.1904 14.5281C16.0698 14.5282 15.9504 14.5043 15.8389 14.4583C15.7274 14.4122 15.626 14.3448 15.5406 14.2595C15.4553 14.1743 15.3876 14.0726 15.3414 13.9612C15.2952 13.8497 15.2715 13.7307 15.2715 13.6101V7.16089C15.2715 6.91715 15.3683 6.68333 15.5406 6.51099C15.713 6.33864 15.9467 6.24194 16.1904 6.24194C16.4342 6.24194 16.6679 6.33864 16.8402 6.51099C17.0126 6.68333 17.1095 6.91715 17.1095 7.16089V13.6111C17.1094 13.7316 17.0854 13.8508 17.0392 13.9622C16.9929 14.0735 16.9252 14.1744 16.8398 14.2595C16.7545 14.3447 16.6533 14.4122 16.5419 14.4583C16.4304 14.5043 16.311 14.5282 16.1904 14.5281Z" fill="#3E4449"/>
<path d="M3.17207 33.3437C3.03571 33.3455 2.90038 33.32 2.77412 33.2685C2.64786 33.217 2.53325 33.1406 2.43708 33.0439C2.34563 32.941 2.26887 32.8261 2.20905 32.7021C2.15902 32.5772 2.13452 32.4435 2.13703 32.309C2.13337 32.1733 2.16181 32.0386 2.22004 31.916C2.27256 31.7905 2.34597 31.6746 2.43708 31.5737C2.55737 31.4542 2.70523 31.3665 2.86762 31.3178C3.03002 31.2692 3.20183 31.2613 3.36799 31.2949C3.43768 31.3041 3.50538 31.3251 3.56806 31.3569C3.63176 31.3773 3.69124 31.4085 3.74397 31.4497C3.80497 31.4917 3.85798 31.5327 3.90998 31.5737C4.00183 31.6741 4.07532 31.7901 4.12702 31.916C4.18175 32.0398 4.21003 32.1737 4.21003 32.309C4.21003 32.4444 4.18175 32.5783 4.12702 32.7021C4.07445 32.8275 4.00105 32.9429 3.90998 33.0439C3.81322 33.1406 3.69811 33.217 3.57136 33.2685C3.44461 33.32 3.30888 33.3455 3.17207 33.3437Z" fill="#3E4449"/>
<path d="M60.2356 37.2346C60.1659 37.2384 60.0961 37.2313 60.0286 37.2136C59.9608 37.2008 59.8939 37.1832 59.8285 37.1613C59.7665 37.1344 59.7076 37.1007 59.6526 37.0613C59.5966 37.0256 59.5446 36.9845 59.4976 36.9377C59.3557 36.7912 59.2588 36.6069 59.2184 36.407C59.178 36.207 59.1958 35.9994 59.2696 35.8093C59.326 35.6837 59.4031 35.5686 59.4976 35.4685C59.5386 35.4265 59.5976 35.3855 59.6526 35.3445C59.7076 35.3069 59.7665 35.2759 59.8285 35.2517C59.8938 35.2268 59.9607 35.2061 60.0286 35.1897C60.3014 35.1384 60.5835 35.1974 60.8129 35.3537C61.0423 35.5101 61.2005 35.751 61.2526 36.0237C61.2632 36.0831 61.2691 36.143 61.2705 36.2033C61.267 36.3406 61.2389 36.4764 61.1875 36.6037C61.137 36.7299 61.0592 36.8428 60.9596 36.9353C60.8653 37.0313 60.7525 37.1075 60.6281 37.1589C60.5037 37.2103 60.3702 37.236 60.2356 37.2346Z" fill="#3E4449"/>
<path d="M21.0961 2.31929C20.8592 2.31699 20.6303 2.23291 20.4484 2.08101C20.2665 1.92911 20.1428 1.71903 20.0983 1.48628C20.0538 1.25352 20.0913 1.01243 20.2043 0.804151C20.3173 0.59587 20.4991 0.433252 20.7185 0.343702C20.9378 0.254151 21.1814 0.243235 21.4079 0.31294C21.6344 0.382644 21.8298 0.52861 21.9609 0.726026C22.092 0.923441 22.1507 1.16016 22.127 1.39595C22.1034 1.63174 21.9988 1.85203 21.8311 2.01948C21.6334 2.2096 21.3704 2.31673 21.0961 2.31929Z" fill="#3E4449"/>
<path d="M3.6599 46.8781C3.08475 46.8781 2.52252 46.7074 2.0443 46.3879C1.56608 46.0684 1.19336 45.6146 0.973256 45.0832C0.753156 44.5518 0.695645 43.9671 0.807851 43.403C0.920056 42.8389 1.19694 42.3205 1.60363 41.9138C2.01032 41.5071 2.52854 41.2301 3.09264 41.1179C3.65674 41.0057 4.24145 41.0633 4.77282 41.2834C5.30418 41.5035 5.75834 41.8765 6.07787 42.3547C6.39741 42.8329 6.56798 43.3953 6.56798 43.9704C6.56798 44.7417 6.26153 45.4812 5.71618 46.0266C5.17082 46.5719 4.43115 46.8781 3.6599 46.8781ZM3.6599 43.132C3.49416 43.132 3.33213 43.1816 3.19433 43.2736C3.05652 43.3657 2.94916 43.4965 2.88573 43.6496C2.82231 43.8027 2.80567 43.9709 2.838 44.1335C2.87034 44.2961 2.95018 44.4455 3.06737 44.5627C3.18457 44.6799 3.33389 44.7599 3.49645 44.7922C3.65901 44.8245 3.82746 44.8078 3.98058 44.7443C4.1337 44.6809 4.2646 44.5736 4.35668 44.4357C4.44876 44.2979 4.49791 44.1362 4.49791 43.9704C4.49765 43.7482 4.40928 43.5352 4.25219 43.3781C4.09509 43.221 3.88207 43.1323 3.6599 43.132Z" fill="#3E4449"/>
<path d="M54.5589 13.2753C54.3386 13.2749 54.1215 13.224 53.924 13.1264C53.6381 12.9837 53.4062 12.7519 53.263 12.4663L52.0779 9.62837L49.2909 8.46529C49.2507 8.44852 49.2117 8.42904 49.174 8.40718C48.9549 8.28197 48.7709 8.1038 48.6391 7.88863C48.5073 7.67345 48.432 7.42827 48.42 7.17622C48.4178 6.9072 48.4865 6.64266 48.6192 6.40864C48.7519 6.17463 48.9439 5.97939 49.176 5.84321C49.2133 5.8229 49.2517 5.80485 49.2909 5.78853L52.0729 4.62837L53.2289 1.84956C53.341 1.59596 53.5228 1.37923 53.7532 1.22505C53.9836 1.07087 54.2532 0.985283 54.5303 0.978469C54.8075 0.971655 55.0809 1.0438 55.3187 1.18648C55.5564 1.32915 55.7486 1.53634 55.873 1.78413L57.061 4.62837L59.846 5.7895C59.8844 5.80473 59.9218 5.82217 59.9579 5.84224C60.1794 5.96659 60.3654 6.1455 60.4986 6.36177C60.6317 6.57804 60.7076 6.82485 60.7189 7.07857C60.7209 7.34727 60.6521 7.61152 60.5193 7.84517C60.3866 8.07882 60.1947 8.2732 59.9629 8.40913C59.9254 8.43032 59.8867 8.44948 59.847 8.46626L57.065 9.62154L55.909 12.4013C55.7893 12.6595 55.5989 12.8785 55.36 13.0332C55.1212 13.1878 54.8434 13.2718 54.5589 13.2753ZM55.144 11.6074L53.2199 7.86226C53.354 7.911 53.4766 7.98696 53.5799 8.0854C53.6832 8.18385 53.7649 8.30291 53.82 8.43452L54.5689 10.2343L55.316 8.43452C55.3717 8.30033 55.4551 8.17931 55.5607 8.07954C55.6663 7.97977 55.7917 7.90339 55.9289 7.85542L57.675 7.13032L55.898 6.38911C55.7673 6.33889 55.6481 6.26292 55.5475 6.16548C55.447 6.06805 55.3672 5.95127 55.3129 5.82222L54.5639 4.02241L53.8179 5.82222C53.7622 5.95687 53.6787 6.0782 53.5727 6.17818C53.4667 6.27815 53.3406 6.35457 53.2029 6.4023L51.456 7.12739L55.144 11.6074Z" fill="#3E4449"/>
</g>
<defs>
<clipPath id="clip0_8_19437">
<rect width="60.52" height="51.5267" fill="white" transform="translate(0.75 0.241699)"/>
</clipPath>
</defs>
</svg>
