<svg width="199" height="1532" viewBox="0 0 199 1532" fill="none" xmlns="http://www.w3.org/2000/svg">
<g clip-path="url(#clip0_27_3)">
<g clip-path="url(#clip1_27_3)">
<path d="M112.238 188.075C112.238 188.075 115.974 220.425 132.275 240.552V257.719C132.275 257.719 115.087 232.347 104.861 239.433C94.6353 246.519 91.3472 240.55 91.3472 240.55C91.3472 240.55 88.3774 234.712 77.5864 244.312C74.6974 246.882 71.0416 251.285 66.9766 256.336L68.5195 235.727C68.5195 235.727 74.5634 231.418 78.0034 220.427C81.4434 209.436 84.2896 196.861 84.2896 196.861L88.2896 173.134L112.238 188.075Z" fill="#CCCCCC"/>
<path d="M134.881 226.952C134.881 226.952 140.281 226.374 140.281 235.729C140.281 245.084 138.738 259.553 138.448 262.736C138.158 265.919 137.773 267.559 134.88 267.559C131.987 267.559 131.601 265.919 131.312 262.736C131.023 259.553 129.479 245.086 129.479 235.729C129.479 226.372 134.881 226.952 134.881 226.952Z" fill="#CCCCCC"/>
<path d="M97.6501 0C130.83 127.7 105.494 235.472 103.823 244.6C102.152 253.728 97.6501 253.281 97.6501 253.281C97.6501 253.281 93.1503 253.731 91.4773 244.6C91.3548 243.124 91.3137 241.643 91.3542 240.163C91.3542 239.99 91.3542 239.813 91.3542 239.632C91.3542 239.451 94.5253 240.984 94.4993 240.806C89.2583 206.115 90.2221 189.236 89.9421 169.306C89.9361 168.906 84.2039 199.182 84.1589 198.784C84.1469 198.69 84.1382 198.596 84.1272 198.502C79.0872 153.595 76.6601 80.786 97.6501 0Z" fill="#CCCCCC"/>
<path d="M97.6504 8.10205C97.6504 8.10205 89.5501 64.0439 89.9341 168.984C89.9341 168.984 81.253 230.521 68.522 235.729L67.9424 234.829C67.9424 234.829 77.6971 232.375 83.8101 195.6L83.25 190.088C83.25 190.088 74.8884 84.107 97.6504 8.10205Z" fill="#4D4D4D"/>
<path d="M94.4994 240.81C93.6565 239.661 92.5352 238.744 91.2406 238.148C89.9461 237.552 88.5209 237.295 87.0995 237.401C82.2125 237.788 69.6097 251.801 67.2997 255.792V256.692C67.2997 256.692 73.9223 247.882 80.8993 242.224C87.8763 236.566 91.1083 242.747 91.1083 242.747C91.1083 242.747 91.9185 248.726 93.5595 250.309C94.2215 250.948 95.9134 253.288 95.3344 248.895C94.6944 244.032 94.4994 240.81 94.4994 240.81Z" fill="#4D4D4D"/>
<path d="M132.276 257.72C132.276 257.72 131.891 263.22 133.047 264.375C133.047 264.375 129.96 261.963 129.671 254.151C129.671 254.151 132.323 256.661 132.276 257.72Z" fill="#4D4D4D"/>
<path d="M112.24 188.076C112.24 188.076 109.76 216.231 104.862 239.435C104.862 239.435 111.829 219.817 112.24 188.076Z" fill="#4D4D4D"/>
<path d="M89.9351 168.985C89.9351 168.985 90.964 206.152 94.5 240.81C90.5297 217.087 89.0001 193.02 89.9351 168.985Z" fill="#4D4D4D"/>
<path d="M63.1196 226.952C63.1196 226.952 68.5195 226.375 68.5195 235.73C68.5195 245.085 66.9765 259.554 66.6865 262.737C66.3965 265.92 66.0117 267.559 63.1177 267.559C60.2237 267.559 59.8373 265.92 59.5483 262.737C59.2593 259.554 57.7153 245.087 57.7153 235.73C57.7153 226.373 63.1196 226.952 63.1196 226.952Z" fill="#CCCCCC"/>
<path d="M63.1211 230.714C63.1211 230.714 59.1672 230.614 59.2642 241.034C59.3612 251.454 62.3501 264.954 62.3501 264.954C62.3501 264.954 61.4811 233.8 63.1211 230.714Z" fill="#4D4D4D"/>
<path d="M134.881 231.389C133.181 234.143 132.281 237.315 132.281 240.552L129.681 237.373C129.681 237.373 129.479 231.775 134.881 231.389Z" fill="#4D4D4D"/>
<path d="M134.881 231.389C134.881 231.389 132.63 235.408 132.63 244.089V260.036C132.597 261.397 132.67 262.758 132.847 264.108C132.847 264.108 131.794 263.701 131.794 255.857V238.045C131.794 238.045 132.823 232.321 134.881 231.389Z" fill="#4D4D4D"/>
<path d="M99.6272 153.384C97.909 153.384 96.5162 151.991 96.5162 150.273C96.5162 148.555 97.909 147.162 99.6272 147.162C101.345 147.162 102.738 148.555 102.738 150.273C102.738 151.991 101.345 153.384 99.6272 153.384Z" fill="#333333"/>
<path d="M99.6272 181.548C97.909 181.548 96.5162 180.155 96.5162 178.437C96.5162 176.719 97.909 175.326 99.6272 175.326C101.345 175.326 102.738 176.719 102.738 178.437C102.738 180.155 101.345 181.548 99.6272 181.548Z" fill="#333333"/>
<path d="M99.6382 203.506C98.816 203.506 98.0275 203.832 97.4461 204.414C96.8648 204.995 96.5382 205.784 96.5382 206.606V217.206H102.738V206.606C102.738 205.784 102.412 204.995 101.83 204.414C101.249 203.832 100.46 203.506 99.6382 203.506Z" fill="#4D4D4D"/>
<path d="M30.915 1550.58C47.382 1467.6 55.1513 1391.25 58.7153 1343.89C60.6223 1318.57 61.5811 1292.55 61.5811 1266.43V324.153H64.6509V1266.43C64.6509 1292.55 65.6091 1318.57 67.5161 1343.89C69.2611 1367.05 72.0159 1397.16 76.2949 1431.57C82.003 1384.91 85.0747 1337.97 85.4951 1290.96C85.4951 1290.96 87.4161 1018.65 89.1831 768.313C90.9501 517.979 92.561 289.626 92.561 289.626C95.832 293.947 99.4613 293.947 102.737 289.626L109.802 1290.96C110.23 1341.5 113.757 1391.96 120.363 1442.07C125.418 1403.27 128.563 1369.37 130.478 1343.89C132.385 1318.57 133.344 1292.55 133.344 1266.43V324.153H136.414V1266.43C136.414 1292.55 137.372 1318.57 139.28 1343.89C142.847 1391.24 150.616 1467.6 167.08 1550.58L134.88 1632.3L128.38 1615.81L97.646 1680.75L68.3853 1618.93L63.1152 1632.3L30.915 1550.58Z" fill="url(#paint0_linear_27_3)"/>
</g>
</g>
<defs>
<linearGradient id="paint0_linear_27_3" x1="98.9976" y1="289.626" x2="98.9976" y2="1680.75" gradientUnits="userSpaceOnUse">
<stop stop-color="#E6E6E6" stop-opacity="0.545"/>
<stop offset="1" stop-color="#737373"/>
</linearGradient>
<clipPath id="clip0_27_3">
<rect width="199" height="1531.61" fill="white" transform="matrix(-1 0 0 1 199 0)"/>
</clipPath>
<clipPath id="clip1_27_3">
<rect width="136.169" height="1680.76" fill="white" transform="matrix(-1 0 0 1 167.084 0)"/>
</clipPath>
</defs>
</svg>
