<svg width="22" height="25" viewBox="0 0 22 25" fill="none" xmlns="http://www.w3.org/2000/svg">
<path d="M21.9853 2.89004C22.0433 4.30904 11.8743 20.454 10.2593 23.721C10.1133 24.021 9.32829 23.936 8.83929 24.03L5.47028 21.508C3.99128 14.337 4.33531 15.173 0.570312 8.19804L1.12927 7.45004C2.34456 7.55256 3.50206 8.0137 4.4549 8.77498C5.40773 9.53625 6.11298 10.5634 6.48126 11.726C6.96526 12.933 7.62629 14.116 8.41229 15.732C9.02529 14.708 9.34928 14.095 9.73828 13.532C11.2743 11.294 16.1663 2.55304 18.0463 0.615037C18.0453 0.612037 20.3933 0.0350363 21.9853 2.89004Z" fill="#262626"/>
</svg>
