<svg width="109" height="8" viewBox="0 0 109 8" fill="none" xmlns="http://www.w3.org/2000/svg">
<path d="M106.67 1.28945C93.0218 0.828204 79.3669 0.724176 65.7055 0.977366C52.1533 1.22785 38.6138 1.83532 25.0869 2.79979C17.4912 3.34137 9.90454 3.99578 2.32691 4.76302C1.45157 4.8517 0.1423 5.36757 0.00961284 6.38032C-0.123075 7.39308 1.14897 7.70382 1.90515 7.62799C15.3156 6.27404 28.7552 5.26963 42.2239 4.61477C48.9937 4.28711 55.7668 4.04836 62.5434 3.89852C65.893 3.82451 69.2432 3.7726 72.5938 3.74281C74.2695 3.72792 75.9448 3.71822 77.6196 3.7137C79.3656 3.70964 80.6363 3.71371 82.3395 3.71777C89.9546 3.75027 97.5681 3.89581 105.18 4.15442C106.16 4.18759 107.426 3.87144 107.907 2.91149C108.347 2.03142 107.52 1.31924 106.67 1.2908V1.28945Z" fill="#8FEEF2"/>
</svg>
