<svg width="185" height="10" viewBox="0 0 185 10" fill="none" xmlns="http://www.w3.org/2000/svg">
<path d="M184.04 8.63926C185.115 8.00597 184.129 6.73135 182.198 6.37919C178.135 5.63584 174.054 4.96966 169.993 4.22731C166.088 3.62023 162.154 3.22287 158.207 3.03682C150.696 2.46856 143.181 1.88314 135.705 1.45894C129.761 1.11879 123.878 1.0587 117.944 0.794573C109.972 0.456417 101.962 0.437476 93.9846 0.739616C83.6719 1.11112 73.3803 1.5146 63.1103 1.95014C52.9662 2.39568 42.889 3.12954 32.8784 4.15135C25.4683 4.8997 18.1039 5.70517 10.7852 6.56824C7.83913 6.96842 4.94044 7.45007 2.08913 8.013C1.36179 8.14206 0.295265 8.25325 0.756479 8.88254C1.08545 9.14812 1.46686 9.34103 1.87565 9.44897C2.28444 9.55689 2.71135 9.57738 3.12855 9.50881C5.12947 9.48946 7.12173 9.41068 9.10531 9.27261C14.1717 8.88543 19.192 8.44727 24.2223 8.01007C31.4776 7.37377 38.7531 6.77043 45.9324 6.0641C54.9246 5.19036 63.9887 4.59004 73.1249 4.26322C82.1391 3.93407 91.1452 3.56885 100.231 3.36876C105.454 3.25571 110.814 3.38793 116.15 3.50799C123.989 3.68407 131.834 3.84309 139.735 4.20826C146.363 4.5084 153.08 5.10866 159.755 5.56387C165.337 5.94704 170.836 7.15264 176.363 8.03205C177.744 8.25215 179.095 8.62724 180.465 8.90037C181.649 9.24391 182.918 9.15128 184.04 8.63926Z" fill="#EFE025"/>
</svg>
