<svg width="20" height="18" viewBox="0 0 20 18" fill="none" xmlns="http://www.w3.org/2000/svg">
<path d="M19.1261 6.9909C19.1261 7.15459 19.0294 7.33316 18.8359 7.52661L14.7846 11.4775L15.7444 17.0579C15.7519 17.1099 15.7556 17.1843 15.7556 17.2811C15.7556 17.4373 15.7165 17.5694 15.6384 17.6773C15.5603 17.7852 15.4468 17.8391 15.298 17.8391C15.1566 17.8391 15.0078 17.7945 14.8516 17.7052L9.8404 15.0713L4.82924 17.7052C4.66555 17.7945 4.51674 17.8391 4.38281 17.8391C4.22656 17.8391 4.10938 17.7852 4.03125 17.6773C3.95312 17.5694 3.91406 17.4373 3.91406 17.2811C3.91406 17.2364 3.9215 17.162 3.93638 17.0579L4.89621 11.4775L0.833705 7.52661C0.647693 7.32572 0.554688 7.14715 0.554688 6.9909C0.554688 6.7156 0.763021 6.54447 1.17969 6.4775L6.78237 5.66277L9.29353 0.584646C9.4349 0.279587 9.61719 0.127058 9.8404 0.127058C10.0636 0.127058 10.2459 0.279587 10.3873 0.584646L12.8984 5.66277L18.5011 6.4775C18.9178 6.54447 19.1261 6.7156 19.1261 6.9909Z" fill="#FFD41B"/>
</svg>
