<svg width="57" height="56" viewBox="0 0 57 56" fill="none" xmlns="http://www.w3.org/2000/svg">
<g clip-path="url(#clip0_8_24143)">
<g clip-path="url(#clip1_8_24143)">
<g clip-path="url(#clip2_8_24143)">
<path d="M42.9997 42.7012C50.4489 42.7012 56.4876 36.6624 56.4876 29.2132C56.4876 21.764 50.4489 15.7253 42.9997 15.7253C35.5505 15.7253 29.5117 21.764 29.5117 29.2132C29.5117 36.6624 35.5505 42.7012 42.9997 42.7012Z" fill="#EFE025"/>
<path d="M15.1673 11.8202C14.9546 11.8199 14.7448 11.7706 14.5542 11.6762C14.2788 11.5402 14.0556 11.3175 13.9192 11.0422L12.7852 8.32819L10.1213 7.21719C10.0823 7.2017 10.0445 7.18331 10.0083 7.16219C9.79728 7.04189 9.62006 6.87033 9.49299 6.66337C9.36591 6.45641 9.29309 6.22075 9.28125 5.97819C9.28125 5.94419 9.28125 5.91119 9.28125 5.87819C9.2928 5.6348 9.36593 5.39832 9.49378 5.1909C9.62162 4.98347 9.80002 4.81188 10.0122 4.69219C10.0482 4.67219 10.0843 4.65519 10.1213 4.63919L12.7802 3.53019L13.8802 0.874186C13.9607 0.695335 14.0769 0.534843 14.2217 0.402591C14.3665 0.27034 14.5369 0.169128 14.7222 0.105186C15.0425 -0.00077457 15.3901 0.0115836 15.702 0.140018C16.0139 0.268452 16.2695 0.50445 16.4222 0.805186L17.5603 3.52819L20.2222 4.63819C20.2584 4.65336 20.2938 4.67038 20.3282 4.68919C20.5415 4.80856 20.7209 4.98025 20.8495 5.18809C20.978 5.39592 21.0516 5.63307 21.0633 5.87719C21.0633 5.91185 21.0633 5.94519 21.0633 5.97719C21.0512 6.21983 20.9782 6.45552 20.851 6.66246C20.7237 6.86941 20.5463 7.04094 20.3352 7.16119C20.2989 7.18243 20.2612 7.20114 20.2222 7.21719L17.5622 8.31719L16.4623 10.9722C16.3478 11.2209 16.1656 11.4323 15.9366 11.5822C15.7076 11.7322 15.4409 11.8147 15.1673 11.8202ZM13.8893 6.62119C14.0189 6.66816 14.1375 6.74144 14.2375 6.83644C14.3375 6.93143 14.4167 7.04608 14.4703 7.17319L15.1783 8.87319L15.8782 7.17319C15.9334 7.0429 16.0154 6.92564 16.1187 6.829C16.2221 6.73237 16.3446 6.6585 16.4782 6.61219L18.1242 5.92819L16.4423 5.22819C16.3165 5.17959 16.202 5.10608 16.1054 5.01208C16.0088 4.91808 15.9322 4.80553 15.8802 4.68119L15.1713 2.98119L14.4642 4.68119C14.4105 4.81047 14.3302 4.92704 14.2286 5.02333C14.127 5.11962 14.0062 5.1935 13.8742 5.24019L12.2203 5.92919L13.8893 6.62119Z" fill="#3E4449"/>
<path d="M50.4212 55.6393C50.1597 55.639 49.9035 55.565 49.6821 55.4258C49.4606 55.2866 49.2829 55.0879 49.1692 54.8523L48.0382 52.1463L45.3742 51.0363C45.3353 51.0203 45.2975 51.0016 45.2612 50.9803C45.0494 50.8598 44.8717 50.6875 44.7447 50.4795C44.6177 50.2716 44.5457 50.0348 44.5352 49.7913C44.5331 49.5321 44.5994 49.2769 44.7276 49.0516C44.8558 48.8263 45.0413 48.6389 45.2652 48.5083C45.3005 48.489 45.3369 48.4716 45.3742 48.4563L48.0342 47.3463L49.1342 44.6903C49.2148 44.5118 49.3309 44.3516 49.4755 44.2196C49.6201 44.0875 49.7901 43.9864 49.9752 43.9223C50.2955 43.8164 50.6431 43.8287 50.955 43.9572C51.2669 44.0856 51.5224 44.3216 51.6752 44.6223L52.8132 47.3443L55.4752 48.4553C55.5094 48.4701 55.5428 48.4868 55.5752 48.5053C55.7886 48.6249 55.9681 48.7967 56.0969 49.0047C56.2256 49.2127 56.2994 49.45 56.3112 49.6943C56.3112 49.7283 56.3112 49.7623 56.3112 49.7943C56.2991 50.0369 56.226 50.2726 56.0988 50.4795C55.9716 50.6865 55.7942 50.858 55.5832 50.9783C55.5467 50.9995 55.5089 51.0185 55.4702 51.0353L52.8112 52.1353L51.7212 54.7973C51.6063 55.0462 51.4231 55.2574 51.193 55.4064C50.963 55.5555 50.6953 55.6362 50.4212 55.6393ZM49.1422 50.4393C49.272 50.4864 49.3906 50.5598 49.4906 50.655C49.5906 50.7502 49.6698 50.865 49.7232 50.9923L50.4322 52.6923L51.1382 50.9923C51.1919 50.8628 51.2723 50.7459 51.3741 50.6495C51.476 50.553 51.5969 50.479 51.7292 50.4323L53.3792 49.7473L51.6982 49.0473C51.5724 48.999 51.4577 48.9256 51.3609 48.8318C51.2642 48.738 51.1874 48.6256 51.1352 48.5013L50.4262 46.8013L49.7202 48.5013C49.6655 48.6318 49.5837 48.7492 49.4803 48.8457C49.3769 48.9422 49.2541 49.0157 49.1202 49.0613L47.4712 49.7493L49.1422 50.4393Z" fill="#3E4449"/>
<path d="M6.36287 10.5618C6.22884 10.5614 6.09625 10.5342 5.97287 10.4818C5.82146 10.4184 5.68799 10.3186 5.58427 10.1914C5.48054 10.0641 5.40973 9.91328 5.37811 9.75218C5.34648 9.59108 5.355 9.42467 5.40292 9.26765C5.45084 9.11062 5.53669 8.96781 5.65287 8.85183C5.84428 8.67342 6.09621 8.57422 6.35787 8.57422C6.61953 8.57422 6.87146 8.67342 7.06287 8.85183C7.10879 8.89953 7.15218 8.94959 7.19287 9.00183C7.22287 9.06183 7.25287 9.12283 7.28287 9.18183C7.31287 9.24083 7.32287 9.30182 7.34287 9.36182C7.35443 9.42791 7.36112 9.49476 7.36287 9.56183C7.36232 9.69413 7.33553 9.82502 7.28403 9.94689C7.23253 10.0688 7.15736 10.1792 7.06287 10.2718C6.97173 10.3648 6.86274 10.4384 6.74246 10.4882C6.62218 10.5381 6.49307 10.5631 6.36287 10.5618Z" fill="#3E4449"/>
<path d="M36.0352 52.4048C35.9051 52.4067 35.776 52.3829 35.6552 52.3348C35.5351 52.2831 35.4264 52.2083 35.3352 52.1148C35.2385 52.0261 35.1633 51.9167 35.1152 51.7948C35.0637 51.6711 35.0365 51.5387 35.0352 51.4048C35.0367 51.2741 35.0639 51.145 35.1152 51.0248C35.1634 50.9031 35.2386 50.794 35.3352 50.7058C35.4488 50.5861 35.5911 50.4975 35.7486 50.4483C35.9061 50.3991 36.0736 50.391 36.2352 50.4248C36.2997 50.4407 36.3632 50.4607 36.4252 50.4848C36.4838 50.5108 36.5406 50.5409 36.5952 50.5748C36.6478 50.6153 36.6979 50.659 36.7452 50.7058C36.8386 50.7967 36.9133 50.9051 36.9652 51.0248C37.0133 51.1456 37.0371 51.2747 37.0352 51.4048C37.0372 51.5381 37.0134 51.6705 36.9652 51.7948C36.9134 51.9148 36.8387 52.0235 36.7452 52.1148C36.652 52.2079 36.5413 52.2815 36.4194 52.3313C36.2975 52.3811 36.1668 52.4061 36.0352 52.4048Z" fill="#3E4449"/>
<path d="M49.6641 6.02149C49.5318 6.02094 49.4009 5.99414 49.279 5.94265C49.1572 5.89115 49.0467 5.81598 48.9541 5.72149C48.8609 5.62996 48.7862 5.52131 48.7341 5.40149C48.6407 5.15676 48.6407 4.88622 48.7341 4.64149C48.7872 4.51928 48.8617 4.40753 48.9541 4.31149C49.0483 4.22145 49.1563 4.14717 49.2741 4.09149C49.4575 4.01839 49.6583 4.00026 49.8518 4.03933C50.0454 4.0784 50.2234 4.17296 50.3641 4.31149C50.4629 4.4022 50.5384 4.5154 50.5841 4.64149C50.6368 4.76124 50.664 4.89065 50.664 5.02149C50.664 5.15234 50.6368 5.28174 50.5841 5.40149C50.5357 5.52329 50.4605 5.63265 50.3641 5.72149C50.2742 5.81679 50.1657 5.8926 50.0453 5.94421C49.9248 5.99581 49.7951 6.02212 49.6641 6.02149Z" fill="#3E4449"/>
<path d="M5.18363 53.5349C5.05026 53.5378 4.91766 53.514 4.79363 53.4649C4.67386 53.4132 4.5652 53.3388 4.47363 53.2459C4.33653 53.1041 4.24295 52.9259 4.20396 52.7326C4.16497 52.5392 4.18221 52.3387 4.25363 52.1549C4.30207 52.0331 4.37726 51.9237 4.47363 51.8349C4.58907 51.7178 4.73159 51.631 4.88857 51.5822C5.04556 51.5334 5.21216 51.524 5.37363 51.5549C5.4395 51.5657 5.50348 51.5859 5.56363 51.6149C5.62514 51.6351 5.68266 51.6659 5.73363 51.7059C5.79005 51.7408 5.84067 51.7843 5.88363 51.8349C5.98001 51.9237 6.05519 52.0331 6.10363 52.1549C6.16587 52.3064 6.18995 52.4708 6.17374 52.6338C6.15754 52.7968 6.10155 52.9533 6.0107 53.0896C5.91985 53.2259 5.79692 53.3377 5.6527 53.4154C5.50849 53.493 5.34741 53.5341 5.18363 53.5349Z" fill="#3E4449"/>
<path d="M22.3132 40.5421H22.1852C21.9199 40.5409 21.666 40.4344 21.4793 40.246C21.2926 40.0576 21.1884 39.8028 21.1896 39.5375C21.1908 39.2723 21.2973 39.0184 21.4857 38.8317C21.6741 38.645 21.9289 38.5408 22.1942 38.542C22.2312 38.542 22.2752 38.542 22.3152 38.542C25.2307 38.4604 28.0819 37.6662 30.6198 36.2288C36.7892 32.8655 40.4205 26.8041 38.5474 22.9938C38.2023 22.3426 37.7269 21.7693 37.1507 21.3098C36.5745 20.8502 35.9098 20.5142 35.1981 20.3226C32.1119 19.3376 27.7536 20.0586 23.8293 22.1998C18.9189 24.874 15.4527 29.3513 15.3987 33.0896C15.3922 33.3541 15.2822 33.6054 15.0924 33.7898C14.9027 33.9741 14.6482 34.0768 14.3836 34.0756C14.2523 34.0737 14.1226 34.0459 14.002 33.9938C13.8814 33.9417 13.7723 33.8664 13.6808 33.7721C13.5893 33.6779 13.5173 33.5665 13.4689 33.4444C13.4205 33.3223 13.3966 33.1919 13.3986 33.0606C13.4626 28.5602 17.2698 23.4939 22.8722 20.4437C27.3265 18.0135 32.1609 17.2574 35.8032 18.4155C36.774 18.6862 37.6785 19.1547 38.4598 19.7914C39.2411 20.4282 39.8824 21.2195 40.3435 22.1158C42.7537 27.0161 38.9024 33.9936 31.5769 37.9879C28.744 39.5834 25.5634 40.4604 22.3132 40.5421Z" fill="#3E4449"/>
<path d="M25.3652 34.1119C24.8338 34.1169 24.3048 34.0393 23.7972 33.8819C23.3501 33.7554 22.9341 33.5378 22.5752 33.2426C22.2164 32.9474 21.9225 32.5812 21.7122 32.1669C20.6542 30.0129 22.2242 27.0179 25.2862 25.3489C26.9 24.3812 28.8305 24.0894 30.6582 24.5369C31.1053 24.6637 31.5214 24.8814 31.8803 25.1765C32.2393 25.4717 32.5334 25.8378 32.7442 26.2519C33.8012 28.4069 32.2322 31.4019 29.1702 33.0699C28.0068 33.7248 26.6999 34.0827 25.3652 34.1119ZM29.0882 26.3119C28.0889 26.3433 27.1124 26.6179 26.2432 27.1119C24.0162 28.3259 23.0142 30.2899 23.5072 31.2939C23.6014 31.4648 23.73 31.6144 23.8849 31.7332C24.0398 31.8519 24.2177 31.9373 24.4072 31.9839C25.7152 32.2588 27.0789 32.0215 28.2172 31.3209C30.4432 30.1079 31.4462 28.1439 30.9532 27.1399C30.859 26.9689 30.7304 26.8193 30.5755 26.7006C30.4206 26.5818 30.2428 26.4965 30.0532 26.4499C29.7405 26.3547 29.415 26.3082 29.0882 26.3119Z" fill="#3E4449"/>
<path d="M46.1516 39.475C45.9523 39.4756 45.7575 39.4166 45.5919 39.3057C45.4264 39.1948 45.2978 39.037 45.2226 38.8525C45.1474 38.668 45.129 38.4652 45.1698 38.2702C45.2106 38.0751 45.3087 37.8968 45.4515 37.7579C52.9921 30.4163 55.9343 21.7387 52.9521 15.6563C52.1675 14.1613 51.0832 12.844 49.7669 11.7867C48.4506 10.7294 46.9305 9.95464 45.3015 9.51084C38.48 7.33869 29.2864 8.8368 20.7078 13.5111C18.8093 14.546 16.9875 15.7158 15.2564 17.0114C15.0442 17.1705 14.7775 17.2389 14.5149 17.2013C14.2523 17.1638 14.0154 17.0236 13.8563 16.8114C13.6971 16.5992 13.6288 16.3325 13.6663 16.0699C13.7038 15.8073 13.8441 15.5704 14.0563 15.4113C15.8651 14.0599 17.7681 12.8394 19.7507 11.759C28.7983 6.82965 38.577 5.27554 45.9086 7.60771C47.7951 8.12942 49.5537 9.0348 51.0744 10.2672C52.5951 11.4997 53.8451 13.0326 54.7462 14.7702C58.1224 21.6487 55.0222 31.2344 46.8456 39.192C46.6597 39.3727 46.4109 39.4742 46.1516 39.475Z" fill="#3E4449"/>
<path d="M18.0615 51.7029C15.5772 51.7263 13.1041 51.3674 10.729 50.6388C8.84251 50.1169 7.08397 49.2115 5.56333 47.9791C4.04269 46.7467 2.79265 45.2138 1.89137 43.4763C-0.480804 38.643 0.241247 32.5745 3.91951 26.3881C3.98675 26.275 4.07561 26.1763 4.181 26.0975C4.2864 26.0188 4.40627 25.9616 4.53377 25.9292C4.66128 25.8968 4.79392 25.8898 4.92412 25.9087C5.05432 25.9275 5.17953 25.9718 5.29261 26.0391C5.40568 26.1063 5.50441 26.1952 5.58314 26.3005C5.66188 26.4059 5.71909 26.5258 5.7515 26.6533C5.78391 26.7808 5.79089 26.9135 5.77204 27.0437C5.75319 27.1739 5.70887 27.2991 5.64163 27.4122C2.31939 32.9976 1.61935 38.3889 3.68649 42.5952C4.47185 44.0886 5.55635 45.4043 6.87242 46.4602C8.18849 47.5161 9.70792 48.2897 11.336 48.7327C18.1605 50.9048 27.3532 49.4057 35.9308 44.7324C36.0462 44.6676 36.1734 44.6264 36.3049 44.6111C36.4364 44.5959 36.5696 44.6068 36.6968 44.6435C36.824 44.6801 36.9427 44.7416 37.0459 44.8244C37.1492 44.9072 37.235 45.0097 37.2983 45.126C37.3617 45.2422 37.4013 45.3698 37.415 45.5015C37.4286 45.6332 37.416 45.7662 37.3778 45.893C37.3396 46.0197 37.2766 46.1377 37.1925 46.2399C37.1084 46.3421 37.0049 46.4266 36.8879 46.4885C31.1359 49.7464 24.67 51.5373 18.0615 51.7029Z" fill="#3E4449"/>
<path d="M9.16135 25.9823C8.58409 25.9821 8.01205 25.8729 7.47535 25.6603C6.36625 25.2139 5.46417 24.3689 4.94635 23.2913C4.38219 22.1292 4.27939 20.7965 4.65867 19.5616C5.03795 18.3267 5.87113 17.2814 6.99035 16.6363C8.05969 16.0539 9.31514 15.9151 10.4859 16.25C11.6566 16.5848 12.6488 17.3665 13.2484 18.4263C13.3104 18.5333 13.3674 18.6393 13.4214 18.7493C13.9894 19.9118 14.0944 21.2467 13.715 22.4836C13.3357 23.7206 12.5004 24.7671 11.3784 25.4113C10.6995 25.7861 9.93675 25.9826 9.16135 25.9823ZM9.21835 18.0613C8.77539 18.0627 8.33993 18.1758 7.95235 18.3903C7.2805 18.7842 6.78254 19.4177 6.55846 20.1635C6.33439 20.9094 6.4008 21.7124 6.74435 22.4113C7.04436 23.0426 7.57038 23.5383 8.21835 23.8003C8.57229 23.9431 8.95381 24.0044 9.33466 23.9796C9.7155 23.9549 10.0859 23.8447 10.4184 23.6573C11.0929 23.2645 11.5933 22.6303 11.8183 21.8828C12.0432 21.1353 11.9761 20.3302 11.6304 19.6303C11.5984 19.5673 11.5634 19.5003 11.5244 19.4303C11.2952 19.0187 10.9611 18.6752 10.556 18.4348C10.151 18.1943 9.6894 18.0654 9.21835 18.0613Z" fill="#3E4449"/>
<path d="M46.1228 24.7414C45.4567 24.7373 44.8052 24.5454 44.2432 24.1878C43.6812 23.8301 43.2316 23.3212 42.9458 22.7194C42.5631 21.9425 42.4573 21.0581 42.6459 20.2128C42.8345 19.3675 43.3062 18.612 43.9828 18.0714C44.431 17.7133 44.9606 17.4712 45.5247 17.3665C46.0888 17.2619 46.67 17.2979 47.2168 17.4714C47.6797 17.6194 48.1074 17.8603 48.4739 18.1795C48.8403 18.4986 49.1377 18.8892 49.3478 19.3274C49.7758 20.1974 49.8551 21.1982 49.5694 22.1247C49.2836 23.0513 48.6545 23.8336 47.8108 24.3114C47.3733 24.5548 46.8874 24.6986 46.3878 24.7324C46.3008 24.7374 46.2138 24.7414 46.1228 24.7414ZM46.1618 19.3074C45.91 19.3084 45.6625 19.3723 45.4418 19.4934C45.3631 19.5374 45.2882 19.588 45.2178 19.6444C44.9037 19.9036 44.6859 20.2609 44.5993 20.6588C44.5128 21.0567 44.5627 21.4722 44.7408 21.8384C44.869 22.1237 45.0814 22.3628 45.3496 22.5237C45.6178 22.6846 45.9288 22.7596 46.2408 22.7384C46.4536 22.724 46.6606 22.6626 46.8468 22.5584C47.242 22.3319 47.5356 21.9628 47.6672 21.5267C47.7989 21.0907 47.7587 20.6208 47.5548 20.2134C47.4625 20.0178 47.3313 19.843 47.1691 19.6997C47.007 19.5565 46.8174 19.4479 46.6118 19.3804C46.4674 19.3355 46.3171 19.3122 46.1658 19.3114L46.1618 19.3074Z" fill="#3E4449"/>
<path d="M41.3838 46.4129C40.7185 46.4084 40.0681 46.2163 39.507 45.8588C38.9459 45.5014 38.497 44.993 38.2118 44.3919C37.8288 43.6149 37.7229 42.7303 37.9115 41.8848C38.1001 41.0393 38.5719 40.2836 39.2488 39.7429C39.4047 39.6195 39.5702 39.5088 39.7438 39.4119C40.1579 39.1822 40.6147 39.04 41.086 38.9939C41.5573 38.9478 42.033 38.9988 42.4838 39.1439C42.9462 39.2919 43.3736 39.5327 43.7397 39.8517C44.1058 40.1707 44.4029 40.5611 44.6128 40.9989C45.0406 41.8693 45.1194 42.8703 44.8331 43.7969C44.5468 44.7235 43.917 45.5056 43.0728 45.9829C42.634 46.2258 42.1472 46.3692 41.6468 46.4029C41.5588 46.4129 41.4708 46.4129 41.3838 46.4129ZM41.4268 40.9789C41.1746 40.9794 40.9267 41.0433 40.7058 41.1649C40.6278 41.2091 40.5535 41.2596 40.4838 41.3159C40.1694 41.5752 39.9515 41.9326 39.8649 42.3308C39.7784 42.7289 39.8284 43.1446 40.0068 43.5109C40.1371 43.7945 40.35 44.0322 40.6177 44.1928C40.8853 44.3533 41.1952 44.4294 41.5068 44.4109C41.7205 44.3962 41.9284 44.3347 42.1158 44.2309C42.5096 44.0032 42.8015 43.6334 42.9316 43.1975C43.0618 42.7615 43.0203 42.2923 42.8158 41.8859C42.7238 41.6906 42.5928 41.516 42.431 41.3729C42.2692 41.2299 42.08 41.1213 41.8748 41.0539C41.7291 41.0065 41.577 40.9818 41.4238 40.9809L41.4268 40.9789Z" fill="#3E4449"/>
<path d="M16.8012 21.1717C16.5929 21.1718 16.3899 21.1069 16.2203 20.986C16.0507 20.8651 15.9232 20.6943 15.8553 20.4974C15.7875 20.3005 15.7828 20.0874 15.8419 19.8877C15.9011 19.688 16.021 19.5118 16.1851 19.3836C17.6575 18.2397 19.2197 17.2163 20.8565 16.3234C29.0091 11.8831 38.0317 11.264 43.3101 14.7853C43.4219 14.857 43.5182 14.9502 43.5936 15.0596C43.6689 15.1689 43.7218 15.2922 43.749 15.4222C43.7762 15.5522 43.7772 15.6863 43.752 15.8167C43.7268 15.9471 43.6759 16.0711 43.6023 16.1816C43.5286 16.2922 43.4337 16.3869 43.323 16.4603C43.2124 16.5337 43.0882 16.5844 42.9578 16.6093C42.8273 16.6343 42.6932 16.6329 42.5633 16.6055C42.4334 16.578 42.3102 16.525 42.201 16.4494C37.5227 13.3322 29.3311 13.9852 21.8145 18.0795C20.2727 18.9198 18.8012 19.8829 17.4142 20.9597C17.2391 21.0965 17.0234 21.1711 16.8012 21.1717Z" fill="#3E4449"/>
<path d="M16.9712 41.7196C16.6139 41.7194 16.2587 41.6641 15.9182 41.5556C15.4545 41.4078 15.0259 41.167 14.6584 40.8479C14.291 40.5287 13.9925 40.138 13.7812 39.6996C13.4446 39.0086 13.3238 38.2323 13.4344 37.4716C13.5449 36.711 13.8818 36.0012 14.4012 35.4346C14.6651 35.1443 14.9757 34.9003 15.3202 34.7126C15.7332 34.4843 16.1886 34.343 16.6583 34.2976C17.1281 34.2522 17.6021 34.3036 18.0512 34.4486C18.5145 34.5966 18.9426 34.8378 19.3092 35.1573C19.6758 35.4768 19.9733 35.8679 20.1832 36.3066C20.4341 36.8155 20.5677 37.3741 20.5741 37.9414C20.5805 38.5087 20.4596 39.0702 20.2202 39.5846C19.892 40.3099 19.3367 40.9087 18.6382 41.2906C18.1273 41.571 17.554 41.7186 16.9712 41.7196ZM17.0012 36.2836C16.7891 36.2841 16.5794 36.3288 16.3855 36.4149C16.1916 36.501 16.0178 36.6266 15.8752 36.7836C15.6266 37.0524 15.4649 37.39 15.4114 37.7522C15.3579 38.1145 15.415 38.4844 15.5752 38.8136C15.6684 39.0091 15.8003 39.1836 15.9629 39.3266C16.1255 39.4697 16.3154 39.5782 16.5212 39.6456C16.7134 39.7055 16.9157 39.7261 17.116 39.7062C17.3163 39.6863 17.5106 39.6262 17.6872 39.5296C18.0053 39.3561 18.2571 39.0822 18.4032 38.7506C18.5168 38.5048 18.5745 38.2368 18.5721 37.966C18.5697 37.6953 18.5072 37.4284 18.3892 37.1846C18.2971 36.9887 18.166 36.8137 18.0038 36.6703C17.8417 36.5268 17.6519 36.4181 17.4462 36.3506C17.3022 36.3056 17.1521 36.283 17.0012 36.2836Z" fill="#3E4449"/>
<path d="M19.755 45.9335C17.9175 45.9507 16.0884 45.6853 14.3316 45.1464C12.9223 44.7557 11.6087 44.0784 10.473 43.157C9.33727 42.2355 8.40387 41.0897 7.73114 39.791C6.46761 36.9916 6.36476 33.8055 7.44512 30.9304C7.52801 30.6784 7.7076 30.4697 7.94438 30.3502C8.18116 30.2306 8.45574 30.21 8.70771 30.2929C8.95969 30.3758 9.16841 30.5553 9.28798 30.7921C9.40754 31.0289 9.42814 31.3035 9.34526 31.5555C8.43349 33.9349 8.49855 36.5782 9.52627 38.91C10.0825 39.9643 10.8499 40.8929 11.7805 41.6379C12.7111 42.3828 13.7851 42.9283 14.9357 43.2403C19.836 44.7994 26.4565 43.7153 32.6429 40.3471C38.5973 37.1039 43.2127 32.2045 44.9868 27.2462C45.0308 27.1221 45.0988 27.008 45.187 26.9103C45.2751 26.8127 45.3817 26.7333 45.5006 26.6769C45.6194 26.6205 45.7483 26.5881 45.8797 26.5816C46.0111 26.575 46.1425 26.5945 46.2664 26.6388C46.3903 26.6832 46.5042 26.7515 46.6016 26.84C46.699 26.9284 46.778 27.0352 46.8341 27.1543C46.8902 27.2733 46.9222 27.4022 46.9283 27.5337C46.9345 27.6651 46.9146 27.7965 46.8699 27.9202C44.9348 33.3316 39.9694 38.635 33.6 42.1072C29.3691 44.5 24.6141 45.8141 19.755 45.9335Z" fill="#3E4449"/>
</g>
</g>
</g>
<defs>
<clipPath id="clip0_8_24143">
<rect width="55.97" height="55.61" fill="white" transform="translate(0.519531 0.0302124)"/>
</clipPath>
<clipPath id="clip1_8_24143">
<rect width="55.97" height="55.61" fill="white" transform="translate(0.519531 0.0302124)"/>
</clipPath>
<clipPath id="clip2_8_24143">
<rect width="55.97" height="55.61" fill="white" transform="translate(0.519531 0.0302124)"/>
</clipPath>
</defs>
</svg>
