<svg width="53" height="57" viewBox="0 0 53 57" fill="none" xmlns="http://www.w3.org/2000/svg">
<g clip-path="url(#clip0_8_24071)">
<g clip-path="url(#clip1_8_24071)">
<path d="M38.6765 56.1197C46.5643 56.1197 52.9585 49.7255 52.9585 41.8377C52.9585 33.95 46.5643 27.5557 38.6765 27.5557C30.7888 27.5557 24.3945 33.95 24.3945 41.8377C24.3945 49.7255 30.7888 56.1197 38.6765 56.1197Z" fill="#EFE025"/>
<path d="M34.8139 51.0046C34.6748 51.0048 34.537 50.9775 34.4085 50.9243C34.2799 50.8711 34.1632 50.793 34.0649 50.6946C32.2788 48.9085 31.2754 46.486 31.2754 43.9601C31.2754 41.4341 32.2788 39.0117 34.0649 37.2256C35.851 35.4395 38.2735 34.436 40.7994 34.436C43.3253 34.436 45.7478 35.4395 47.5339 37.2256C47.6325 37.324 47.7107 37.4409 47.764 37.5696C47.8174 37.6983 47.8448 37.8362 47.8448 37.9756C47.8448 38.1149 47.8174 38.2528 47.764 38.3815C47.7107 38.5102 47.6325 38.6271 47.5339 38.7256L35.5649 50.6946C35.4663 50.7931 35.3492 50.8712 35.2203 50.9244C35.0914 50.9776 34.9533 51.0048 34.8139 51.0046ZM40.7989 36.5576C39.424 36.5554 38.0756 36.9363 36.905 37.6576C35.7345 38.3789 34.788 39.4121 34.1719 40.6412C33.5557 41.8704 33.2941 43.2469 33.4165 44.6164C33.539 45.9859 34.0405 47.2942 34.8649 48.3946L45.2339 38.0256C43.9531 37.0698 42.397 36.5547 40.7989 36.5576Z" fill="#3E4449"/>
<path d="M43.8569 48.0764C43.7178 48.0766 43.58 48.0493 43.4515 47.9961C43.3229 47.9429 43.2062 47.8649 43.1079 47.7664L40.0509 44.7094C39.9524 44.6109 39.8743 44.494 39.821 44.3653C39.7677 44.2366 39.7402 44.0987 39.7402 43.9594C39.7402 43.8201 39.7677 43.6822 39.821 43.5535C39.8743 43.4248 39.9524 43.3079 40.0509 43.2094C40.1494 43.1109 40.2663 43.0328 40.395 42.9795C40.5237 42.9262 40.6616 42.8987 40.8009 42.8987C40.9402 42.8987 41.0781 42.9262 41.2068 42.9795C41.3355 43.0328 41.4524 43.1109 41.5509 43.2094L44.6079 46.2664C44.7561 46.4145 44.857 46.6032 44.8979 46.8087C44.9388 47.0142 44.9178 47.2272 44.8376 47.4207C44.7574 47.6143 44.6216 47.7797 44.4474 47.896C44.2732 48.0124 44.0684 48.0745 43.8589 48.0744L43.8569 48.0764Z" fill="#3E4449"/>
<path d="M26.9002 40.6912C26.6193 40.6912 26.3499 40.5797 26.1512 40.3812L3.46718 17.6992C3.36861 17.6008 3.29042 17.4838 3.23706 17.3552C3.18371 17.2265 3.15625 17.0885 3.15625 16.9492C3.15625 16.8099 3.18371 16.6719 3.23706 16.5433C3.29042 16.4146 3.36861 16.2977 3.46718 16.1992L13.0412 6.6252C13.1396 6.52663 13.2565 6.44844 13.3852 6.39508C13.5139 6.34173 13.6519 6.31427 13.7912 6.31427C13.9305 6.31427 14.0684 6.34173 14.1971 6.39508C14.3258 6.44844 14.4427 6.52663 14.5412 6.6252L37.2212 29.3102C37.32 29.4085 37.3984 29.5254 37.4519 29.6541C37.5054 29.7828 37.533 29.9208 37.533 30.0602C37.533 30.1996 37.5054 30.3376 37.4519 30.4663C37.3984 30.595 37.32 30.7119 37.2212 30.8102L27.6472 40.3842C27.4487 40.5815 27.18 40.6919 26.9002 40.6912ZM5.71418 16.9502L26.9002 38.1352L34.9752 30.0602L13.7902 8.8742L5.71418 16.9502Z" fill="#3E4449"/>
<path d="M3.77658 10.6942C3.03323 10.6944 2.30652 10.4742 1.68837 10.0613C1.07022 9.64845 0.58839 9.06154 0.303832 8.37481C0.0192741 7.68808 -0.0552315 6.93239 0.0897399 6.20332C0.234711 5.47425 0.592646 4.80454 1.11827 4.27892C1.6439 3.75329 2.3136 3.39536 3.04268 3.25038C3.77175 3.10541 4.52744 3.17992 5.21417 3.46448C5.90089 3.74903 6.4878 4.23086 6.90066 4.84901C7.31352 5.46717 7.53378 6.19388 7.53358 6.93722C7.53252 7.93332 7.13636 8.88831 6.43201 9.59266C5.72767 10.297 4.77267 10.6932 3.77658 10.6942ZM3.77658 5.29422C3.45218 5.29403 3.135 5.39004 2.86517 5.57013C2.59534 5.75021 2.38499 6.00628 2.2607 6.30593C2.13642 6.60558 2.1038 6.93536 2.16697 7.25356C2.23014 7.57175 2.38625 7.86407 2.61557 8.09352C2.84489 8.32298 3.13711 8.47928 3.45526 8.54264C3.77342 8.606 4.10322 8.57358 4.40295 8.44948C4.70268 8.32538 4.95887 8.11518 5.13912 7.84546C5.31937 7.57574 5.41558 7.25863 5.41558 6.93422C5.41426 6.50012 5.24109 6.08421 4.93395 5.77744C4.6268 5.47067 4.21068 5.29802 3.77658 5.29722V5.29422Z" fill="#3E4449"/>
<path d="M34.8167 39.0356C34.6776 39.0358 34.5398 39.0085 34.4112 38.9553C34.2827 38.9021 34.1659 38.824 34.0677 38.7256L30.9357 35.5896C30.7367 35.3907 30.625 35.1209 30.625 34.8396C30.625 34.5583 30.7367 34.2885 30.9357 34.0896C31.1346 33.8907 31.4044 33.7789 31.6857 33.7789C31.967 33.7789 32.2367 33.8907 32.4357 34.0896L35.5667 37.2216C35.7148 37.3697 35.8157 37.5584 35.8566 37.7639C35.8975 37.9694 35.8766 38.1824 35.7964 38.3759C35.7162 38.5694 35.5804 38.7349 35.4062 38.8512C35.232 38.9676 35.0272 39.0297 34.8177 39.0296L34.8167 39.0356Z" fill="#3E4449"/>
<path d="M9.00266 13.2232C8.86355 13.2234 8.72577 13.1961 8.59723 13.1429C8.46869 13.0897 8.35193 13.0117 8.25366 12.9132L4.93566 9.59521C4.73675 9.39629 4.625 9.12651 4.625 8.84521C4.625 8.5639 4.73675 8.29412 4.93566 8.09521C5.13457 7.89629 5.40436 7.78455 5.68566 7.78455C5.96696 7.78455 6.23675 7.89629 6.43566 8.09521L9.75366 11.4132C9.90183 11.5613 10.0028 11.75 10.0436 11.9555C10.0845 12.161 10.0636 12.374 9.98338 12.5675C9.9032 12.7611 9.76741 12.9265 9.59319 13.0428C9.41898 13.1592 9.21416 13.2213 9.00466 13.2212L9.00266 13.2232Z" fill="#3E4449"/>
<path d="M8.58934 50.8507C8.45022 50.8509 8.31242 50.8237 8.18388 50.7705C8.05533 50.7173 7.93858 50.6392 7.84034 50.5407L0.37734 43.0817C0.27877 42.9832 0.200572 42.8663 0.14722 42.7376C0.0938671 42.6089 0.0664062 42.471 0.0664062 42.3317C0.0664062 42.1923 0.0938671 42.0544 0.14722 41.9257C0.200572 41.797 0.27877 41.6801 0.37734 41.5817L11.5773 30.3817C11.6757 30.2828 11.7925 30.2044 11.9212 30.1509C12.0499 30.0974 12.188 30.0699 12.3273 30.0699C12.4667 30.0699 12.6047 30.0974 12.7334 30.1509C12.8622 30.2044 12.979 30.2828 13.0773 30.3817L20.5403 37.8447C20.6391 37.943 20.7176 38.0598 20.7711 38.1885C20.8246 38.3173 20.8521 38.4553 20.8521 38.5947C20.8521 38.734 20.8246 38.8721 20.7711 39.0008C20.7176 39.1295 20.6391 39.2463 20.5403 39.3447L9.34034 50.5447C9.24163 50.6428 9.12442 50.7204 8.99551 50.7729C8.8666 50.8255 8.72854 50.8519 8.58934 50.8507ZM2.62734 42.3287L8.59234 48.2947L18.2993 38.5887L12.3273 32.6217L2.62734 42.3287Z" fill="#3E4449"/>
<path d="M8.58934 50.8507C8.45022 50.8509 8.31242 50.8237 8.18388 50.7705C8.05533 50.7173 7.93858 50.6392 7.84034 50.5407L0.37734 43.0817C0.27877 42.9832 0.200572 42.8663 0.14722 42.7376C0.0938671 42.6089 0.0664062 42.471 0.0664062 42.3317C0.0664062 42.1923 0.0938671 42.0544 0.14722 41.9257C0.200572 41.797 0.27877 41.6801 0.37734 41.5817L11.5773 30.3817C11.6757 30.2828 11.7925 30.2044 11.9212 30.1509C12.0499 30.0974 12.188 30.0699 12.3273 30.0699C12.4667 30.0699 12.6047 30.0974 12.7334 30.1509C12.8622 30.2044 12.979 30.2828 13.0773 30.3817L20.5403 37.8447C20.6391 37.943 20.7176 38.0598 20.7711 38.1885C20.8246 38.3173 20.8521 38.4553 20.8521 38.5947C20.8521 38.734 20.8246 38.8721 20.7711 39.0008C20.7176 39.1295 20.6391 39.2463 20.5403 39.3447L9.34034 50.5447C9.24163 50.6428 9.12442 50.7204 8.99551 50.7729C8.8666 50.8255 8.72854 50.8519 8.58934 50.8507ZM2.62734 42.3287L8.59234 48.2947L18.2993 38.5887L12.3273 32.6217L2.62734 42.3287Z" fill="#3E4449"/>
<path d="M12.3656 47.0766C12.2265 47.0768 12.0887 47.0495 11.9601 46.9963C11.8316 46.9431 11.7148 46.865 11.6166 46.7666L4.15356 39.3026C4.05476 39.2042 3.97635 39.0874 3.92284 38.9587C3.86934 38.83 3.8418 38.6919 3.8418 38.5526C3.8418 38.4132 3.86934 38.2752 3.92284 38.1464C3.97635 38.0177 4.05476 37.9009 4.15356 37.8026L7.80656 34.1496C7.90501 34.051 8.02192 33.9728 8.15061 33.9194C8.2793 33.8661 8.41725 33.8386 8.55656 33.8386C8.69588 33.8386 8.83382 33.8661 8.96251 33.9194C9.0912 33.9728 9.20812 34.051 9.30656 34.1496L16.7696 41.6126C16.8681 41.711 16.9463 41.8279 16.9997 41.9566C17.053 42.0853 17.0805 42.2232 17.0805 42.3626C17.0805 42.5019 17.053 42.6398 16.9997 42.7685C16.9463 42.8972 16.8681 43.0141 16.7696 43.1126L13.1166 46.7656C13.0181 46.8644 12.9011 46.9428 12.7722 46.9962C12.6433 47.0496 12.5051 47.0769 12.3656 47.0766ZM6.39956 38.5546L12.3656 44.5206L14.5206 42.3646L8.55556 36.3986L6.39956 38.5546Z" fill="#3E4449"/>
<path d="M35.4643 23.9752C35.3252 23.9756 35.1873 23.9484 35.0588 23.8952C34.9302 23.842 34.8135 23.7638 34.7153 23.6652L27.2523 16.2032C27.1538 16.1047 27.0756 15.9878 27.0222 15.8591C26.9689 15.7304 26.9414 15.5925 26.9414 15.4532C26.9414 15.3138 26.9689 15.1759 27.0222 15.0472C27.0756 14.9185 27.1538 14.8016 27.2523 14.7032L38.4523 3.50315C38.6548 3.31114 38.9233 3.2041 39.2023 3.2041C39.4814 3.2041 39.7498 3.31114 39.9523 3.50315L47.4143 10.9662C47.5131 11.0645 47.5916 11.1813 47.6451 11.31C47.6986 11.4388 47.7261 11.5768 47.7261 11.7162C47.7261 11.8555 47.6986 11.9936 47.6451 12.1223C47.5916 12.251 47.5131 12.3678 47.4143 12.4662L36.2143 23.6662C36.116 23.7647 35.999 23.8427 35.8703 23.8958C35.7415 23.9488 35.6036 23.9758 35.4643 23.9752ZM29.4983 15.4542L35.4643 21.4192L45.1703 11.7132L39.2063 5.74715L29.4983 15.4542Z" fill="#3E4449"/>
<path d="M35.4643 23.9752C35.3252 23.9756 35.1873 23.9484 35.0588 23.8952C34.9302 23.842 34.8135 23.7638 34.7153 23.6652L27.2523 16.2032C27.1538 16.1047 27.0756 15.9878 27.0222 15.8591C26.9689 15.7304 26.9414 15.5925 26.9414 15.4532C26.9414 15.3138 26.9689 15.1759 27.0222 15.0472C27.0756 14.9185 27.1538 14.8016 27.2523 14.7032L38.4523 3.50315C38.6548 3.31114 38.9233 3.2041 39.2023 3.2041C39.4814 3.2041 39.7498 3.31114 39.9523 3.50315L47.4143 10.9662C47.5131 11.0645 47.5916 11.1813 47.6451 11.31C47.6986 11.4388 47.7261 11.5768 47.7261 11.7162C47.7261 11.8555 47.6986 11.9936 47.6451 12.1223C47.5916 12.251 47.5131 12.3678 47.4143 12.4662L36.2143 23.6662C36.116 23.7647 35.999 23.8427 35.8703 23.8958C35.7415 23.9488 35.6036 23.9758 35.4643 23.9752ZM29.4983 15.4542L35.4643 21.4192L45.1703 11.7132L39.2063 5.74715L29.4983 15.4542Z" fill="#3E4449"/>
<path d="M39.2424 20.1971C38.9616 20.197 38.6922 20.0855 38.4934 19.8871L31.0344 12.4271C30.9356 12.3288 30.8572 12.2119 30.8037 12.0832C30.7502 11.9545 30.7227 11.8165 30.7227 11.6771C30.7227 11.5377 30.7502 11.3997 30.8037 11.271C30.8572 11.1423 30.9356 11.0254 31.0344 10.9271L34.6844 7.2771C34.7827 7.17829 34.8996 7.09988 35.0283 7.04638C35.157 6.99287 35.295 6.96533 35.4344 6.96533C35.5738 6.96533 35.7118 6.99287 35.8405 7.04638C35.9692 7.09988 36.0861 7.17829 36.1844 7.2771L43.6464 14.7391C43.7452 14.8374 43.8236 14.9543 43.8771 15.083C43.9306 15.2117 43.9582 15.3497 43.9582 15.4891C43.9582 15.6285 43.9306 15.7665 43.8771 15.8952C43.8236 16.0239 43.7452 16.1408 43.6464 16.2391L39.9944 19.8921C39.794 20.0893 39.5236 20.199 39.2424 20.1971ZM33.2764 11.6751L39.2424 17.6411L41.3974 15.4851L35.4344 9.5231L33.2764 11.6751Z" fill="#3E4449"/>
<path d="M28.739 23.3859C28.5294 23.386 28.3245 23.3238 28.1502 23.2073C27.9759 23.0909 27.8401 22.9253 27.76 22.7316C27.6799 22.5378 27.6591 22.3247 27.7003 22.1192C27.7414 21.9136 27.8426 21.7249 27.991 21.5769L31.065 18.5139C31.1635 18.4154 31.2805 18.3373 31.4091 18.284C31.5378 18.2307 31.6757 18.2032 31.815 18.2032C31.9543 18.2032 32.0922 18.2307 32.2209 18.284C32.3496 18.3373 32.4665 18.4154 32.565 18.5139C32.6635 18.6124 32.7417 18.7293 32.795 18.858C32.8483 18.9867 32.8757 19.1246 32.8757 19.2639C32.8757 19.4032 32.8483 19.5411 32.795 19.6698C32.7417 19.7985 32.6635 19.9154 32.565 20.0139L29.493 23.0779C29.3941 23.1767 29.2764 23.2548 29.147 23.3077C29.0175 23.3606 28.8789 23.3872 28.739 23.3859Z" fill="#3E4449"/>
<path d="M16.1355 35.9886C15.926 35.9887 15.7212 35.9266 15.547 35.8103C15.3728 35.6939 15.237 35.5285 15.1568 35.3349C15.0766 35.1414 15.0556 34.9284 15.0965 34.7229C15.1374 34.5175 15.2383 34.3287 15.3865 34.1806L18.4175 31.1506C18.6164 30.9517 18.8862 30.84 19.1675 30.84C19.4488 30.84 19.7186 30.9517 19.9175 31.1506C20.1164 31.3495 20.2282 31.6193 20.2282 31.9006C20.2282 32.1819 20.1164 32.4517 19.9175 32.6506L16.8865 35.6806C16.7878 35.779 16.6707 35.8568 16.5418 35.9097C16.4129 35.9625 16.2748 35.9894 16.1355 35.9886Z" fill="#3E4449"/>
<path d="M8.53982 22.3342C8.33032 22.3343 8.1255 22.2722 7.95129 22.1558C7.77707 22.0395 7.64128 21.8741 7.5611 21.6805C7.48092 21.487 7.45995 21.274 7.50084 21.0685C7.54173 20.863 7.64264 20.6743 7.79082 20.5262L16.9018 11.4152C17.1007 11.2163 17.3705 11.1046 17.6518 11.1046C17.9331 11.1046 18.2029 11.2163 18.4018 11.4152C18.6007 11.6141 18.7125 11.8839 18.7125 12.1652C18.7125 12.4465 18.6007 12.7163 18.4018 12.9152L9.28882 22.0272C9.1903 22.1251 9.07343 22.2026 8.9449 22.2553C8.81638 22.308 8.67872 22.3348 8.53982 22.3342Z" fill="#3E4449"/>
<path d="M24.4868 2.13824C24.2065 2.13614 23.9384 2.0239 23.7402 1.82575C23.5421 1.6276 23.4298 1.35945 23.4278 1.07924C23.4265 0.86886 23.4879 0.662875 23.6042 0.487548C23.7205 0.312222 23.8863 0.175501 24.0806 0.0948223C24.2749 0.0141434 24.4888 -0.0068371 24.6951 0.0345563C24.9014 0.0759497 25.0906 0.177841 25.2388 0.327236C25.3341 0.424685 25.4096 0.539846 25.4608 0.666236C25.5143 0.797494 25.5431 0.93751 25.5458 1.07924C25.5437 1.35945 25.4314 1.6276 25.2333 1.82575C25.0351 2.0239 24.767 2.13614 24.4868 2.13824Z" fill="#3E4449"/>
<path d="M1.61369 30.2107C1.5426 30.2089 1.47174 30.2019 1.40169 30.1897C1.33517 30.1781 1.27078 30.1565 1.21069 30.1257C1.1428 30.1011 1.07855 30.0675 1.01969 30.0257C0.964154 29.9866 0.911055 29.9442 0.860687 29.8987C0.668884 29.6967 0.55971 29.4302 0.554688 29.1517C0.556636 29.0141 0.585513 28.8782 0.639688 28.7517C0.693336 28.6236 0.768409 28.5056 0.861688 28.4027L1.02069 28.2757C1.07955 28.2339 1.1438 28.2002 1.21169 28.1757C1.27178 28.1449 1.33617 28.1233 1.40269 28.1117C1.60902 28.0686 1.82368 28.0909 2.01669 28.1757C2.14808 28.2234 2.26741 28.2993 2.36624 28.3981C2.46508 28.497 2.54101 28.6163 2.58869 28.7477C2.64375 28.8738 2.67217 29.01 2.67217 29.1477C2.67217 29.2853 2.64375 29.4215 2.58869 29.5477C2.54014 29.6784 2.46448 29.7973 2.36669 29.8967C2.16442 30.0928 1.89536 30.205 1.61369 30.2107Z" fill="#3E4449"/>
<path d="M46.6082 23.8678C46.4671 23.8699 46.3268 23.8448 46.1952 23.7938C46.0683 23.7387 45.9532 23.6596 45.8562 23.5608C45.8072 23.5105 45.7611 23.4574 45.7182 23.4018C45.6862 23.3378 45.6542 23.2858 45.6182 23.2218C45.5822 23.1578 45.5762 23.0838 45.5542 23.0218C45.542 22.9518 45.5349 22.8809 45.5332 22.8098C45.5352 22.6722 45.564 22.5364 45.6182 22.4098C45.6733 22.2829 45.7524 22.1678 45.8512 22.0708C45.9453 21.9687 46.0612 21.8891 46.1902 21.8378C46.3835 21.7542 46.5978 21.7318 46.8042 21.7738C46.8782 21.7948 46.9422 21.8158 47.0042 21.8378C47.0662 21.8598 47.1312 21.9018 47.1842 21.9378C47.2441 21.9753 47.2977 22.0218 47.3432 22.0758C47.4453 22.17 47.5249 22.2858 47.5762 22.4148C47.6596 22.608 47.682 22.8221 47.6404 23.0283C47.5988 23.2346 47.4951 23.4232 47.3432 23.5688C47.3001 23.6223 47.2459 23.6657 47.1842 23.6958C47.1281 23.7374 47.0677 23.7729 47.0042 23.8018C46.9393 23.8257 46.8724 23.8434 46.8042 23.8548C46.7399 23.8691 46.6738 23.8735 46.6082 23.8678Z" fill="#3E4449"/>
<path d="M22.5922 53.3793C22.3118 53.3753 22.0432 53.2657 21.8402 53.0723C21.6452 52.8703 21.5352 52.6011 21.5332 52.3203C21.5332 52.1812 21.5606 52.0435 21.6138 51.915C21.667 51.7865 21.745 51.6698 21.8434 51.5715C21.9417 51.4731 22.0585 51.3951 22.1869 51.3419C22.3154 51.2887 22.4531 51.2613 22.5922 51.2613C22.7313 51.2613 22.869 51.2887 22.9975 51.3419C23.1259 51.3951 23.2427 51.4731 23.341 51.5715C23.4394 51.6698 23.5174 51.7865 23.5706 51.915C23.6238 52.0435 23.6512 52.1812 23.6512 52.3203C23.6524 52.4614 23.6273 52.6014 23.5772 52.7333C23.5183 52.8581 23.4396 52.9725 23.3442 53.0723C23.1422 53.2673 22.873 53.3773 22.5922 53.3793Z" fill="#3E4449"/>
</g>
</g>
<defs>
<clipPath id="clip0_8_24071">
<rect width="52.94" height="56.09" fill="white" transform="translate(0.0195312 0.0302124)"/>
</clipPath>
<clipPath id="clip1_8_24071">
<rect width="52.94" height="56.0899" fill="white" transform="translate(0.0195312 0.0302124)"/>
</clipPath>
</defs>
</svg>
