<svg width="53" height="56" viewBox="0 0 53 56" fill="none" xmlns="http://www.w3.org/2000/svg">
<g clip-path="url(#clip0_8_24117)">
<g clip-path="url(#clip1_8_24117)">
<g clip-path="url(#clip2_8_24117)">
<path d="M17.1271 42.9901C24.5755 42.9901 30.6136 36.952 30.6136 29.5036C30.6136 22.0552 24.5755 16.0171 17.1271 16.0171C9.67873 16.0171 3.64062 22.0552 3.64062 29.5036C3.64062 36.952 9.67873 42.9901 17.1271 42.9901Z" fill="#EFE025"/>
<path d="M5.63208 37.4734C5.49497 37.4715 5.35936 37.4443 5.23205 37.3934C5.1037 37.3417 4.98781 37.2633 4.89206 37.1634C4.79314 37.0664 4.71492 36.9504 4.66208 36.8224C4.61058 36.6991 4.58339 36.567 4.58206 36.4334C4.58101 36.2954 4.60794 36.1585 4.66122 36.0312C4.7145 35.9038 4.79302 35.7886 4.89206 35.6924C5.03824 35.5459 5.22452 35.446 5.4274 35.4053C5.63027 35.3645 5.84067 35.3848 6.03207 35.4634C6.16018 35.5151 6.27601 35.5931 6.37207 35.6924C6.56549 35.8904 6.67324 36.1566 6.67206 36.4334C6.67411 36.5664 6.65036 36.6985 6.60208 36.8224C6.54922 36.9504 6.47097 37.0664 6.37207 37.1634C6.27536 37.2614 6.16017 37.3393 6.03314 37.3925C5.90612 37.4458 5.7698 37.4732 5.63208 37.4734Z" fill="#3E4449"/>
<path d="M20.5031 55.0427C20.3654 55.0428 20.229 55.0154 20.1019 54.9622C19.9749 54.909 19.8597 54.831 19.7631 54.7327C19.6632 54.637 19.5848 54.5211 19.5331 54.3927C19.4808 54.2659 19.4536 54.13 19.4531 53.9927C19.4554 53.8557 19.4825 53.7201 19.5331 53.5927C19.5909 53.4677 19.6686 53.3529 19.7631 53.2527C19.9113 53.1094 20.0979 53.0122 20.3003 52.973C20.5027 52.9338 20.7121 52.9542 20.9031 53.0317C21.0289 53.0842 21.1441 53.1591 21.2431 53.2527C21.3346 53.3532 21.409 53.4681 21.4631 53.5927C21.5185 53.7187 21.5457 53.8552 21.5431 53.9927C21.5423 54.2688 21.4348 54.534 21.2431 54.7327C21.1466 54.831 21.0314 54.909 20.9043 54.9622C20.7773 55.0154 20.6409 55.0428 20.5031 55.0427Z" fill="#3E4449"/>
<path d="M50.382 23.3639C50.1059 23.3632 49.8407 23.2557 49.642 23.0639C49.5443 22.9664 49.4662 22.851 49.412 22.7239C49.3607 22.5968 49.3335 22.4611 49.332 22.3239C49.3337 22.2536 49.3404 22.1834 49.3521 22.1139C49.3721 22.0539 49.392 21.9839 49.412 21.9239C49.4372 21.8597 49.4708 21.7992 49.512 21.7439C49.5498 21.6863 49.5934 21.6327 49.642 21.5839C49.8426 21.3959 50.1072 21.2913 50.382 21.2913C50.6569 21.2913 50.9215 21.3959 51.122 21.5839C51.1707 21.6327 51.2143 21.6863 51.252 21.7439C51.2899 21.7997 51.3202 21.8602 51.342 21.9239C51.371 21.9841 51.3912 22.0481 51.402 22.1139C51.4186 22.1826 51.4253 22.2533 51.422 22.3239C51.4255 22.4616 51.3982 22.5982 51.342 22.7239C51.2916 22.8505 51.2169 22.9661 51.122 23.0639C51.0216 23.1554 50.9067 23.2298 50.782 23.2839C50.6563 23.3401 50.5197 23.3674 50.382 23.3639Z" fill="#3E4449"/>
<path d="M32.3898 9.99445C32.2521 9.99875 32.1153 9.97138 31.9898 9.91445C31.8639 9.86269 31.7487 9.7881 31.6498 9.69445C31.5516 9.59788 31.4736 9.4827 31.4204 9.35565C31.3672 9.22859 31.3398 9.09221 31.3398 8.95445C31.3416 8.88407 31.3482 8.8139 31.3598 8.74445C31.3798 8.68445 31.3998 8.61445 31.4198 8.55445C31.4449 8.49023 31.4786 8.42968 31.5198 8.37445C31.5576 8.31683 31.6012 8.26322 31.6498 8.21445C31.6986 8.16577 31.7522 8.12221 31.8098 8.08445C31.8664 8.04525 31.9267 8.01176 31.9898 7.98445C32.0517 7.95993 32.1152 7.93988 32.1798 7.92445C32.3498 7.89009 32.5257 7.8986 32.6915 7.94923C32.8574 7.99987 33.008 8.09102 33.1299 8.21445C33.1785 8.26321 33.2221 8.31682 33.2598 8.37445C33.3015 8.42785 33.3322 8.48905 33.3499 8.55445C33.3788 8.6146 33.399 8.67858 33.4099 8.74445C33.4264 8.81316 33.4331 8.88386 33.4298 8.95445C33.4318 9.09158 33.4062 9.22771 33.3547 9.3548C33.3032 9.4819 33.2267 9.59738 33.1299 9.69445C32.9311 9.88619 32.666 9.99369 32.3898 9.99445Z" fill="#3E4449"/>
<path d="M44.1507 17.5645C43.9379 17.5643 43.728 17.5147 43.5377 17.4195C43.2617 17.2817 43.0381 17.0577 42.9007 16.7815L41.7687 14.0705L39.1047 12.9645C39.067 12.9487 39.0302 12.9307 38.9947 12.9105C38.7825 12.7904 38.6043 12.6184 38.4768 12.4106C38.3492 12.2028 38.2766 11.966 38.2657 11.7225C38.2632 11.4629 38.3294 11.2073 38.4576 10.9817C38.5858 10.756 38.7714 10.5682 38.9957 10.4375C39.0309 10.4176 39.0673 10.3999 39.1047 10.3845L41.7637 9.27549L42.8687 6.61949C42.9476 6.44682 43.0601 6.2916 43.1996 6.16293C43.3392 6.03425 43.503 5.93469 43.6815 5.87007C43.86 5.80545 44.0496 5.77707 44.2392 5.78659C44.4288 5.7961 44.6146 5.84332 44.7857 5.92549C45.0583 6.06261 45.2796 6.28385 45.4167 6.55649L46.5527 9.27549L49.2147 10.3845C49.2514 10.3999 49.2872 10.4176 49.3217 10.4375C49.5352 10.557 49.7146 10.729 49.8431 10.9373C49.9715 11.1455 50.0447 11.3831 50.0557 11.6275C50.0573 11.8863 49.9911 12.1409 49.8635 12.3661C49.7359 12.5912 49.5515 12.7789 49.3287 12.9105C49.2912 12.9309 49.2525 12.949 49.2127 12.9645L46.5537 14.0645L45.4537 16.7215C45.3381 16.9706 45.1544 17.1819 44.9239 17.3311C44.6933 17.4802 44.4253 17.5611 44.1507 17.5645ZM42.8727 12.3645C43.0025 12.4116 43.1211 12.485 43.221 12.5802C43.321 12.6754 43.4003 12.7902 43.4537 12.9175L44.1627 14.6175L44.8687 12.9175C44.9225 12.7881 45.003 12.6715 45.1048 12.5752C45.2066 12.4789 45.3275 12.405 45.4597 12.3585L47.1107 11.6725L45.4297 10.9725C45.3038 10.924 45.189 10.8505 45.0923 10.7565C44.9955 10.6625 44.9188 10.5499 44.8667 10.4255L44.1567 8.72549L43.4567 10.4255C43.4027 10.5553 43.3221 10.6722 43.2199 10.7687C43.1177 10.8652 42.9963 10.9391 42.8637 10.9855L41.2127 11.6735L42.8727 12.3645Z" fill="#3E4449"/>
<path d="M20.1617 11.8257C19.9458 11.8257 19.733 11.7757 19.5397 11.6797C19.2632 11.5423 19.0391 11.3182 18.9017 11.0417L17.7687 8.33072L15.1057 7.21972C15.0681 7.20469 15.0317 7.18698 14.9967 7.16672C14.7842 7.04662 14.6056 6.87452 14.4777 6.66656C14.3499 6.4586 14.2769 6.22158 14.2657 5.97772C14.2638 5.71832 14.3305 5.46303 14.4588 5.2376C14.5871 5.01216 14.7727 4.82456 14.9967 4.69372C15.0317 4.67314 15.0681 4.6551 15.1057 4.63972L17.7647 3.53072L18.8697 0.874724C18.9484 0.701957 19.0609 0.546656 19.2004 0.417931C19.34 0.289205 19.5039 0.189648 19.6824 0.125099C19.861 0.0605498 20.0507 0.0323088 20.2403 0.0420325C20.4299 0.0517562 20.6156 0.0992487 20.7867 0.181724C21.0588 0.319048 21.2799 0.539798 21.4177 0.811724L22.5537 3.53072L25.2157 4.64072C25.2531 4.65596 25.2896 4.67367 25.3247 4.69372C25.5374 4.81371 25.7161 4.98575 25.8442 5.19372C25.9722 5.40169 26.0453 5.63877 26.0567 5.88272C26.0579 6.14141 25.9915 6.39592 25.864 6.62099C25.7364 6.84606 25.5522 7.03385 25.3297 7.16572C25.2929 7.18679 25.2548 7.20549 25.2157 7.22172L22.5557 8.32673L21.4507 10.9827C21.3711 11.1612 21.2558 11.3214 21.1118 11.4535C20.9679 11.5856 20.7983 11.6868 20.6137 11.7507C20.4681 11.8002 20.3154 11.8255 20.1617 11.8257ZM18.8747 6.62472C19.0042 6.67181 19.1225 6.74515 19.2223 6.84014C19.3221 6.93513 19.4012 7.04972 19.4547 7.17672L20.1627 8.87672L20.8687 7.17672C20.9234 7.04625 21.0051 6.92887 21.1086 6.83233C21.212 6.7358 21.3347 6.66231 21.4687 6.61672L23.1157 5.93172L21.4347 5.23172C21.3089 5.18282 21.1942 5.1091 21.0974 5.01496C21.0007 4.92081 20.924 4.80817 20.8717 4.68372L20.1627 2.98372L19.4567 4.68372C19.4027 4.8135 19.322 4.93044 19.2199 5.02693C19.1177 5.12342 18.9963 5.19729 18.8637 5.24372L17.2137 5.93172L18.8747 6.62472Z" fill="#3E4449"/>
<path d="M6.0579 54.9731C5.84542 54.9737 5.63577 54.9244 5.4459 54.8291C5.16961 54.6913 4.94567 54.4673 4.8079 54.1911L3.6749 51.4801L1.01191 50.3691C0.974963 50.3538 0.938905 50.3364 0.903904 50.3171C0.691051 50.197 0.512202 50.0248 0.38416 49.8166C0.256117 49.6085 0.183086 49.3712 0.17191 49.1271C0.170133 48.8684 0.236333 48.6138 0.363926 48.3888C0.49152 48.1638 0.676015 47.9763 0.8989 47.8451C0.935122 47.8236 0.9729 47.8049 1.01191 47.7891L3.6709 46.6811L4.77091 44.0251C4.84946 43.8521 4.96178 43.6966 5.10129 43.5677C5.2408 43.4388 5.40468 43.3391 5.58329 43.2744C5.76189 43.2098 5.9516 43.1815 6.1413 43.1912C6.331 43.2009 6.51685 43.2485 6.6879 43.3311C6.96089 43.4672 7.18229 43.6883 7.31888 43.9611L8.4549 46.6801L11.1169 47.7901C11.1537 47.805 11.1894 47.8223 11.2239 47.8421C11.4373 47.9617 11.6167 48.1337 11.7451 48.3419C11.8736 48.5501 11.9468 48.7877 11.9579 49.0321C11.9595 49.2908 11.8933 49.5455 11.7657 49.7706C11.6381 49.9958 11.4537 50.1835 11.2309 50.3151C11.1941 50.3361 11.156 50.3548 11.1169 50.3711L8.45789 51.4711L7.35291 54.1271C7.23843 54.3756 7.05618 54.5868 6.82712 54.7364C6.59806 54.886 6.33146 54.9681 6.0579 54.9731ZM4.78089 49.7741C4.91038 49.8211 5.02874 49.8945 5.12854 49.9895C5.22835 50.0845 5.30747 50.1991 5.36091 50.3261L6.06888 52.0261L6.77491 50.3261C6.82961 50.1956 6.91138 50.0782 7.01481 49.9817C7.11823 49.8851 7.24095 49.8116 7.37488 49.7661L9.02289 49.0811L7.34089 48.3811C7.21518 48.3325 7.10061 48.259 7.00403 48.165C6.90746 48.071 6.83089 47.9584 6.7789 47.8341L6.06989 46.1341L5.3639 47.8341C5.30958 47.9639 5.22866 48.0809 5.12635 48.1775C5.02404 48.2741 4.90262 48.3482 4.7699 48.3951L3.11991 49.0821L4.78089 49.7741Z" fill="#3E4449"/>
<path d="M37.2576 49.0826C34.6747 49.0794 32.1985 48.0519 30.3722 46.2254C28.5458 44.3989 27.5185 41.9225 27.5156 39.3396C27.5185 36.7568 28.5459 34.2805 30.3722 32.4542C32.1986 30.6278 34.6748 29.6005 37.2576 29.5976C39.8406 29.6005 42.3169 30.6278 44.1434 32.4541C45.9699 34.2804 46.9975 36.7567 47.0006 39.3396C46.9977 41.9227 45.9703 44.3992 44.1438 46.2257C42.3172 48.0523 39.8407 49.0797 37.2576 49.0826ZM37.2576 31.6896C35.2293 31.6917 33.2846 32.4983 31.8503 33.9325C30.4159 35.3667 29.609 37.3112 29.6066 39.3396C29.609 41.368 30.4159 43.3127 31.8502 44.747C33.2845 46.1814 35.2292 46.9882 37.2576 46.9906C39.2862 46.9885 41.231 46.1817 42.6654 44.7473C44.0998 43.3129 44.9065 41.3681 44.9086 39.3396C44.9062 37.3112 44.0994 35.3667 42.665 33.9325C41.2307 32.4983 39.286 31.6917 37.2576 31.6896Z" fill="#3E4449"/>
<path d="M37.263 55.0428C35.2178 55.0481 33.1919 54.6477 31.3024 53.8649C29.413 53.082 27.6976 51.9322 26.2554 50.482C22.3556 46.5041 15.5639 36.2305 11.864 30.4597C9.44809 26.6869 8.38211 24.684 7.52514 23.074C7.09516 22.2671 6.72517 21.5691 6.26219 20.8001C6.15 20.6142 6.09858 20.3979 6.11507 20.1814C6.13156 19.9649 6.21514 19.7589 6.3542 19.5922C6.49291 19.4251 6.68025 19.3055 6.89013 19.25C7.1 19.1944 7.32196 19.2057 7.52514 19.2822L11.56 20.7981L1.87436 5.57269C1.74534 5.36986 1.69013 5.12879 1.71799 4.89003C1.74586 4.65127 1.85511 4.4294 2.02737 4.26174C2.19952 4.09416 2.42411 3.99095 2.66339 3.96946C2.90267 3.94798 3.14206 4.00952 3.34131 4.14374L25.3605 18.9782L24.0205 14.3524C23.9617 14.1507 23.9653 13.936 24.0306 13.7363C24.0959 13.5366 24.2199 13.3614 24.3865 13.2334C24.5527 13.1047 24.754 13.0293 24.9638 13.017C25.1737 13.0047 25.3823 13.0561 25.5625 13.1644C26.2325 13.5644 26.7694 13.8314 27.3904 14.1384C29.2021 15.0229 30.9553 16.0226 32.6392 17.1312C36.2061 19.4152 44.7668 25.0229 48.0876 28.3248C48.1543 28.3648 48.2161 28.4124 48.2716 28.4668C49.7215 29.9091 50.871 31.6246 51.6537 33.514C52.4364 35.4034 52.8367 37.4293 52.8314 39.4744C52.8368 41.5196 52.4365 43.5456 51.6536 45.435C50.8708 47.3245 49.7209 49.0399 48.2706 50.482C46.8285 51.9323 45.1131 53.0821 43.2237 53.865C41.3342 54.6479 39.3082 55.0482 37.263 55.0428ZM9.45009 22.2441C10.2771 23.796 11.329 25.7489 13.6259 29.3358C17.2808 35.0356 23.9755 45.1772 27.7414 49.014C28.9893 50.2676 30.4733 51.2614 32.1076 51.9378C33.742 52.6142 35.4942 52.9599 37.263 52.9549C39.0335 52.9597 40.7873 52.6132 42.4229 51.9356C44.0585 51.2579 45.5434 50.2625 46.7917 49.007C48.0471 47.7587 49.0424 46.2738 49.7201 44.6382C50.3977 43.0026 50.7442 41.2488 50.7395 39.4784C50.7492 35.9702 49.3811 32.5984 46.9297 30.0888C46.8604 30.0479 46.7966 29.9985 46.7397 29.9418C44.6197 27.7718 38.9269 23.642 31.5112 18.8972C29.969 17.8815 28.3661 16.9611 26.7114 16.1413L28.1684 21.1701C28.2284 21.3764 28.2234 21.5961 28.154 21.7994C28.0845 22.0027 27.9541 22.1796 27.7804 22.306C27.6068 22.4323 27.3985 22.5021 27.1839 22.5061C26.9692 22.51 26.7586 22.4478 26.5804 22.3281L6.32621 8.68257L15.0019 22.3201C15.1196 22.5052 15.1762 22.7227 15.1637 22.9418C15.1511 23.1609 15.07 23.3705 14.9319 23.541C14.7933 23.711 14.605 23.8333 14.3933 23.8907C14.1817 23.9481 13.9574 23.9377 13.7519 23.861L9.45009 22.2441Z" fill="#3E4449"/>
</g>
</g>
</g>
<defs>
<clipPath id="clip0_8_24117">
<rect width="52.66" height="55.02" fill="white" transform="translate(0.171875 0.0302124)"/>
</clipPath>
<clipPath id="clip1_8_24117">
<rect width="52.66" height="55.02" fill="white" transform="translate(0.171875 0.0302124)"/>
</clipPath>
<clipPath id="clip2_8_24117">
<rect width="52.66" height="55.0069" fill="white" transform="translate(0.171875 0.0367432)"/>
</clipPath>
</defs>
</svg>
