<svg width="51" height="52" viewBox="0 0 51 52" fill="none" xmlns="http://www.w3.org/2000/svg">
<g clip-path="url(#clip0_8_24038)">
<path d="M14.4004 44.2055C21.8498 44.2055 27.8887 38.1666 27.8887 30.7172C27.8887 23.2678 21.8498 17.2289 14.4004 17.2289C6.95103 17.2289 0.912109 23.2678 0.912109 30.7172C0.912109 38.1666 6.95103 44.2055 14.4004 44.2055Z" fill="#EFE025"/>
<path d="M44.809 27.5193C44.2533 27.5191 43.7101 27.3541 43.2481 27.0452C42.7862 26.7364 42.4261 26.2974 42.2136 25.7839C42.0011 25.2705 41.9456 24.7055 42.0541 24.1605C42.1627 23.6155 42.4304 23.1149 42.8234 22.722C43.2164 22.3291 43.7171 22.0616 44.2622 21.9532C44.8072 21.8449 45.3722 21.9006 45.8856 22.1133C46.399 22.326 46.8378 22.6862 47.1465 23.1482C47.4552 23.6103 47.62 24.1536 47.62 24.7093C47.6189 25.4544 47.3224 26.1687 46.7954 26.6954C46.2685 27.2222 45.5541 27.5185 44.809 27.5193ZM44.809 23.8993C44.6488 23.8995 44.4923 23.9472 44.3593 24.0363C44.2262 24.1254 44.1225 24.252 44.0614 24.4C44.0002 24.548 43.9843 24.7109 44.0157 24.8679C44.0471 25.025 44.1243 25.1692 44.2376 25.2824C44.3509 25.3956 44.4952 25.4726 44.6523 25.5038C44.8094 25.535 44.9723 25.5189 45.1202 25.4575C45.2682 25.3962 45.3946 25.2924 45.4836 25.1592C45.5725 25.026 45.62 24.8695 45.62 24.7093C45.6203 24.6027 45.5995 24.497 45.5588 24.3985C45.5182 24.2999 45.4585 24.2103 45.3831 24.1349C45.3078 24.0594 45.2183 23.9996 45.1197 23.9589C45.0212 23.9181 44.9156 23.8972 44.809 23.8973V23.8993Z" fill="#3E4449"/>
<path d="M18.4252 51.3397C17.8695 51.3397 17.3262 51.1749 16.8641 50.8661C16.402 50.5573 16.0418 50.1185 15.8291 49.605C15.6165 49.0915 15.5608 48.5265 15.6692 47.9815C15.7777 47.4364 16.0453 46.9357 16.4383 46.5427C16.8313 46.1497 17.3319 45.8821 17.877 45.7737C18.4221 45.6652 18.9871 45.7209 19.5006 45.9336C20.014 46.1462 20.4529 46.5064 20.7617 46.9685C21.0704 47.4306 21.2352 47.9739 21.2352 48.5297C21.2344 49.2747 20.9381 49.989 20.4113 50.5158C19.8845 51.0426 19.1702 51.3389 18.4252 51.3397ZM18.4252 47.7197C18.265 47.7197 18.1084 47.7672 17.9752 47.8562C17.842 47.9452 17.7382 48.0717 17.6769 48.2197C17.6156 48.3677 17.5995 48.5306 17.6308 48.6877C17.6621 48.8448 17.7392 48.9891 17.8525 49.1024C17.9658 49.2157 18.1101 49.2928 18.2672 49.3241C18.4243 49.3554 18.5872 49.3393 18.7352 49.278C18.8832 49.2167 19.0097 49.1129 19.0987 48.9797C19.1877 48.8465 19.2352 48.6899 19.2352 48.5297C19.2344 48.3153 19.1488 48.1099 18.997 47.9585C18.8452 47.8071 18.6396 47.7219 18.4252 47.7217V47.7197Z" fill="#3E4449"/>
<path d="M24.9702 10.3986C24.4144 10.3986 23.8711 10.2338 23.409 9.92506C22.9469 9.61629 22.5867 9.17743 22.3741 8.66397C22.1614 8.15051 22.1057 7.58551 22.2142 7.04042C22.3226 6.49534 22.5902 5.99464 22.9832 5.60166C23.3762 5.20867 23.8769 4.94104 24.422 4.83262C24.967 4.7242 25.532 4.77984 26.0455 4.99253C26.559 5.20521 26.9978 5.56537 27.3066 6.02747C27.6154 6.48958 27.7802 7.03286 27.7802 7.58863C27.7794 8.33364 27.4831 9.04791 26.9563 9.57472C26.4294 10.1015 25.7152 10.3978 24.9702 10.3986ZM24.9702 6.77863C24.81 6.77863 24.6533 6.82613 24.5201 6.91514C24.3869 7.00414 24.2831 7.13065 24.2218 7.27865C24.1605 7.42666 24.1445 7.58953 24.1757 7.74665C24.207 7.90377 24.2841 8.0481 24.3974 8.16138C24.5107 8.27466 24.655 8.35181 24.8121 8.38306C24.9693 8.41432 25.1321 8.39828 25.2801 8.33697C25.4281 8.27566 25.5546 8.17184 25.6436 8.03864C25.7327 7.90544 25.7802 7.74883 25.7802 7.58863C25.7799 7.37388 25.6945 7.16801 25.5426 7.01616C25.3908 6.86432 25.1849 6.77889 24.9702 6.77863Z" fill="#3E4449"/>
<path d="M27.4571 43.8713C27.3083 43.873 27.161 43.8416 27.026 43.7792C26.8909 43.7168 26.7715 43.625 26.6763 43.5106C26.5812 43.3962 26.5129 43.262 26.4762 43.1179C26.4395 42.9737 26.4355 42.8231 26.4643 42.6772C26.4932 42.5312 26.5543 42.3936 26.6431 42.2742C26.732 42.1549 26.8463 42.0569 26.9778 41.9873C27.1094 41.9178 27.2547 41.8785 27.4034 41.8722C27.552 41.866 27.7002 41.893 27.8371 41.9513C27.9564 41.9997 28.0651 42.0711 28.1571 42.1613C28.252 42.2535 28.3275 42.3639 28.379 42.4859C28.4306 42.6078 28.4571 42.7389 28.4571 42.8713C28.4571 43.0037 28.4306 43.1347 28.379 43.2567C28.3275 43.3786 28.252 43.489 28.1571 43.5813C27.9686 43.7626 27.7186 43.8662 27.4571 43.8713Z" fill="#3E4449"/>
<path d="M8.94497 27.2796C8.71636 27.2774 8.4956 27.196 8.32015 27.0495C8.1447 26.9029 8.02538 26.7001 7.98246 26.4756C7.93953 26.251 7.97564 26.0186 8.08465 25.8176C8.19366 25.6167 8.36886 25.4596 8.5805 25.3732C8.79214 25.2867 9.02717 25.2762 9.2457 25.3434C9.46422 25.4105 9.65277 25.5513 9.77932 25.7416C9.90587 25.932 9.96263 26.1604 9.93997 26.3878C9.9173 26.6153 9.8166 26.828 9.65497 26.9896C9.46322 27.1722 9.20969 27.2758 8.94497 27.2796Z" fill="#3E4449"/>
<path d="M33.2969 4.34739C33.1625 4.35083 33.0291 4.32347 32.9069 4.26739C32.7876 4.21892 32.6789 4.14758 32.5869 4.05739C32.4913 3.964 32.4163 3.85157 32.3669 3.72739C32.2735 3.48266 32.2735 3.21212 32.3669 2.96739C32.419 2.84757 32.4937 2.73892 32.5869 2.64739C32.6757 2.55101 32.7851 2.47583 32.9069 2.42739C33.1538 2.32743 33.43 2.32743 33.6769 2.42739C33.9174 2.53453 34.1098 2.72688 34.2169 2.96739C34.2696 3.08714 34.2969 3.21655 34.2969 3.34739C34.2969 3.47823 34.2696 3.60764 34.2169 3.72739C34.1712 3.85348 34.0957 3.96668 33.9969 4.05739C33.9049 4.14758 33.7962 4.21892 33.6769 4.26739C33.5582 4.32344 33.4281 4.35085 33.2969 4.34739Z" fill="#3E4449"/>
<path d="M32.2871 15.8886C32.0231 15.8847 31.771 15.7781 31.5843 15.5914C31.3976 15.4047 31.291 15.1526 31.2871 14.8886C31.2895 14.7547 31.3167 14.6225 31.3671 14.4986C31.4156 14.3792 31.4869 14.2705 31.5771 14.1786C31.674 14.0873 31.7856 14.0129 31.9071 13.9586C32.1506 13.8585 32.4236 13.8585 32.6671 13.9586C32.7886 14.0129 32.9002 14.0873 32.9971 14.1786C33.0873 14.2705 33.1586 14.3792 33.2071 14.4986C33.2576 14.6225 33.2847 14.7547 33.2871 14.8886C33.2832 15.1526 33.1766 15.4047 32.9899 15.5914C32.8032 15.7781 32.5511 15.8847 32.2871 15.8886Z" fill="#3E4449"/>
<path d="M49.0996 33.9203C48.9673 33.9197 48.8364 33.8929 48.7145 33.8414C48.5927 33.7899 48.4822 33.7148 48.3896 33.6203C48.3419 33.577 48.3014 33.5263 48.2696 33.4703C48.23 33.4193 48.1995 33.3618 48.1796 33.3003C48.1492 33.2407 48.1289 33.1765 48.1196 33.1103C48.108 33.0476 48.1013 32.984 48.0996 32.9203C48.1021 32.7865 48.1292 32.6543 48.1796 32.5303C48.2281 32.411 48.2994 32.3022 48.3896 32.2103C48.5306 32.0722 48.7086 31.9779 48.902 31.9389C49.0955 31.8998 49.2961 31.9177 49.4796 31.9903C49.6011 32.0446 49.7127 32.119 49.8096 32.2103C49.8998 32.3022 49.9711 32.411 50.0196 32.5303C50.07 32.6543 50.0972 32.7865 50.0996 32.9203C50.0979 32.984 50.0912 33.0476 50.0796 33.1103C50.0703 33.1765 50.0501 33.2407 50.0196 33.3003C49.9997 33.3618 49.9693 33.4193 49.9296 33.4703C49.8946 33.5241 49.8544 33.5743 49.8096 33.6203C49.6202 33.8077 49.366 33.9151 49.0996 33.9203Z" fill="#3E4449"/>
<path d="M9.71609 17.1679C9.46936 17.1677 9.22599 17.1106 9.00502 17.0008C8.6852 16.8413 8.4261 16.5818 8.26695 16.2618L6.44377 11.8953L2.11835 10.0952C2.07968 10.0797 2.04224 10.0613 2.00633 10.0402C1.75894 9.8994 1.55123 9.69828 1.40258 9.45554C1.25393 9.2128 1.16918 8.93637 1.15625 8.65203C1.15581 8.35168 1.23429 8.05649 1.38383 7.79601C1.53338 7.53554 1.74873 7.31893 2.00833 7.16788C2.04346 7.1469 2.08026 7.12884 2.11835 7.11388L6.43777 5.3137L8.23794 1.00028C8.33116 0.794954 8.4654 0.610866 8.6324 0.459343C8.7994 0.30782 8.99564 0.192065 9.20904 0.119197C9.41211 0.0509165 9.62669 0.0235385 9.8404 0.0386441C10.0541 0.0537497 10.2627 0.111039 10.4542 0.207205C10.77 0.365823 11.026 0.622257 11.1842 0.938276L13.0114 5.3137L17.3348 7.11388C17.3715 7.12898 17.4073 7.14635 17.4418 7.16588C17.6911 7.30589 17.9006 7.50708 18.0505 7.75047C18.2005 7.99386 18.286 8.27144 18.2989 8.55702C18.2986 8.85684 18.22 9.15139 18.0709 9.41151C17.9218 9.67164 17.7074 9.88833 17.4488 10.0402C17.4125 10.0614 17.3747 10.0801 17.3358 10.0962L13.0154 11.8903L11.2152 16.2058C11.0809 16.4907 10.8691 16.7321 10.6039 16.9023C10.3388 17.0724 10.0311 17.1645 9.71609 17.1679ZM7.53587 10.1832C7.66785 10.2294 7.78874 10.3027 7.89084 10.3983C7.99295 10.4938 8.07403 10.6096 8.12893 10.7382L9.72909 14.5746L11.3252 10.7352C11.3802 10.603 11.463 10.4841 11.5679 10.3866C11.6728 10.2892 11.7974 10.2153 11.9333 10.1702L15.7097 8.60202L11.8923 7.01087C11.7648 6.96284 11.6485 6.88928 11.5505 6.79469C11.4525 6.7001 11.3748 6.58649 11.3222 6.46081L9.72209 2.62444L8.12493 6.46181C8.0696 6.59355 7.98684 6.71199 7.88217 6.80924C7.7775 6.9065 7.65331 6.98035 7.51787 7.02587L3.7405 8.60102L7.53587 10.1832Z" fill="#3E4449"/>
<path d="M40.8648 50.4471C40.6144 50.4469 40.3675 50.3884 40.1437 50.2761C39.8249 50.1178 39.5662 49.8601 39.4066 49.542L37.5824 45.1716L33.257 43.3714C33.2187 43.3559 33.1816 43.3375 33.146 43.3164C32.8986 43.176 32.6909 42.9753 32.542 42.7329C32.3932 42.4905 32.3082 42.2144 32.2949 41.9302C32.2943 41.6296 32.3727 41.3341 32.5223 41.0733C32.6718 40.8124 32.8873 40.5955 33.147 40.4441C33.1821 40.4231 33.2189 40.4051 33.257 40.3901L37.5754 38.5899L39.3756 34.2755C39.4688 34.0705 39.603 33.8866 39.7698 33.7353C39.9366 33.5839 40.1326 33.4683 40.3457 33.3954C40.5487 33.327 40.7633 33.2994 40.977 33.3144C41.1907 33.3293 41.3993 33.3864 41.5908 33.4824C41.907 33.6414 42.1634 33.8981 42.3219 34.2145L44.1491 38.5899L48.4715 40.3901C48.5084 40.4048 48.5442 40.4222 48.5785 40.4421C48.8264 40.5826 49.0346 40.7838 49.1834 41.0268C49.3323 41.2697 49.417 41.5466 49.4296 41.8312C49.4297 42.1315 49.3511 42.4266 49.2016 42.687C49.0521 42.9474 48.8369 43.1641 48.5775 43.3154C48.5412 43.3357 48.5038 43.3541 48.4655 43.3704L44.1491 45.1646L42.3489 49.48C42.2562 49.6845 42.1228 49.868 41.9569 50.0193C41.791 50.1706 41.596 50.2866 41.3838 50.3601C41.2166 50.4169 41.0413 50.4463 40.8648 50.4471ZM38.6745 43.4594C38.8066 43.5057 38.9276 43.5791 39.0297 43.6749C39.1319 43.7706 39.2129 43.8866 39.2676 44.0154L40.8678 47.8508L42.4679 44.0115C42.5229 43.8792 42.6057 43.7603 42.7106 43.6629C42.8155 43.5654 42.9401 43.4916 43.076 43.4464L46.8513 41.8782L43.029 40.2871C42.9018 40.2391 42.7857 40.1656 42.6879 40.0712C42.59 39.9768 42.5125 39.8634 42.4599 39.738L40.8598 35.9007L39.2596 39.738C39.2054 39.8693 39.1238 39.9874 39.0203 40.0847C38.9169 40.1819 38.7939 40.2561 38.6595 40.3021L34.8792 41.8772L38.6745 43.4594Z" fill="#3E4449"/>
<path d="M25.2956 34.3905C25.003 34.3896 24.7164 34.3072 24.4679 34.1527C24.2193 33.9981 24.0187 33.7775 23.8885 33.5154L22.2463 29.5801L18.3539 27.9579C18.3158 27.942 18.2787 27.9236 18.2429 27.9029C18.0045 27.7677 17.8043 27.5741 17.6611 27.3405C17.5178 27.1068 17.4362 26.8406 17.4238 26.5668C17.4229 26.2772 17.4981 25.9925 17.6418 25.7411C17.7856 25.4898 17.9929 25.2806 18.2429 25.1346C18.2789 25.1146 18.316 25.0966 18.3539 25.0806L22.2393 23.4605L23.8545 19.5801C23.9443 19.3819 24.0737 19.2041 24.2347 19.0576C24.3956 18.911 24.5848 18.7989 24.7906 18.728C24.9862 18.6617 25.193 18.635 25.3991 18.6494C25.6051 18.6639 25.8062 18.7191 25.9907 18.812C26.2964 18.9654 26.5442 19.2139 26.6967 19.5201L28.3429 23.4605L32.2273 25.0816C32.2642 25.0969 32.3003 25.1143 32.3353 25.1336C32.5751 25.2685 32.7767 25.4622 32.921 25.6965C33.0653 25.9308 33.1477 26.1979 33.1604 26.4728C33.1606 26.762 33.0852 27.0464 32.9415 27.2974C32.7978 27.5485 32.5909 27.7576 32.3413 27.9039C32.3047 27.9244 32.267 27.9428 32.2283 27.9589L28.3429 29.5731L26.7267 33.4554C26.6375 33.6533 26.5089 33.8309 26.3486 33.9772C26.1883 34.1236 25.9998 34.2356 25.7947 34.3065C25.634 34.3614 25.4654 34.3898 25.2956 34.3905ZM23.3404 27.8729C23.472 27.9191 23.5925 27.9924 23.6942 28.088C23.7958 28.1836 23.8763 28.2994 23.9305 28.428L25.2976 31.7053L26.6607 28.425C26.7151 28.2939 26.7967 28.1759 26.9002 28.0789C27.0036 27.9818 27.1266 27.9078 27.2608 27.8619L30.4841 26.5198L27.2268 25.1606C27.1002 25.1124 26.9848 25.0389 26.8875 24.9447C26.7902 24.8505 26.7131 24.7375 26.6607 24.6126L25.2926 21.3323L23.9265 24.6126C23.8721 24.7436 23.7905 24.8616 23.687 24.9587C23.5836 25.0558 23.4606 25.1297 23.3264 25.1756L20.1021 26.5198L23.3404 27.8729Z" fill="#3E4449"/>
<path d="M44.1446 15.2877C43.9314 15.2876 43.7212 15.2379 43.5305 15.1427C43.2535 15.0055 43.0291 14.7814 42.8915 14.5046L41.7463 11.7634L39.0531 10.6403C39.0143 10.6244 38.9765 10.606 38.9401 10.5852C38.7278 10.4642 38.5497 10.2914 38.4222 10.0829C38.2948 9.87451 38.2221 9.63721 38.211 9.39313C38.2086 9.13296 38.2752 8.87681 38.404 8.65073C38.5328 8.42465 38.7191 8.2367 38.9441 8.106C38.9792 8.08594 39.0156 8.06823 39.0531 8.053L41.7413 6.93189L42.8585 4.24663C42.939 4.06706 43.0555 3.90595 43.2009 3.77331C43.3463 3.64067 43.5174 3.53932 43.7035 3.47555C43.8791 3.41614 44.0647 3.39218 44.2496 3.40506C44.4345 3.41793 44.615 3.46739 44.7806 3.55056C45.0544 3.68781 45.2765 3.90987 45.4137 4.18362L46.5628 6.93089L49.2531 8.053C49.29 8.06831 49.3261 8.08567 49.3611 8.105C49.575 8.22545 49.7547 8.39836 49.8833 8.60744C50.0119 8.81653 50.0851 9.0549 50.0962 9.30012C50.0978 9.55979 50.0311 9.81532 49.9028 10.0411C49.7745 10.2668 49.5891 10.4548 49.3651 10.5862C49.3291 10.6072 49.2916 10.6255 49.2531 10.6413L46.5658 11.7584L45.4477 14.4446C45.3318 14.6935 45.1481 14.9047 44.9175 15.0538C44.687 15.2029 44.4191 15.284 44.1446 15.2877ZM42.8505 10.0562C42.9801 10.1032 43.0987 10.1765 43.1987 10.2715C43.2987 10.3665 43.378 10.4811 43.4315 10.6082L44.1556 12.3454L44.8776 10.6062C44.9315 10.4768 45.0119 10.3602 45.1138 10.2639C45.2156 10.1676 45.3365 10.0938 45.4687 10.0472L47.1569 9.34713L45.4387 8.63105C45.3127 8.58245 45.1979 8.50883 45.1011 8.41464C45.0043 8.32045 44.9276 8.20763 44.8756 8.083L44.1506 6.34583L43.4275 8.082C43.3734 8.21189 43.2926 8.3289 43.1902 8.42541C43.0879 8.52192 42.9663 8.59574 42.8335 8.64206L41.1453 9.34212L42.8505 10.0562Z" fill="#3E4449"/>
<path d="M7.48051 43.8694C7.26747 43.8693 7.05734 43.82 6.86645 43.7254C6.58985 43.5877 6.36555 43.3637 6.22739 43.0874L5.08227 40.3451L2.38901 39.221C2.35019 39.2047 2.31244 39.186 2.276 39.165C2.06405 39.0441 1.88609 38.8716 1.75863 38.6635C1.63117 38.4555 1.55835 38.2186 1.54693 37.9749C1.54471 37.7148 1.61113 37.4588 1.73949 37.2326C1.86785 37.0065 2.0536 36.8182 2.278 36.6867C2.3139 36.6665 2.35097 36.6485 2.38901 36.6327L5.07727 35.5116L6.19438 32.8264C6.3024 32.581 6.47802 32.3715 6.70073 32.2222C6.92343 32.073 7.18401 31.9903 7.452 31.9836C7.72 31.977 7.98434 32.0468 8.21413 32.1849C8.44392 32.323 8.62965 32.5236 8.74963 32.7634L9.89774 35.5116L12.589 36.6337C12.6261 36.6486 12.6622 36.666 12.697 36.6857C12.9108 36.806 13.0905 36.9788 13.2191 37.1877C13.3477 37.3966 13.421 37.6348 13.4321 37.8799C13.4338 38.1397 13.3672 38.3954 13.2389 38.6213C13.1106 38.8472 12.9251 39.0354 12.701 39.167C12.6647 39.1873 12.6273 39.2057 12.589 39.222L9.90074 40.3381L8.78363 43.0244C8.66803 43.2736 8.48439 43.4852 8.25385 43.6347C8.02332 43.7842 7.75525 43.8656 7.48051 43.8694ZM6.18638 38.6379C6.31616 38.685 6.43479 38.7585 6.53479 38.8536C6.63479 38.9488 6.714 39.0637 6.76744 39.191L7.49151 40.9271L8.21358 39.189C8.26753 39.0595 8.34813 38.9428 8.45013 38.8465C8.55214 38.7501 8.67326 38.6764 8.80564 38.6299L10.4928 37.9299L8.77563 37.2138C8.64927 37.1654 8.53404 37.0919 8.43692 36.9977C8.33979 36.9035 8.26279 36.7906 8.21058 36.6657L7.48651 34.9286L6.76544 36.6657C6.71138 36.7956 6.63053 36.9126 6.52816 37.0091C6.4258 37.1056 6.30422 37.1795 6.17138 37.2258L4.48322 37.9259L6.18638 38.6379Z" fill="#3E4449"/>
</g>
<defs>
<clipPath id="clip0_8_24038">
<rect width="49.1868" height="51.31" fill="white" transform="translate(0.912109 0.0302124)"/>
</clipPath>
</defs>
</svg>
