<svg width="50" height="53" viewBox="0 0 50 53" fill="none" xmlns="http://www.w3.org/2000/svg">
<g clip-path="url(#clip0_8_24401)">
<g clip-path="url(#clip1_8_24401)">
<path d="M14.1504 45.0052C21.5998 45.0052 27.6387 38.9663 27.6387 31.5169C27.6387 24.0675 21.5998 18.0286 14.1504 18.0286C6.70103 18.0286 0.662109 24.0675 0.662109 31.5169C0.662109 38.9663 6.70103 45.0052 14.1504 45.0052Z" fill="#EFE025"/>
<path d="M44.559 28.319C44.0033 28.3188 43.4601 28.1538 42.9981 27.8449C42.5362 27.536 42.1761 27.0971 41.9636 26.5836C41.7511 26.0701 41.6956 25.5052 41.8041 24.9602C41.9127 24.4151 42.1804 23.9145 42.5734 23.5217C42.9664 23.1288 43.4671 22.8612 44.0122 22.7529C44.5572 22.6446 45.1222 22.7003 45.6356 22.913C46.149 23.1257 46.5878 23.4858 46.8965 23.9479C47.2052 24.41 47.37 24.9533 47.37 25.509C47.3689 26.2541 47.0724 26.9684 46.5454 27.4951C46.0185 28.0219 45.3041 28.3182 44.559 28.319ZM44.559 24.699C44.3988 24.6992 44.2423 24.7468 44.1093 24.836C43.9762 24.9251 43.8725 25.0517 43.8114 25.1997C43.7502 25.3477 43.7343 25.5106 43.7657 25.6676C43.7971 25.8247 43.8743 25.9689 43.9876 26.0821C44.1009 26.1953 44.2452 26.2723 44.4023 26.3035C44.5594 26.3347 44.7223 26.3186 44.8702 26.2572C45.0182 26.1959 45.1446 26.0921 45.2336 25.9589C45.3225 25.8257 45.37 25.6691 45.37 25.509C45.3703 25.4024 45.3495 25.2967 45.3088 25.1982C45.2682 25.0996 45.2085 25.01 45.1331 24.9346C45.0578 24.8591 44.9683 24.7993 44.8697 24.7585C44.7712 24.7178 44.6656 24.6968 44.559 24.697V24.699Z" fill="#3E4449"/>
<path d="M18.1752 52.1393C17.6195 52.1393 17.0762 51.9745 16.6141 51.6657C16.152 51.3569 15.7918 50.9181 15.5791 50.4046C15.3665 49.8912 15.3108 49.3262 15.4192 48.7811C15.5277 48.236 15.7953 47.7353 16.1883 47.3423C16.5813 46.9493 17.0819 46.6817 17.627 46.5733C18.1721 46.4649 18.7371 46.5205 19.2506 46.7332C19.764 46.9459 20.2029 47.306 20.5117 47.7681C20.8204 48.2302 20.9852 48.7735 20.9852 49.3293C20.9844 50.0743 20.6881 50.7886 20.1613 51.3154C19.6345 51.8422 18.9202 52.1385 18.1752 52.1393ZM18.1752 48.5193C18.015 48.5193 17.8584 48.5668 17.7252 48.6558C17.592 48.7448 17.4882 48.8713 17.4269 49.0193C17.3656 49.1673 17.3495 49.3302 17.3808 49.4873C17.4121 49.6444 17.4892 49.7888 17.6025 49.902C17.7158 50.0153 17.8601 50.0925 18.0172 50.1237C18.1743 50.155 18.3372 50.1389 18.4852 50.0776C18.6332 50.0163 18.7597 49.9125 18.8487 49.7793C18.9377 49.6461 18.9852 49.4895 18.9852 49.3293C18.9844 49.1149 18.8988 48.9095 18.747 48.7581C18.5952 48.6067 18.3896 48.5216 18.1752 48.5213V48.5193Z" fill="#3E4449"/>
<path d="M24.7202 11.1984C24.1644 11.1984 23.6211 11.0336 23.159 10.7248C22.6969 10.416 22.3367 9.97717 22.1241 9.46371C21.9114 8.95025 21.8557 8.38525 21.9642 7.84017C22.0726 7.29508 22.3402 6.79439 22.7332 6.4014C23.1262 6.00842 23.6269 5.74079 24.172 5.63236C24.717 5.52394 25.282 5.57959 25.7955 5.79227C26.309 6.00495 26.7478 6.36512 27.0566 6.82722C27.3654 7.28932 27.5302 7.83261 27.5302 8.38837C27.5294 9.13339 27.2331 9.84766 26.7063 10.3745C26.1794 10.9013 25.4652 11.1976 24.7202 11.1984ZM24.7202 7.57837C24.56 7.57837 24.4033 7.62588 24.2701 7.71488C24.1369 7.80388 24.0331 7.93039 23.9718 8.0784C23.9105 8.22641 23.8945 8.38927 23.9257 8.54639C23.957 8.70352 24.0341 8.84785 24.1474 8.96113C24.2607 9.07441 24.405 9.15155 24.5621 9.18281C24.7193 9.21406 24.8821 9.19802 25.0301 9.13671C25.1781 9.07541 25.3046 8.97159 25.3936 8.83838C25.4827 8.70518 25.5302 8.54857 25.5302 8.38837C25.5299 8.17363 25.4445 7.96775 25.2926 7.81591C25.1408 7.66406 24.9349 7.57864 24.7202 7.57837Z" fill="#3E4449"/>
<path d="M27.2071 44.6708C27.0583 44.6726 26.911 44.6411 26.776 44.5787C26.6409 44.5163 26.5215 44.4246 26.4263 44.3102C26.3312 44.1958 26.2629 44.0616 26.2262 43.9174C26.1895 43.7732 26.1855 43.6227 26.2143 43.4767C26.2432 43.3308 26.3043 43.1931 26.3931 43.0738C26.482 42.9545 26.5963 42.8564 26.7278 42.7869C26.8594 42.7173 27.0047 42.678 27.1534 42.6718C27.302 42.6655 27.4502 42.6925 27.5871 42.7508C27.7064 42.7993 27.8151 42.8706 27.9071 42.9608C28.002 43.0531 28.0775 43.1635 28.129 43.2854C28.1806 43.4074 28.2071 43.5384 28.2071 43.6708C28.2071 43.8032 28.1806 43.9343 28.129 44.0562C28.0775 44.1782 28.002 44.2886 27.9071 44.3808C27.7186 44.5622 27.4686 44.6657 27.2071 44.6708Z" fill="#3E4449"/>
<path d="M8.69497 28.0793C8.46636 28.077 8.2456 27.9957 8.07015 27.8491C7.8947 27.7026 7.77538 27.4998 7.73246 27.2753C7.68953 27.0507 7.72564 26.8182 7.83465 26.6173C7.94366 26.4163 8.11886 26.2593 8.3305 26.1729C8.54214 26.0864 8.77717 26.0759 8.9957 26.1431C9.21422 26.2102 9.40277 26.3509 9.52932 26.5413C9.65587 26.7317 9.71263 26.96 9.68997 27.1875C9.6673 27.415 9.5666 27.6276 9.40497 27.7893C9.21322 27.9719 8.95969 28.0754 8.69497 28.0793Z" fill="#3E4449"/>
<path d="M33.0469 5.14707C32.9125 5.15051 32.7791 5.12315 32.6569 5.06707C32.5376 5.0186 32.4289 4.94726 32.3369 4.85707C32.2413 4.76368 32.1663 4.65126 32.1169 4.52707C32.0235 4.28234 32.0235 4.0118 32.1169 3.76707C32.169 3.64725 32.2437 3.5386 32.3369 3.44707C32.4257 3.3507 32.5351 3.27551 32.6569 3.22707C32.9038 3.12711 33.18 3.12711 33.4269 3.22707C33.6674 3.33421 33.8598 3.52656 33.9669 3.76707C34.0196 3.88682 34.0469 4.01623 34.0469 4.14707C34.0469 4.27792 34.0196 4.40733 33.9669 4.52707C33.9212 4.65316 33.8457 4.76636 33.7469 4.85707C33.6549 4.94726 33.5462 5.0186 33.4269 5.06707C33.3082 5.12313 33.1781 5.15053 33.0469 5.14707Z" fill="#3E4449"/>
<path d="M32.0371 16.6881C31.7731 16.6842 31.521 16.5776 31.3343 16.3909C31.1476 16.2042 31.041 15.9521 31.0371 15.6881C31.0395 15.5543 31.0667 15.4221 31.1171 15.2981C31.1656 15.1788 31.2369 15.0701 31.3271 14.9781C31.424 14.8868 31.5356 14.8125 31.6571 14.7581C31.9006 14.6581 32.1736 14.6581 32.4171 14.7581C32.5386 14.8125 32.6502 14.8868 32.7471 14.9781C32.8373 15.0701 32.9086 15.1788 32.9571 15.2981C33.0076 15.4221 33.0347 15.5543 33.0371 15.6881C33.0332 15.9521 32.9266 16.2042 32.7399 16.3909C32.5532 16.5776 32.3011 16.6842 32.0371 16.6881Z" fill="#3E4449"/>
<path d="M48.8496 34.7199C48.7173 34.7193 48.5864 34.6925 48.4645 34.641C48.3427 34.5895 48.2322 34.5143 48.1396 34.4198C48.0919 34.3765 48.0514 34.3259 48.0196 34.2699C47.98 34.2188 47.9495 34.1613 47.9296 34.0998C47.8992 34.0403 47.8789 33.9761 47.8696 33.9098C47.858 33.8471 47.8513 33.7836 47.8496 33.7199C47.8521 33.586 47.8792 33.4538 47.9296 33.3298C47.9781 33.2105 48.0494 33.1018 48.1396 33.0098C48.2806 32.8718 48.4586 32.7775 48.652 32.7384C48.8455 32.6994 49.0461 32.7173 49.2296 32.7899C49.3511 32.8442 49.4627 32.9186 49.5596 33.0098C49.6498 33.1018 49.7211 33.2105 49.7696 33.3298C49.82 33.4538 49.8472 33.586 49.8496 33.7199C49.8479 33.7836 49.8412 33.8471 49.8296 33.9098C49.8203 33.9761 49.8001 34.0403 49.7696 34.0998C49.7497 34.1613 49.7193 34.2188 49.6796 34.2699C49.6446 34.3236 49.6044 34.3739 49.5596 34.4198C49.3702 34.6073 49.116 34.7147 48.8496 34.7199Z" fill="#3E4449"/>
<path d="M9.46609 17.9675C9.21936 17.9674 8.97599 17.9102 8.75502 17.8005C8.4352 17.6409 8.1761 17.3814 8.01695 17.0614L6.19377 12.695L1.86835 10.8948C1.82968 10.8793 1.79224 10.8609 1.75633 10.8398C1.50894 10.699 1.30123 10.4979 1.15258 10.2552C1.00393 10.0124 0.919183 9.73599 0.906252 9.45165C0.905809 9.1513 0.984289 8.85611 1.13383 8.59564C1.28338 8.33516 1.49873 8.11855 1.75833 7.9675C1.79346 7.94652 1.83026 7.92846 1.86835 7.9135L6.18777 6.11332L7.98794 1.7999C8.08116 1.59458 8.2154 1.41049 8.3824 1.25896C8.5494 1.10744 8.74564 0.991686 8.95904 0.918818C9.16211 0.850538 9.37669 0.82316 9.5904 0.838266C9.80411 0.853371 10.0127 0.910661 10.2042 1.00683C10.52 1.16544 10.776 1.42188 10.9342 1.7379L12.7614 6.11332L17.0848 7.9135C17.1215 7.9286 17.1573 7.94597 17.1918 7.9655C17.4411 8.10552 17.6506 8.3067 17.8005 8.55009C17.9505 8.79348 18.036 9.07106 18.0489 9.35664C18.0486 9.65646 17.97 9.95101 17.8209 10.2111C17.6718 10.4713 17.4574 10.688 17.1988 10.8398C17.1625 10.861 17.1247 10.8797 17.0858 10.8958L12.7654 12.69L10.9652 17.0054C10.8309 17.2904 10.6191 17.5318 10.3539 17.7019C10.0888 17.8721 9.78111 17.9641 9.46609 17.9675ZM7.28587 10.9828C7.41785 11.0291 7.53874 11.1023 7.64084 11.1979C7.74295 11.2934 7.82403 11.4092 7.87893 11.5379L9.47909 15.3742L11.0752 11.5349C11.1302 11.4026 11.213 11.2837 11.3179 11.1863C11.4228 11.0888 11.5474 11.015 11.6833 10.9698L15.4597 9.40164L11.6423 7.81049C11.5148 7.76246 11.3985 7.6889 11.3005 7.59431C11.2025 7.49972 11.1248 7.38611 11.0722 7.26044L9.47209 3.42406L7.87493 7.26144C7.8196 7.39317 7.73684 7.51161 7.63217 7.60887C7.5275 7.70612 7.40331 7.77997 7.26787 7.82549L3.4905 9.40064L7.28587 10.9828Z" fill="#3E4449"/>
<path d="M40.6148 51.2468C40.3644 51.2466 40.1175 51.1881 39.8937 51.0757C39.5749 50.9175 39.3162 50.6598 39.1566 50.3417L37.3324 45.9712L33.007 44.1711C32.9687 44.1556 32.9316 44.1372 32.896 44.1161C32.6486 43.9757 32.4409 43.7749 32.292 43.5326C32.1432 43.2902 32.0582 43.014 32.0449 42.7299C32.0443 42.4293 32.1227 42.1338 32.2723 41.8729C32.4218 41.6121 32.6373 41.3952 32.897 41.2438C32.9321 41.2228 32.9689 41.2047 33.007 41.1898L37.3254 39.3896L39.1256 35.0752C39.2188 34.8701 39.353 34.6863 39.5198 34.535C39.6866 34.3836 39.8826 34.268 40.0957 34.1951C40.2987 34.1267 40.5133 34.0991 40.727 34.1141C40.9407 34.129 41.1493 34.1861 41.3408 34.2821C41.657 34.441 41.9134 34.6978 42.0719 35.0142L43.8991 39.3896L48.2215 41.1898C48.2584 41.2045 48.2942 41.2219 48.3285 41.2418C48.5764 41.3823 48.7846 41.5835 48.9334 41.8264C49.0823 42.0694 49.167 42.3462 49.1796 42.6309C49.1797 42.9312 49.1011 43.2263 48.9516 43.4867C48.8021 43.7471 48.5869 43.9638 48.3275 44.1151C48.2912 44.1354 48.2538 44.1538 48.2155 44.1701L43.8991 45.9642L42.0989 50.2797C42.0062 50.4842 41.8728 50.6677 41.7069 50.819C41.541 50.9703 41.346 51.0862 41.1338 51.1598C40.9666 51.2166 40.7913 51.246 40.6148 51.2468ZM38.4245 44.2591C38.5566 44.3054 38.6776 44.3788 38.7797 44.4745C38.8819 44.5703 38.9629 44.6863 39.0176 44.8151L40.6178 48.6505L42.2179 44.8111C42.2729 44.6789 42.3557 44.56 42.4606 44.4625C42.5655 44.3651 42.6901 44.2912 42.826 44.2461L46.6013 42.6779L42.779 41.0868C42.6518 41.0387 42.5357 40.9653 42.4379 40.8709C42.34 40.7765 42.2625 40.6631 42.2099 40.5377L40.6098 36.7003L39.0096 40.5377C38.9554 40.6689 38.8738 40.7871 38.7703 40.8844C38.6669 40.9816 38.5439 41.0557 38.4095 41.1018L34.6292 42.6769L38.4245 44.2591Z" fill="#3E4449"/>
<path d="M25.0456 35.1902C24.753 35.1893 24.4664 35.1069 24.2179 34.9524C23.9693 34.7978 23.7687 34.5772 23.6385 34.3151L21.9963 30.3798L18.1039 28.7576C18.0658 28.7417 18.0287 28.7233 17.9929 28.7026C17.7545 28.5673 17.5543 28.3738 17.4111 28.1401C17.2678 27.9065 17.1862 27.6403 17.1738 27.3665C17.1729 27.0769 17.2481 26.7922 17.3918 26.5408C17.5356 26.2895 17.7429 26.0803 17.9929 25.9343C18.0289 25.9143 18.066 25.8963 18.1039 25.8803L21.9893 24.2602L23.6045 20.3798C23.6943 20.1816 23.8237 20.0037 23.9847 19.8572C24.1456 19.7107 24.3348 19.5986 24.5406 19.5277C24.7362 19.4614 24.943 19.4347 25.1491 19.4491C25.3551 19.4635 25.5562 19.5188 25.7407 19.6117C26.0464 19.7651 26.2942 20.0136 26.4467 20.3198L28.0929 24.2602L31.9773 25.8813C32.0142 25.8966 32.0503 25.914 32.0853 25.9333C32.3251 26.0682 32.5267 26.2619 32.671 26.4962C32.8153 26.7305 32.8977 26.9976 32.9104 27.2724C32.9106 27.5617 32.8352 27.8461 32.6915 28.0971C32.5478 28.3482 32.3409 28.5573 32.0913 28.7036C32.0547 28.7241 32.017 28.7425 31.9783 28.7586L28.0929 30.3727L26.4767 34.2551C26.3875 34.453 26.2589 34.6306 26.0986 34.7769C25.9383 34.9233 25.7498 35.0353 25.5447 35.1062C25.384 35.1611 25.2154 35.1894 25.0456 35.1902ZM23.0904 28.6726C23.222 28.7188 23.3425 28.7921 23.4442 28.8877C23.5458 28.9833 23.6263 29.0991 23.6805 29.2276L25.0476 32.505L26.4107 29.2246C26.4651 29.0936 26.5467 28.9756 26.6502 28.8785C26.7536 28.7815 26.8766 28.7075 27.0108 28.6616L30.2341 27.3195L26.9768 25.9603C26.8502 25.9121 26.7348 25.8386 26.6375 25.7444C26.5402 25.6502 26.4631 25.5372 26.4107 25.4123L25.0426 22.1319L23.6765 25.4123C23.6221 25.5433 23.5405 25.6613 23.437 25.7584C23.3336 25.8554 23.2106 25.9294 23.0764 25.9753L19.8521 27.3195L23.0904 28.6726Z" fill="#3E4449"/>
<path d="M43.8946 16.0872C43.6814 16.0871 43.4712 16.0374 43.2805 15.9422C43.0035 15.805 42.7791 15.5809 42.6415 15.3041L41.4963 12.5629L38.8031 11.4398C38.7643 11.4238 38.7265 11.4055 38.6901 11.3847C38.4778 11.2637 38.2997 11.0909 38.1722 10.8824C38.0448 10.674 37.9721 10.4367 37.961 10.1926C37.9586 9.93246 38.0252 9.67631 38.154 9.45023C38.2828 9.22415 38.4691 9.0362 38.6941 8.9055C38.7292 8.88544 38.7656 8.86773 38.8031 8.8525L41.4913 7.73139L42.6085 5.04613C42.689 4.86656 42.8055 4.70545 42.9509 4.57281C43.0963 4.44017 43.2674 4.33882 43.4535 4.27505C43.6291 4.21564 43.8147 4.19168 43.9996 4.20455C44.1845 4.21743 44.365 4.26689 44.5306 4.35006C44.8044 4.48731 45.0265 4.70936 45.1637 4.98312L46.3128 7.73039L49.0031 8.8525C49.04 8.86781 49.0761 8.88517 49.1111 8.9045C49.325 9.02495 49.5047 9.19786 49.6333 9.40694C49.7619 9.61603 49.8351 9.8544 49.8462 10.0996C49.8478 10.3593 49.7811 10.6148 49.6528 10.8406C49.5245 11.0663 49.3391 11.2543 49.1151 11.3857C49.0791 11.4067 49.0416 11.425 49.0031 11.4407L46.3158 12.5579L45.1977 15.2441C45.0818 15.493 44.8981 15.7042 44.6675 15.8533C44.437 16.0024 44.1691 16.0835 43.8946 16.0872ZM42.6005 10.8557C42.7301 10.9027 42.8487 10.976 42.9487 11.071C43.0487 11.166 43.128 11.2806 43.1815 11.4077L43.9056 13.1449L44.6276 11.4057C44.6815 11.2763 44.7619 11.1597 44.8638 11.0634C44.9656 10.9671 45.0865 10.8933 45.2187 10.8467L46.9069 10.1466L45.1887 9.43055C45.0627 9.38195 44.9479 9.30833 44.8511 9.21414C44.7543 9.11995 44.6776 9.00713 44.6256 8.8825L43.9006 7.14533L43.1775 8.8815C43.1234 9.01139 43.0426 9.1284 42.9402 9.22491C42.8379 9.32141 42.7163 9.39524 42.5835 9.44156L40.8953 10.1416L42.6005 10.8557Z" fill="#3E4449"/>
<path d="M7.23051 44.6692C7.01747 44.669 6.80734 44.6198 6.61645 44.5252C6.33985 44.3874 6.11555 44.1635 5.97739 43.8871L4.83227 41.1448L2.13901 40.0207C2.10019 40.0045 2.06244 39.9858 2.026 39.9647C1.81405 39.8438 1.63609 39.6713 1.50863 39.4633C1.38117 39.2552 1.30835 39.0183 1.29693 38.7746C1.29471 38.5146 1.36113 38.2585 1.48949 38.0324C1.61785 37.8062 1.8036 37.6179 2.028 37.4865C2.0639 37.4663 2.10097 37.4483 2.13901 37.4325L4.82727 36.3114L5.94438 33.6261C6.0524 33.3807 6.22802 33.1712 6.45073 33.022C6.67343 32.8728 6.93401 32.79 7.202 32.7834C7.47 32.7768 7.73434 32.8466 7.96413 32.9847C8.19392 33.1227 8.37965 33.3234 8.49963 33.5631L9.64774 36.3114L12.339 37.4335C12.3761 37.4484 12.4122 37.4657 12.447 37.4855C12.6608 37.6058 12.8405 37.7785 12.9691 37.9874C13.0977 38.1963 13.171 38.4345 13.1821 38.6796C13.1838 38.9394 13.1172 39.1951 12.9889 39.421C12.8606 39.647 12.6751 39.8351 12.451 39.9667C12.4147 39.9871 12.3773 40.0054 12.339 40.0217L9.65074 41.1378L8.53363 43.8241C8.41803 44.0734 8.23439 44.2849 8.00385 44.4344C7.77332 44.5839 7.50525 44.6653 7.23051 44.6692ZM5.93638 39.4377C6.06616 39.4848 6.18479 39.5582 6.28479 39.6534C6.38479 39.7486 6.464 39.8634 6.51744 39.9907L7.24151 41.7269L7.96358 39.9887C8.01753 39.8592 8.09813 39.7425 8.20013 39.6462C8.30214 39.5499 8.42326 39.4761 8.55564 39.4297L10.2428 38.7296L8.52563 38.0135C8.39927 37.9652 8.28404 37.8916 8.18692 37.7974C8.08979 37.7032 8.01279 37.5903 7.96058 37.4655L7.23651 35.7283L6.51544 37.4655C6.46138 37.5954 6.38053 37.7124 6.27816 37.8089C6.1758 37.9054 6.05422 37.9792 5.92138 38.0255L4.23322 38.7256L5.93638 39.4377Z" fill="#3E4449"/>
</g>
</g>
<defs>
<clipPath id="clip0_8_24401">
<rect width="49.19" height="51.31" fill="white" transform="translate(0.660156 0.829834)"/>
</clipPath>
<clipPath id="clip1_8_24401">
<rect width="49.1868" height="51.31" fill="white" transform="translate(0.662109 0.829834)"/>
</clipPath>
</defs>
</svg>
