<svg width="55" height="55" viewBox="0 0 55 55" fill="none" xmlns="http://www.w3.org/2000/svg">
<g clip-path="url(#clip0_8_24433)">
<g clip-path="url(#clip1_8_24433)">
<g clip-path="url(#clip2_8_24433)">
<path d="M40.049 28.8043C47.4974 28.8043 53.5355 22.7662 53.5355 15.3178C53.5355 7.86941 47.4974 1.8313 40.049 1.8313C32.6006 1.8313 26.5625 7.86941 26.5625 15.3178C26.5625 22.7662 32.6006 28.8043 40.049 28.8043Z" fill="#EFE025"/>
<path d="M27.1979 48.8955C21.7032 48.8892 16.4353 46.7036 12.55 42.8182C8.66462 38.9329 6.47901 33.665 6.47266 28.1703C6.47901 22.6756 8.66462 17.4077 12.55 13.5224C16.4353 9.63701 21.7032 7.45142 27.1979 7.44507C32.6926 7.45142 37.9605 9.63701 41.8458 13.5224C45.7312 17.4077 47.9168 22.6756 47.9231 28.1703C47.9168 33.665 45.7312 38.9329 41.8458 42.8182C37.9605 46.7036 32.6926 48.8892 27.1979 48.8955ZM27.1979 9.44499C22.2333 9.45055 17.4737 11.4252 13.9633 14.9356C10.4528 18.4461 8.47814 23.2057 8.47258 28.1703C8.47814 33.1349 10.4528 37.8945 13.9633 41.4049C17.4737 44.9154 22.2333 46.89 27.1979 46.8956C32.1625 46.89 36.9221 44.9154 40.4325 41.4049C43.943 37.8945 45.9176 33.1349 45.9232 28.1703C45.9176 23.2057 43.943 18.4461 40.4325 14.9356C36.9221 11.4252 32.1625 9.45055 27.1979 9.44499Z" fill="#3E4449"/>
<path d="M15.674 37.7292C14.9535 37.7284 14.2627 37.4417 13.7533 36.9322C13.2439 36.4226 12.9576 35.7317 12.957 35.0112C12.9578 34.2908 13.2443 33.6002 13.7537 33.0909C14.2631 32.5815 14.9537 32.295 15.674 32.2942C16.3944 32.295 17.085 32.5815 17.5944 33.0909C18.1037 33.6002 18.3902 34.2908 18.391 35.0112C18.3905 35.7317 18.1041 36.4226 17.5947 36.9322C17.0853 37.4417 16.3945 37.7284 15.674 37.7292ZM15.674 34.2942C15.4839 34.2945 15.3017 34.3701 15.1673 34.5045C15.0329 34.6389 14.9573 34.8211 14.957 35.0112C14.957 35.2014 15.0325 35.3839 15.167 35.5185C15.3014 35.6532 15.4838 35.7289 15.674 35.7292C15.8643 35.7289 16.0466 35.6532 16.1811 35.5185C16.3155 35.3839 16.391 35.2014 16.391 35.0112C16.3908 34.8211 16.3151 34.6389 16.1807 34.5045C16.0463 34.3701 15.8641 34.2945 15.674 34.2942Z" fill="#3E4449"/>
<path d="M37.6277 34.5763C37.2075 34.5763 36.7914 34.4935 36.4032 34.3327C36.0149 34.1719 35.6621 33.9362 35.365 33.639C35.0678 33.3419 34.8321 32.9891 34.6713 32.6009C34.5105 32.2126 34.4277 31.7965 34.4277 31.3763C34.4277 30.956 34.5105 30.5399 34.6713 30.1517C34.8321 29.7634 35.0678 29.4107 35.365 29.1135C35.6621 28.8164 36.0149 28.5807 36.4032 28.4199C36.7914 28.259 37.2075 28.1763 37.6277 28.1763C38.048 28.1763 38.4641 28.259 38.8523 28.4199C39.2406 28.5807 39.5933 28.8164 39.8905 29.1135C40.1876 29.4107 40.4234 29.7634 40.5842 30.1517C40.745 30.5399 40.8278 30.956 40.8278 31.3763C40.8278 31.7965 40.745 32.2126 40.5842 32.6009C40.4234 32.9891 40.1876 33.3419 39.8905 33.639C39.5933 33.9362 39.2406 34.1719 38.8523 34.3327C38.4641 34.4935 38.048 34.5763 37.6277 34.5763ZM37.6277 30.1763C37.4702 30.1763 37.3141 30.2073 37.1685 30.2676C37.0229 30.3279 36.8906 30.4163 36.7792 30.5277C36.6678 30.6392 36.5794 30.7715 36.5191 30.917C36.4588 31.0626 36.4277 31.2187 36.4277 31.3763C36.4277 31.6945 36.5542 31.9998 36.7792 32.2248C37.0042 32.4498 37.3095 32.5763 37.6277 32.5763C37.946 32.5763 38.2512 32.4498 38.4763 32.2248C38.7013 31.9998 38.8278 31.6945 38.8278 31.3763C38.8278 31.2187 38.7967 31.0626 38.7364 30.917C38.6761 30.7715 38.5877 30.6392 38.4763 30.5277C38.3648 30.4163 38.2326 30.3279 38.087 30.2676C37.9414 30.2073 37.7853 30.1763 37.6277 30.1763Z" fill="#3E4449"/>
<path d="M26.3564 24.2388C25.0641 24.2372 23.8251 23.723 22.9114 22.8091C21.9976 21.8952 21.4837 20.6561 21.4824 19.3638C21.4837 18.0715 21.9977 16.8325 22.9114 15.9188C23.8252 15.005 25.0642 14.4911 26.3564 14.4897C27.6488 14.4911 28.8878 15.005 29.8018 15.9187C30.7157 16.8324 31.2298 18.0714 31.2314 19.3638C31.2298 20.6562 30.7157 21.8952 29.8018 22.8091C28.8879 23.723 27.6489 24.2372 26.3564 24.2388ZM26.3564 16.4897C25.5944 16.4905 24.8639 16.7936 24.3251 17.3324C23.7863 17.8712 23.4832 18.6018 23.4824 19.3638C23.483 20.1259 23.7859 20.8567 24.3247 21.3957C24.8635 21.9348 25.5943 22.238 26.3564 22.2388C27.1187 22.2382 27.8497 21.9351 28.3888 21.3961C28.9278 20.857 29.2309 20.1261 29.2314 19.3638C29.2306 18.6016 28.9274 17.8709 28.3884 17.332C27.8494 16.7932 27.1186 16.4903 26.3564 16.4897Z" fill="#3E4449"/>
<path d="M43.2971 46.5576C38.2803 46.5576 29.3976 40.3649 22.2059 33.2031L22.1839 33.1821C13.4192 24.3825 6.09652 13.0469 9.79038 9.35403C10.7783 8.36407 12.9073 7.6121 17.4441 9.64902C17.6856 9.75814 17.8739 9.95866 17.9676 10.2065C18.0614 10.4544 18.0529 10.7293 17.9441 10.971C17.8349 11.2125 17.6344 11.4008 17.3866 11.4945C17.1387 11.5883 16.8637 11.5798 16.6221 11.471C13.9732 10.283 11.9473 10.02 11.2013 10.766C9.41737 12.5499 13.2642 21.3936 23.5779 31.7482L23.5939 31.7642C33.9565 42.0938 42.8091 45.9467 44.5931 44.1637C45.34 43.4168 45.0771 41.3898 43.8881 38.7429C43.7793 38.5013 43.7708 38.2264 43.8645 37.9785C43.9583 37.7306 44.1466 37.5301 44.3881 37.421C44.6296 37.3125 44.9043 37.3041 45.1519 37.3979C45.3995 37.4916 45.5999 37.6797 45.709 37.921C47.7459 42.4558 46.994 44.5867 46.009 45.5757C45.6462 45.9133 45.2191 46.1742 44.7531 46.3429C44.2871 46.5117 43.792 46.5847 43.2971 46.5576Z" fill="#3E4449"/>
<path d="M17.3906 5.36813C17.1238 5.36517 16.8688 5.25742 16.6806 5.06813C16.4967 4.88133 16.3927 4.63028 16.3906 4.36813C16.3926 4.10302 16.4964 3.84881 16.6806 3.65813C16.874 3.47969 17.1275 3.38062 17.3906 3.38062C17.6538 3.38062 17.9072 3.47969 18.1006 3.65813C18.2833 3.84982 18.3868 4.10339 18.3906 4.36813C18.3889 4.43189 18.3822 4.49541 18.3706 4.55813C18.3614 4.62436 18.3411 4.68858 18.3106 4.74813C18.2907 4.80959 18.2603 4.86711 18.2206 4.91813C18.1888 4.97416 18.1483 5.02479 18.1006 5.06813C17.9125 5.25742 17.6575 5.36517 17.3906 5.36813Z" fill="#3E4449"/>
<path d="M37.0393 54.1863C36.9722 54.1851 36.9053 54.1784 36.8393 54.1663C36.7793 54.1463 36.7093 54.1263 36.6493 54.1063C36.5893 54.0863 36.5293 54.0463 36.4793 54.0163C36.4228 53.9811 36.3722 53.9372 36.3293 53.8863C36.2349 53.7957 36.1597 53.6871 36.1082 53.5668C36.0566 53.4466 36.0298 53.3172 36.0293 53.1863C36.0317 53.0525 36.0589 52.9203 36.1093 52.7963C36.1577 52.6745 36.2329 52.5652 36.3293 52.4763C36.5207 52.2979 36.7726 52.1987 37.0343 52.1987C37.2959 52.1987 37.5479 52.2979 37.7393 52.4763C37.8325 52.5679 37.9072 52.6765 37.9593 52.7963C38.0066 52.9209 38.0304 53.0531 38.0293 53.1863C38.0306 53.3165 38.0055 53.4456 37.9557 53.5659C37.9059 53.6862 37.8323 53.7952 37.7393 53.8863C37.6487 53.9807 37.54 54.0559 37.4198 54.1074C37.2995 54.159 37.1701 54.1858 37.0393 54.1863Z" fill="#3E4449"/>
<path d="M53.5392 40.7268C53.4054 40.7243 53.2732 40.6972 53.1492 40.6468C53.0299 40.5983 52.9211 40.5269 52.8292 40.4368C52.7379 40.3398 52.6635 40.2283 52.6092 40.1068C52.561 39.9859 52.5372 39.8568 52.5392 39.7268C52.5381 39.5935 52.5618 39.4613 52.6092 39.3368C52.6612 39.2169 52.7359 39.1083 52.8292 39.0168C52.9456 38.9015 53.0886 38.8165 53.2455 38.7695C53.4024 38.7224 53.5685 38.7146 53.7292 38.7468C53.7939 38.7575 53.8575 38.7742 53.9192 38.7968C53.9792 38.8241 54.0361 38.8576 54.0892 38.8968C54.1474 38.9253 54.1986 38.9663 54.2392 39.0168C54.3337 39.1094 54.4089 39.2198 54.4603 39.3417C54.5118 39.4636 54.5386 39.5945 54.5392 39.7268C54.5376 39.8574 54.5104 39.9865 54.4592 40.1068C54.4086 40.2303 54.3338 40.3425 54.2392 40.4368C54.1932 40.4816 54.143 40.5217 54.0892 40.5568C54.0358 40.5926 53.9788 40.6228 53.9192 40.6468C53.8579 40.6727 53.7943 40.6928 53.7292 40.7068C53.6665 40.7184 53.6029 40.725 53.5392 40.7268Z" fill="#3E4449"/>
<path d="M4.23047 2.82827C3.96481 2.82904 3.70963 2.7248 3.52048 2.53827C3.33628 2.34759 3.23244 2.09338 3.23047 1.82827C3.23205 1.69759 3.25924 1.56849 3.31049 1.44827C3.35896 1.32893 3.43029 1.22022 3.52048 1.12827C3.61469 1.03364 3.72688 0.958831 3.85046 0.908265C4.09393 0.808247 4.36701 0.808247 4.61047 0.908265C4.7353 0.956474 4.84798 1.03159 4.94049 1.12827C5.03346 1.21941 5.10706 1.3284 5.15689 1.44869C5.20672 1.56897 5.23174 1.69808 5.23047 1.82827C5.23373 1.89556 5.227 1.96296 5.21048 2.02827C5.19848 2.08947 5.18175 2.14965 5.16046 2.20827C5.13315 2.27142 5.09967 2.33171 5.06049 2.38827C5.02357 2.44066 4.9835 2.49075 4.94049 2.53827C4.84531 2.63171 4.73334 2.70635 4.61047 2.75827C4.48966 2.80644 4.36051 2.83023 4.23047 2.82827Z" fill="#3E4449"/>
<path d="M48.5944 13.7181C48.3775 13.718 48.1636 13.6677 47.9694 13.5711C47.6909 13.4326 47.4656 13.2063 47.3284 12.9271L46.1864 10.1921L43.4934 9.06911C43.4553 9.05355 43.4182 9.03551 43.3824 9.01511C43.1697 8.89454 42.9911 8.7219 42.8634 8.5134C42.7357 8.3049 42.6631 8.06737 42.6524 7.82311C42.6502 7.56274 42.7169 7.30642 42.8458 7.0802C42.9747 6.85397 43.1613 6.66591 43.3864 6.53512C43.421 6.51558 43.4567 6.49821 43.4934 6.48311L46.1814 5.36111L47.2994 2.67611C47.3776 2.50245 47.4898 2.3462 47.6293 2.21656C47.7688 2.08692 47.9329 1.98652 48.1118 1.92129C48.2907 1.85605 48.4809 1.82729 48.6711 1.83671C48.8614 1.84612 49.0478 1.89352 49.2194 1.97611C49.4928 2.11288 49.7148 2.33417 49.8524 2.60711L51.0024 5.35711L53.6934 6.47912C53.7299 6.49463 53.7656 6.51198 53.8004 6.53111C54.0141 6.65146 54.1937 6.8242 54.3223 7.03307C54.4509 7.24195 54.5242 7.48009 54.5354 7.72511C54.5372 7.98454 54.4708 8.23988 54.3428 8.46557C54.2149 8.69127 54.0299 8.87939 53.8064 9.01111C53.7701 9.03237 53.7323 9.05108 53.6934 9.06711L51.0044 10.1841L49.8874 12.8691C49.8074 13.0481 49.6915 13.2088 49.5471 13.3414C49.4026 13.474 49.2326 13.5757 49.0474 13.6401C48.9017 13.6906 48.7487 13.717 48.5944 13.7181ZM47.2904 8.48611C47.4201 8.53308 47.5386 8.60637 47.6386 8.70137C47.7386 8.79636 47.8178 8.91101 47.8714 9.03811L48.5954 10.7741L49.3174 9.03612C49.3721 8.90564 49.4539 8.78826 49.5573 8.69172C49.6607 8.59519 49.7835 8.5217 49.9174 8.47611L51.6024 7.77611L49.8834 7.05911C49.7575 7.01062 49.6427 6.93717 49.546 6.84317C49.4492 6.74916 49.3725 6.63655 49.3204 6.51211L48.5954 4.77511L47.8744 6.51211C47.8205 6.64188 47.7398 6.75883 47.6376 6.85532C47.5354 6.95181 47.414 7.02568 47.2814 7.07211L45.5934 7.77212L47.2904 8.48611Z" fill="#3E4449"/>
<path d="M6.88228 53.8367C6.66851 53.8365 6.45768 53.7869 6.26629 53.6917C5.99057 53.5539 5.76704 53.3304 5.62929 53.0547L4.4833 50.3167L1.7903 49.1947C1.75215 49.1788 1.71505 49.1604 1.67928 49.1397C1.46725 49.0191 1.28915 48.8469 1.16152 48.639C1.03389 48.4311 0.960899 48.1943 0.949301 47.9507C0.946545 47.6899 1.0129 47.4331 1.14165 47.2063C1.27041 46.9796 1.45697 46.7909 1.6823 46.6597C1.71729 46.64 1.75334 46.6223 1.7903 46.6067L4.47829 45.4857L5.5963 42.8007C5.67664 42.6214 5.79289 42.4604 5.93789 42.3278C6.08288 42.1952 6.25353 42.0937 6.43929 42.0297C6.6152 41.9702 6.8012 41.9462 6.98644 41.9593C7.17169 41.9723 7.35248 42.0221 7.5183 42.1057C7.79313 42.2432 8.01569 42.4664 8.1523 42.7417L9.29928 45.4857L11.9893 46.6077C12.0264 46.6226 12.0625 46.6399 12.0973 46.6597C12.3111 46.78 12.4907 46.9527 12.6193 47.1616C12.7479 47.3705 12.8212 47.6086 12.8323 47.8537C12.8339 48.1133 12.7674 48.3689 12.6393 48.5947C12.5112 48.8206 12.326 49.0088 12.1023 49.1407C12.0661 49.1612 12.0287 49.1796 11.9903 49.1957L9.30129 50.3127L8.18429 52.9977C8.068 53.2457 7.8842 53.456 7.65392 53.6044C7.42364 53.7528 7.15621 53.8333 6.88228 53.8367ZM5.58828 48.6067C5.71777 48.6538 5.83613 48.7271 5.93593 48.8221C6.03574 48.9171 6.11486 49.0317 6.1683 49.1587L6.89229 50.8947L7.61428 49.1567C7.66898 49.0262 7.75075 48.9088 7.85418 48.8123C7.95761 48.7158 8.08035 48.6423 8.21429 48.5967L9.89928 47.8967L8.18029 47.1797C8.0544 47.1312 7.93964 47.0577 7.84289 46.9637C7.74613 46.8697 7.6694 46.7571 7.6173 46.6327L6.89229 44.8957L6.17129 46.6327C6.11712 46.7624 6.03624 46.8792 5.93389 46.9755C5.83154 47.0718 5.71002 47.1455 5.57729 47.1917L3.8893 47.8917L5.58828 48.6067Z" fill="#3E4449"/>
</g>
</g>
</g>
<defs>
<clipPath id="clip0_8_24433">
<rect width="53.59" height="53.36" fill="white" transform="translate(0.949219 0.829834)"/>
</clipPath>
<clipPath id="clip1_8_24433">
<rect width="53.59" height="53.36" fill="white" transform="translate(0.949219 0.829834)"/>
</clipPath>
<clipPath id="clip2_8_24433">
<rect width="53.59" height="53.353" fill="white" transform="translate(0.949219 0.833252)"/>
</clipPath>
</defs>
</svg>
