<svg width="54" height="57" viewBox="0 0 54 57" fill="none" xmlns="http://www.w3.org/2000/svg">
<g clip-path="url(#clip0_8_24462)">
<g clip-path="url(#clip1_8_24462)">
<g clip-path="url(#clip2_8_24462)">
<path d="M39.4422 56.9192C47.3299 56.9192 53.7242 50.525 53.7242 42.6372C53.7242 34.7495 47.3299 28.3552 39.4422 28.3552C31.5544 28.3552 25.1602 34.7495 25.1602 42.6372C25.1602 50.525 31.5544 56.9192 39.4422 56.9192Z" fill="#EFE025"/>
<path d="M35.5776 51.8041C35.4385 51.8043 35.3007 51.777 35.1722 51.7238C35.0436 51.6706 34.9269 51.5926 34.8286 51.4941C33.0425 49.708 32.0391 47.2855 32.0391 44.7596C32.0391 42.2337 33.0425 39.8112 34.8286 38.0251C36.6147 36.239 39.0372 35.2356 41.5631 35.2356C44.089 35.2356 46.5115 36.239 48.2976 38.0251C48.3962 38.1236 48.4743 38.2405 48.5277 38.3692C48.5811 38.4979 48.6085 38.6358 48.6085 38.7751C48.6085 38.9144 48.5811 39.0524 48.5277 39.1811C48.4743 39.3098 48.3962 39.4267 48.2976 39.5251L36.3286 51.4941C36.2299 51.5926 36.1128 51.6707 35.984 51.7239C35.8551 51.7771 35.717 51.8044 35.5776 51.8041ZM41.5626 37.3571C40.1876 37.3549 38.8393 37.7359 37.6687 38.4572C36.4982 39.1785 35.5517 40.2117 34.9355 41.4408C34.3193 42.6699 34.0578 44.0465 34.1802 45.416C34.3026 46.7854 34.8042 48.0937 35.6286 49.1941L45.9976 38.8251C44.7167 37.8694 43.1607 37.3543 41.5626 37.3571Z" fill="#3E4449"/>
<path d="M44.6206 48.8759C44.4815 48.8761 44.3437 48.8488 44.2151 48.7956C44.0866 48.7424 43.9698 48.6644 43.8716 48.5659L40.8146 45.5089C40.7161 45.4104 40.6379 45.2935 40.5846 45.1648C40.5313 45.0361 40.5039 44.8982 40.5039 44.7589C40.5039 44.6196 40.5313 44.4817 40.5846 44.353C40.6379 44.2243 40.7161 44.1074 40.8146 44.0089C40.9131 43.9104 41.03 43.8323 41.1587 43.779C41.2874 43.7257 41.4253 43.6982 41.5646 43.6982C41.7039 43.6982 41.8418 43.7257 41.9705 43.779C42.0991 43.8323 42.2161 43.9104 42.3146 44.0089L45.3716 47.0659C45.5197 47.214 45.6207 47.4027 45.6615 47.6082C45.7024 47.8137 45.6815 48.0267 45.6013 48.2202C45.5211 48.4138 45.3853 48.5792 45.2111 48.6955C45.0369 48.8119 44.8321 48.874 44.6226 48.8739L44.6206 48.8759Z" fill="#3E4449"/>
<path d="M27.6619 41.4907C27.381 41.4907 27.1116 41.3792 26.9129 41.1807L4.2289 18.4987C4.13033 18.4003 4.05214 18.2833 3.99878 18.1547C3.94543 18.026 3.91797 17.888 3.91797 17.7487C3.91797 17.6094 3.94543 17.4714 3.99878 17.3428C4.05214 17.2141 4.13033 17.0972 4.2289 16.9987L13.8029 7.4247C13.9013 7.32613 14.0183 7.24794 14.147 7.19458C14.2756 7.14123 14.4136 7.11377 14.5529 7.11377C14.6922 7.11377 14.8302 7.14123 14.9589 7.19458C15.0875 7.24794 15.2045 7.32613 15.3029 7.4247L37.9829 30.1097C38.0817 30.208 38.1601 30.3249 38.2136 30.4536C38.2671 30.5823 38.2947 30.7203 38.2947 30.8597C38.2947 30.9991 38.2671 31.1371 38.2136 31.2658C38.1601 31.3945 38.0817 31.5114 37.9829 31.6097L28.4089 41.1837C28.2104 41.381 27.9417 41.4914 27.6619 41.4907ZM6.4759 17.7497L27.6619 38.9347L35.7369 30.8597L14.5519 9.6737L6.4759 17.7497Z" fill="#3E4449"/>
<path d="M4.54025 11.4938C3.7969 11.494 3.07019 11.2737 2.45204 10.8609C1.83389 10.448 1.35206 9.8611 1.0675 9.17437C0.782946 8.48765 0.70844 7.73195 0.853412 7.00288C0.998383 6.27381 1.35632 5.6041 1.88194 5.07848C2.40757 4.55285 3.07727 4.19492 3.80635 4.04994C4.53542 3.90497 5.29111 3.97948 5.97784 4.26404C6.66456 4.5486 7.25147 5.03042 7.66433 5.64857C8.07719 6.26673 8.29745 6.99344 8.29725 7.73678C8.29619 8.73288 7.90003 9.68787 7.19568 10.3922C6.49134 11.0966 5.53635 11.4927 4.54025 11.4938ZM4.54025 6.09378C4.21585 6.09359 3.89867 6.1896 3.62884 6.36969C3.35902 6.54977 3.14866 6.80584 3.02438 7.10549C2.90009 7.40514 2.86747 7.73493 2.93064 8.05312C2.99381 8.37131 3.14992 8.66363 3.37924 8.89309C3.60856 9.12254 3.90078 9.27884 4.21894 9.3422C4.53709 9.40556 4.86689 9.37314 5.16662 9.24904C5.46635 9.12494 5.72254 8.91474 5.90279 8.64502C6.08304 8.37531 6.17925 8.05819 6.17925 7.73378C6.17793 7.29969 6.00476 6.88377 5.69762 6.577C5.39048 6.27024 4.97435 6.09758 4.54025 6.09678V6.09378Z" fill="#3E4449"/>
<path d="M35.5784 39.835C35.4393 39.8352 35.3015 39.808 35.1729 39.7548C35.0444 39.7016 34.9277 39.6235 34.8294 39.525L31.6974 36.389C31.4985 36.1901 31.3867 35.9203 31.3867 35.639C31.3867 35.3577 31.4985 35.0879 31.6974 34.889C31.8963 34.6901 32.1661 34.5784 32.4474 34.5784C32.7287 34.5784 32.9985 34.6901 33.1974 34.889L36.3284 38.021C36.4766 38.1691 36.5775 38.3579 36.6184 38.5633C36.6592 38.7688 36.6383 38.9818 36.5581 39.1753C36.4779 39.3689 36.3421 39.5343 36.1679 39.6507C35.9937 39.767 35.7889 39.8291 35.5794 39.829L35.5784 39.835Z" fill="#3E4449"/>
<path d="M9.76829 14.0229C9.62917 14.0231 9.49139 13.9958 9.36286 13.9426C9.23432 13.8894 9.11756 13.8113 9.01929 13.7129L5.70129 10.3949C5.50237 10.196 5.39063 9.92619 5.39062 9.64489C5.39063 9.36358 5.50237 9.0938 5.70129 8.89489C5.9002 8.69598 6.16998 8.58423 6.45129 8.58423C6.73259 8.58423 7.00237 8.69598 7.20129 8.89489L10.5193 12.2129C10.6675 12.361 10.7684 12.5497 10.8093 12.7552C10.8502 12.9607 10.8292 13.1736 10.749 13.3672C10.6688 13.5607 10.533 13.7262 10.3588 13.8425C10.1846 13.9589 9.97979 14.021 9.77029 14.0209L9.76829 14.0229Z" fill="#3E4449"/>
<path d="M9.35497 51.6502C9.21585 51.6504 9.07805 51.6232 8.9495 51.57C8.82096 51.5168 8.70421 51.4387 8.60596 51.3402L1.14297 43.8812C1.0444 43.7827 0.966197 43.6658 0.912845 43.5371C0.859492 43.4084 0.832031 43.2705 0.832031 43.1312C0.832031 42.9918 0.859492 42.8539 0.912845 42.7252C0.966197 42.5965 1.0444 42.4796 1.14297 42.3812L12.343 31.1812C12.4413 31.0823 12.5581 31.0039 12.6869 30.9504C12.8156 30.8969 12.9536 30.8694 13.093 30.8694C13.2324 30.8694 13.3704 30.8969 13.4991 30.9504C13.6278 31.0039 13.7447 31.0823 13.843 31.1812L21.306 38.6441C21.4048 38.7425 21.4832 38.8593 21.5367 38.988C21.5902 39.1168 21.6177 39.2548 21.6177 39.3941C21.6177 39.5335 21.5902 39.6716 21.5367 39.8003C21.4832 39.929 21.4048 40.0458 21.306 40.1441L10.106 51.3442C10.0073 51.4423 9.89005 51.5199 9.76114 51.5724C9.63222 51.625 9.49416 51.6514 9.35497 51.6502ZM3.39297 43.1282L9.35797 49.0942L19.065 39.3882L13.093 33.4212L3.39297 43.1282Z" fill="#3E4449"/>
<path d="M9.35497 51.6502C9.21585 51.6504 9.07805 51.6232 8.9495 51.57C8.82096 51.5168 8.70421 51.4387 8.60596 51.3402L1.14297 43.8812C1.0444 43.7827 0.966197 43.6658 0.912845 43.5371C0.859492 43.4084 0.832031 43.2705 0.832031 43.1312C0.832031 42.9918 0.859492 42.8539 0.912845 42.7252C0.966197 42.5965 1.0444 42.4796 1.14297 42.3812L12.343 31.1812C12.4413 31.0823 12.5581 31.0039 12.6869 30.9504C12.8156 30.8969 12.9536 30.8694 13.093 30.8694C13.2324 30.8694 13.3704 30.8969 13.4991 30.9504C13.6278 31.0039 13.7447 31.0823 13.843 31.1812L21.306 38.6441C21.4048 38.7425 21.4832 38.8593 21.5367 38.988C21.5902 39.1168 21.6177 39.2548 21.6177 39.3941C21.6177 39.5335 21.5902 39.6716 21.5367 39.8003C21.4832 39.929 21.4048 40.0458 21.306 40.1441L10.106 51.3442C10.0073 51.4423 9.89005 51.5199 9.76114 51.5724C9.63222 51.625 9.49416 51.6514 9.35497 51.6502ZM3.39297 43.1282L9.35797 49.0942L19.065 39.3882L13.093 33.4212L3.39297 43.1282Z" fill="#3E4449"/>
<path d="M13.1292 47.8761C12.9901 47.8763 12.8523 47.849 12.7238 47.7958C12.5953 47.7426 12.4785 47.6646 12.3802 47.5661L4.91724 40.1021C4.81843 40.0038 4.74002 39.8869 4.68651 39.7582C4.63301 39.6295 4.60547 39.4915 4.60547 39.3521C4.60547 39.2127 4.63301 39.0747 4.68651 38.946C4.74002 38.8173 4.81843 38.7004 4.91724 38.6021L8.57024 34.9491C8.66868 34.8505 8.78559 34.7723 8.91429 34.719C9.04298 34.6656 9.18092 34.6382 9.32024 34.6382C9.45955 34.6382 9.59749 34.6656 9.72618 34.719C9.85488 34.7723 9.97179 34.8505 10.0702 34.9491L17.5332 42.4121C17.6318 42.5106 17.71 42.6275 17.7634 42.7562C17.8167 42.8849 17.8442 43.0228 17.8442 43.1621C17.8442 43.3014 17.8167 43.4394 17.7634 43.5681C17.71 43.6968 17.6318 43.8137 17.5332 43.9121L13.8802 47.5651C13.7818 47.664 13.6648 47.7424 13.5359 47.7958C13.407 47.8491 13.2688 47.8765 13.1292 47.8761ZM7.16324 39.3541L13.1292 45.3201L15.2842 43.1641L9.31924 37.1981L7.16324 39.3541Z" fill="#3E4449"/>
<path d="M36.23 24.7747C36.0908 24.7751 35.953 24.748 35.8244 24.6948C35.6958 24.6415 35.5791 24.5634 35.481 24.4647L28.018 17.0027C27.9194 16.9043 27.8412 16.7874 27.7878 16.6587C27.7345 16.53 27.707 16.392 27.707 16.2527C27.707 16.1134 27.7345 15.9755 27.7878 15.8468C27.8412 15.7181 27.9194 15.6012 28.018 15.5027L39.218 4.30271C39.4205 4.1107 39.6889 4.00366 39.968 4.00366C40.247 4.00366 40.5155 4.1107 40.718 4.30271L48.18 11.7657C48.2788 11.864 48.3572 11.9809 48.4107 12.1096C48.4642 12.2383 48.4917 12.3763 48.4917 12.5157C48.4917 12.6551 48.4642 12.7931 48.4107 12.9218C48.3572 13.0505 48.2788 13.1674 48.18 13.2657L36.98 24.4657C36.8816 24.5642 36.7646 24.6423 36.6359 24.6953C36.5072 24.7484 36.3692 24.7754 36.23 24.7747ZM30.264 16.2537L36.23 22.2187L45.936 12.5127L39.972 6.54671L30.264 16.2537Z" fill="#3E4449"/>
<path d="M36.23 24.7747C36.0908 24.7751 35.953 24.748 35.8244 24.6948C35.6958 24.6415 35.5791 24.5634 35.481 24.4647L28.018 17.0027C27.9194 16.9043 27.8412 16.7874 27.7878 16.6587C27.7345 16.53 27.707 16.392 27.707 16.2527C27.707 16.1134 27.7345 15.9755 27.7878 15.8468C27.8412 15.7181 27.9194 15.6012 28.018 15.5027L39.218 4.30271C39.4205 4.1107 39.6889 4.00366 39.968 4.00366C40.247 4.00366 40.5155 4.1107 40.718 4.30271L48.18 11.7657C48.2788 11.864 48.3572 11.9809 48.4107 12.1096C48.4642 12.2383 48.4917 12.3763 48.4917 12.5157C48.4917 12.6551 48.4642 12.7931 48.4107 12.9218C48.3572 13.0505 48.2788 13.1674 48.18 13.2657L36.98 24.4657C36.8816 24.5642 36.7646 24.6423 36.6359 24.6953C36.5072 24.7484 36.3692 24.7754 36.23 24.7747ZM30.264 16.2537L36.23 22.2187L45.936 12.5127L39.972 6.54671L30.264 16.2537Z" fill="#3E4449"/>
<path d="M40.0041 20.9967C39.7233 20.9965 39.4539 20.8851 39.2551 20.6867L31.7961 13.2267C31.6973 13.1283 31.6189 13.0115 31.5654 12.8828C31.5119 12.7541 31.4844 12.616 31.4844 12.4767C31.4844 12.3373 31.5119 12.1993 31.5654 12.0705C31.6189 11.9418 31.6973 11.825 31.7961 11.7267L35.4461 8.07666C35.5445 7.97785 35.6613 7.89944 35.79 7.84594C35.9187 7.79243 36.0568 7.76489 36.1961 7.76489C36.3355 7.76489 36.4735 7.79243 36.6023 7.84594C36.731 7.89944 36.8478 7.97785 36.9461 8.07666L44.4081 15.5387C44.507 15.637 44.5854 15.7538 44.6389 15.8825C44.6924 16.0113 44.7199 16.1493 44.7199 16.2887C44.7199 16.428 44.6924 16.5661 44.6389 16.6948C44.5854 16.8235 44.507 16.9403 44.4081 17.0387L40.7561 20.6917C40.5557 20.8889 40.2853 20.9985 40.0041 20.9967ZM34.0381 12.4747L40.0041 18.4407L42.1591 16.2847L36.1961 10.3227L34.0381 12.4747Z" fill="#3E4449"/>
<path d="M29.5047 24.1853C29.295 24.1854 29.0901 24.1233 28.9158 24.0068C28.7416 23.8903 28.6058 23.7247 28.5257 23.531C28.4456 23.3373 28.4248 23.1242 28.4659 22.9186C28.507 22.7131 28.6082 22.5243 28.7567 22.3763L31.8307 19.3133C31.9292 19.2149 32.0461 19.1367 32.1748 19.0834C32.3035 19.0301 32.4414 19.0027 32.5807 19.0027C32.7199 19.0027 32.8579 19.0301 32.9866 19.0834C33.1152 19.1367 33.2322 19.2149 33.3307 19.3133C33.4292 19.4118 33.5073 19.5288 33.5606 19.6574C33.6139 19.7861 33.6413 19.9241 33.6413 20.0633C33.6413 20.2026 33.6139 20.3406 33.5606 20.4692C33.5073 20.5979 33.4292 20.7149 33.3307 20.8133L30.2587 23.8773C30.1597 23.9761 30.0421 24.0542 29.9126 24.1071C29.7832 24.16 29.6445 24.1866 29.5047 24.1853Z" fill="#3E4449"/>
<path d="M16.8992 36.7883C16.6897 36.7884 16.4849 36.7263 16.3107 36.6099C16.1364 36.4936 16.0007 36.3282 15.9205 36.1346C15.8403 35.9411 15.8193 35.7281 15.8602 35.5226C15.9011 35.3171 16.002 35.1284 16.1502 34.9803L19.1812 31.9503C19.3801 31.7514 19.6499 31.6396 19.9312 31.6396C20.2125 31.6396 20.4823 31.7514 20.6812 31.9503C20.8801 32.1492 20.9919 32.419 20.9919 32.7003C20.9919 32.9816 20.8801 33.2514 20.6812 33.4503L17.6502 36.4803C17.5515 36.5786 17.4344 36.6565 17.3055 36.7093C17.1766 36.7622 17.0385 36.789 16.8992 36.7883Z" fill="#3E4449"/>
<path d="M9.30544 23.134C9.09594 23.134 8.89113 23.072 8.71691 22.9556C8.5427 22.8392 8.40691 22.6738 8.32672 22.4803C8.24654 22.2867 8.22557 22.0737 8.26646 21.8683C8.30735 21.6628 8.40827 21.4741 8.55644 21.326L17.6674 12.215C17.8664 12.016 18.1361 11.9043 18.4174 11.9043C18.6987 11.9043 18.9685 12.016 19.1674 12.215C19.3664 12.4139 19.4781 12.6837 19.4781 12.965C19.4781 13.2463 19.3664 13.516 19.1674 13.715L10.0544 22.827C9.95592 22.9249 9.83905 23.0024 9.71053 23.0551C9.582 23.1078 9.44434 23.1346 9.30544 23.134Z" fill="#3E4449"/>
<path d="M25.2504 2.93786C24.9702 2.93576 24.7021 2.82352 24.5039 2.62537C24.3058 2.42722 24.1935 2.15907 24.1914 1.87886C24.1902 1.66848 24.2516 1.4625 24.3679 1.28717C24.4841 1.11184 24.65 0.975123 24.8443 0.894444C25.0386 0.813765 25.2525 0.792784 25.4588 0.834178C25.665 0.875571 25.8543 0.977463 26.0024 1.12686C26.0978 1.22431 26.1732 1.33947 26.2244 1.46586C26.2779 1.59712 26.3068 1.73713 26.3094 1.87886C26.3073 2.15907 26.1951 2.42722 25.9969 2.62537C25.7988 2.82352 25.5306 2.93576 25.2504 2.93786Z" fill="#3E4449"/>
<path d="M2.37931 31.0103C2.30822 31.0086 2.23736 31.0015 2.16731 30.9893C2.1008 30.9777 2.03641 30.9561 1.97631 30.9253C1.90843 30.9007 1.84418 30.8671 1.78531 30.8253C1.72978 30.7862 1.67668 30.7438 1.62631 30.6983C1.43451 30.4963 1.32534 30.2298 1.32031 29.9513C1.32226 29.8137 1.35114 29.6778 1.40531 29.5513C1.45896 29.4232 1.53403 29.3052 1.62731 29.2023L1.78631 29.0753C1.84517 29.0335 1.90942 28.9999 1.97731 28.9753C2.03741 28.9445 2.1018 28.9229 2.16831 28.9113C2.37465 28.8682 2.58931 28.8905 2.78231 28.9753C2.91371 29.023 3.03303 29.0989 3.13187 29.1978C3.2307 29.2966 3.30664 29.4159 3.35431 29.5473C3.40938 29.6735 3.4378 29.8096 3.4378 29.9473C3.4378 30.085 3.40938 30.2211 3.35431 30.3473C3.30577 30.478 3.23011 30.5969 3.13231 30.6963C2.93005 30.8924 2.66099 31.0046 2.37931 31.0103Z" fill="#3E4449"/>
<path d="M47.3719 24.6674C47.2307 24.6695 47.0905 24.6443 46.9589 24.5934C46.8319 24.5383 46.7168 24.4592 46.6199 24.3604C46.5709 24.3101 46.5248 24.257 46.4819 24.2014C46.4499 24.1374 46.4179 24.0854 46.3819 24.0214C46.3459 23.9574 46.3399 23.8834 46.3179 23.8214C46.3056 23.7514 46.2986 23.6805 46.2969 23.6094C46.2988 23.4718 46.3277 23.3359 46.3819 23.2094C46.437 23.0825 46.5161 22.9674 46.6149 22.8704C46.709 22.7683 46.8248 22.6887 46.9539 22.6374C47.1472 22.5537 47.3615 22.5314 47.5679 22.5734C47.6419 22.5944 47.7059 22.6154 47.7679 22.6374C47.8299 22.6594 47.8949 22.7014 47.9479 22.7374C48.0077 22.7748 48.0614 22.8214 48.1069 22.8754C48.209 22.9695 48.2886 23.0854 48.3399 23.2144C48.4233 23.4076 48.4457 23.6216 48.4041 23.8279C48.3624 24.0341 48.2587 24.2227 48.1069 24.3684C48.0638 24.4219 48.0095 24.4652 47.9479 24.4954C47.8917 24.5369 47.8314 24.5725 47.7679 24.6014C47.703 24.6252 47.636 24.643 47.5679 24.6544C47.5036 24.6686 47.4375 24.673 47.3719 24.6674Z" fill="#3E4449"/>
<path d="M23.3559 54.1788C23.0755 54.1748 22.8069 54.0652 22.6039 53.8718C22.4088 53.6698 22.2989 53.4006 22.2969 53.1198C22.2969 52.9807 22.3243 52.843 22.3775 52.7145C22.4307 52.586 22.5087 52.4693 22.607 52.371C22.7054 52.2726 22.8221 52.1946 22.9506 52.1414C23.0791 52.0882 23.2168 52.0608 23.3559 52.0608C23.4949 52.0608 23.6327 52.0882 23.7611 52.1414C23.8896 52.1946 24.0064 52.2726 24.1047 52.371C24.203 52.4693 24.281 52.586 24.3343 52.7145C24.3875 52.843 24.4149 52.9807 24.4149 53.1198C24.4161 53.2609 24.391 53.4009 24.3409 53.5328C24.2819 53.6576 24.2033 53.772 24.1079 53.8718C23.9059 54.0668 23.6367 54.1768 23.3559 54.1788Z" fill="#3E4449"/>
</g>
</g>
</g>
<defs>
<clipPath id="clip0_8_24462">
<rect width="52.94" height="56.09" fill="white" transform="translate(0.78125 0.829834)"/>
</clipPath>
<clipPath id="clip1_8_24462">
<rect width="52.94" height="56.09" fill="white" transform="translate(0.78125 0.829834)"/>
</clipPath>
<clipPath id="clip2_8_24462">
<rect width="52.94" height="56.0899" fill="white" transform="translate(0.78125 0.829834)"/>
</clipPath>
</defs>
</svg>
