<svg width="62" height="58" viewBox="0 0 62 58" fill="none" xmlns="http://www.w3.org/2000/svg">
<g clip-path="url(#clip0_8_24508)">
<g clip-path="url(#clip1_8_24508)">
<g clip-path="url(#clip2_8_24508)">
<path d="M4.80859 55.3859C4.67797 55.3848 4.54883 55.358 4.42859 55.3069C4.30925 55.2584 4.20056 55.1871 4.1086 55.0969C4.01399 55.0042 3.93875 54.8936 3.88725 54.7715C3.83575 54.6495 3.80901 54.5184 3.80859 54.3859C3.81199 54.1191 3.91967 53.8643 4.1086 53.6759C4.24933 53.5373 4.42795 53.4435 4.62193 53.4063C4.81592 53.3691 5.01658 53.3902 5.19859 53.4669C5.31771 53.5154 5.42636 53.5863 5.51859 53.6759C5.70485 53.8652 5.80904 54.1203 5.80859 54.3859C5.81066 54.5163 5.78687 54.6458 5.73859 54.7669C5.68407 54.8884 5.60972 54.9999 5.51859 55.0969C5.42543 55.1899 5.31465 55.2634 5.19273 55.313C5.07082 55.3626 4.94022 55.3874 4.80859 55.3859Z" fill="#3E4449"/>
<path d="M60.1094 19.3212C59.9787 19.3201 59.8496 19.2932 59.7294 19.2422C59.6102 19.1934 59.5015 19.1221 59.4094 19.0322C59.3148 18.9395 59.2395 18.8288 59.188 18.7068C59.1365 18.5847 59.1098 18.4537 59.1094 18.3212C59.1128 18.0544 59.2204 17.7996 59.4094 17.6112C59.55 17.4724 59.7286 17.3784 59.9226 17.3411C60.1166 17.3037 60.3173 17.3246 60.4994 17.4012C60.6183 17.4504 60.7269 17.5217 60.8194 17.6112C61.0056 17.8005 61.1098 18.0556 61.1094 18.3212C61.1114 18.4516 61.0876 18.5811 61.0394 18.7022C60.9849 18.8236 60.9105 18.9351 60.8194 19.0322C60.7262 19.1252 60.6154 19.1986 60.4935 19.2483C60.3716 19.2979 60.241 19.3227 60.1094 19.3212Z" fill="#3E4449"/>
<path d="M53.6836 50.9208C53.553 50.9197 53.4238 50.8928 53.3036 50.8418C53.1844 50.793 53.0757 50.7217 52.9836 50.6318C52.889 50.5391 52.8137 50.4285 52.7622 50.3064C52.7107 50.1843 52.684 50.0533 52.6836 49.9208C52.6868 49.654 52.7945 49.3991 52.9836 49.2108C53.1242 49.072 53.3028 48.978 53.4968 48.9407C53.6908 48.9033 53.8915 48.9242 54.0736 49.0008C54.1928 49.0495 54.3014 49.1208 54.3936 49.2108C54.5799 49.4001 54.6841 49.6552 54.6836 49.9208C54.6857 50.0512 54.6619 50.1807 54.6136 50.3018C54.5591 50.4232 54.4847 50.5348 54.3936 50.6318C54.3004 50.7248 54.1897 50.7983 54.0677 50.8479C53.9458 50.8975 53.8152 50.9223 53.6836 50.9208Z" fill="#3E4449"/>
<path d="M43.457 51.9198C43.3264 51.9187 43.1973 51.8919 43.077 51.8408C42.9577 51.7923 42.849 51.721 42.757 51.6308C42.6624 51.5381 42.5872 51.4275 42.5357 51.3054C42.4842 51.1834 42.4574 51.0523 42.457 50.9198C42.4604 50.653 42.5681 50.3982 42.757 50.2098C42.8977 50.0711 43.0762 49.9771 43.2702 49.9397C43.4642 49.9023 43.6649 49.9232 43.847 49.9998C43.966 50.049 44.0746 50.1203 44.167 50.2098C44.3533 50.3992 44.4575 50.6542 44.457 50.9198C44.4591 51.0502 44.4353 51.1797 44.387 51.3008C44.3325 51.4223 44.2582 51.5338 44.167 51.6308C44.0739 51.7238 43.9631 51.7973 43.8412 51.8469C43.7193 51.8965 43.5887 51.9213 43.457 51.9198Z" fill="#3E4449"/>
<path d="M56.0977 7.72914C55.967 7.72804 55.8379 7.70119 55.7177 7.65014C55.5985 7.6014 55.4898 7.53009 55.3977 7.44014C55.303 7.34741 55.2278 7.2368 55.1763 7.11475C55.1248 6.99269 55.0981 6.86162 55.0977 6.72914C55.1006 6.46228 55.2084 6.20728 55.3977 6.01914C55.5383 5.88039 55.7169 5.78639 55.9108 5.74902C56.1048 5.71164 56.3055 5.73256 56.4877 5.80914C56.6068 5.85789 56.7155 5.92919 56.8077 6.01914C56.9942 6.20829 57.0984 6.46349 57.0977 6.72914C57.0997 6.85952 57.0759 6.98901 57.0277 7.11014C56.9728 7.23141 56.8985 7.34288 56.8077 7.44014C56.7144 7.53296 56.6036 7.6063 56.4817 7.65592C56.3598 7.70553 56.2292 7.73042 56.0977 7.72914Z" fill="#3E4449"/>
<path d="M24.6836 4.85707C24.553 4.85597 24.4238 4.82912 24.3036 4.77807C24.1844 4.72933 24.0757 4.65802 23.9836 4.56807C23.889 4.47534 23.8137 4.36473 23.7622 4.24268C23.7107 4.12062 23.684 3.98955 23.6836 3.85707C23.687 3.5903 23.7947 3.33545 23.9836 3.14707C24.1242 3.00832 24.3028 2.91432 24.4968 2.87695C24.6908 2.83957 24.8915 2.86049 25.0736 2.93707C25.1925 2.98627 25.3011 3.05753 25.3936 3.14707C25.5799 3.33641 25.684 3.59148 25.6836 3.85707C25.6857 3.98745 25.6619 4.11694 25.6136 4.23807C25.5591 4.35951 25.4847 4.47104 25.3936 4.56807C25.3004 4.66107 25.1897 4.73453 25.0677 4.78416C24.9458 4.83379 24.8152 4.85857 24.6836 4.85707Z" fill="#3E4449"/>
<path d="M22.2487 33.705C29.6974 33.705 35.7357 27.6666 35.7357 20.218C35.7357 12.7693 29.6974 6.73096 22.2487 6.73096C14.8001 6.73096 8.76172 12.7693 8.76172 20.218C8.76172 27.6666 14.8001 33.705 22.2487 33.705Z" fill="#EFE025"/>
<path d="M32.668 19.5679C32.4028 19.5679 32.1484 19.4626 31.9609 19.275C31.7733 19.0875 31.668 18.8332 31.668 18.5679C31.6709 16.0816 32.6599 13.698 34.4179 11.9399C36.176 10.1818 38.5597 9.19285 41.046 9.18994C41.3112 9.18994 41.5655 9.2953 41.7531 9.48284C41.9406 9.67037 42.046 9.92472 42.046 10.1899C42.046 10.4552 41.9406 10.7095 41.7531 10.897C41.5655 11.0846 41.3112 11.1899 41.046 11.1899C39.0898 11.1921 37.2145 11.9701 35.8313 13.3532C34.4481 14.7364 33.6701 16.6118 33.668 18.5679C33.668 18.8332 33.5626 19.0875 33.3751 19.275C33.1875 19.4626 32.9332 19.5679 32.668 19.5679Z" fill="#3E4449"/>
<path d="M27.3359 19.5679C27.0707 19.5679 26.8164 19.4626 26.6288 19.275C26.4413 19.0875 26.3359 18.8331 26.3359 18.5679C26.3404 14.668 27.8917 10.929 30.6494 8.17134C33.4071 5.41365 37.146 3.86241 41.0459 3.85791C41.3112 3.85791 41.5655 3.96327 41.753 4.1508C41.9406 4.33834 42.0459 4.59269 42.0459 4.85791C42.0459 5.12313 41.9406 5.37748 41.753 5.56502C41.5655 5.75255 41.3112 5.85791 41.0459 5.85791C37.6763 5.86188 34.4457 7.20224 32.063 9.58497C29.6803 11.9677 28.3399 15.1982 28.3359 18.5679C28.3359 18.8331 28.2306 19.0875 28.043 19.275C27.8555 19.4626 27.6012 19.5679 27.3359 19.5679Z" fill="#3E4449"/>
<path d="M40.9872 33.2279C37.3169 33.2251 33.7814 31.8447 31.0802 29.3599C30.9831 29.2714 30.9044 29.1647 30.8486 29.0458C30.7928 28.9269 30.761 28.7981 30.755 28.6669C30.7489 28.5357 30.7688 28.4046 30.8134 28.281C30.8581 28.1575 30.9267 28.044 31.0152 27.9469L31.0472 27.9139L50.3932 8.56893C50.4877 8.4721 50.6013 8.39603 50.7268 8.34558C50.8523 8.29513 50.987 8.27141 51.1222 8.27593C51.2573 8.27891 51.3904 8.30925 51.5135 8.36511C51.6365 8.42097 51.747 8.50119 51.8382 8.60094C53.1397 10.0311 54.1466 11.7036 54.8016 13.523C55.4566 15.3424 55.7467 17.273 55.6554 19.2046C55.5641 21.1361 55.0932 23.0307 54.2696 24.7803C53.446 26.5298 52.2857 28.0999 50.8552 29.4009C48.154 31.8558 44.6372 33.2197 40.9872 33.2279ZM33.2312 28.5589C35.8965 30.6152 39.2691 31.5291 42.608 31.0999C45.9468 30.6706 48.9786 28.9334 51.0372 26.2699C52.7528 24.0471 53.6833 21.3183 53.6833 18.5104C53.6833 15.7025 52.7528 12.9738 51.0372 10.7509L33.2312 28.5589Z" fill="#3E4449"/>
<path d="M40.3747 20.7402C40.1095 20.7401 39.8552 20.6347 39.6677 20.4472L37.3227 18.1052C36.8935 17.6759 36.6523 17.0937 36.6523 16.4867C36.6523 15.8796 36.8935 15.2974 37.3227 14.8682C37.759 14.4521 38.3388 14.22 38.9417 14.22C39.5446 14.22 40.1244 14.4521 40.5607 14.8682L42.9037 17.2132C43.0912 17.4007 43.1965 17.655 43.1965 17.9202C43.1965 18.1853 43.0912 18.4396 42.9037 18.6272L41.0817 20.4542C40.8931 20.6391 40.6389 20.742 40.3747 20.7402ZM38.9377 16.1952C38.8611 16.1952 38.7877 16.2254 38.7334 16.2794C38.679 16.3333 38.6482 16.4066 38.6477 16.4832C38.6477 16.5205 38.6552 16.5575 38.6699 16.5918C38.6845 16.6262 38.7058 16.6572 38.7327 16.6832L40.3707 18.3212L40.7787 17.9122L39.1427 16.2752C39.0875 16.2226 39.0139 16.1939 38.9377 16.1952Z" fill="#3E4449"/>
<path d="M57.2828 42.8624H41.9688C41.7035 42.8624 41.4492 42.757 41.2617 42.5695C41.0741 42.382 40.9688 42.1276 40.9688 41.8624C40.9688 41.5972 41.0741 41.3428 41.2617 41.1553C41.4492 40.9677 41.7035 40.8624 41.9688 40.8624H56.2828V33.9994L51.0078 28.7234C50.9133 28.6322 50.8377 28.5233 50.7853 28.4028C50.7329 28.2824 50.7047 28.1529 50.7024 28.0216C50.7001 27.8903 50.7236 27.7598 50.7717 27.6376C50.8198 27.5154 50.8915 27.4039 50.9827 27.3094C51.1671 27.1187 51.4196 27.009 51.6848 27.0045C51.95 27 52.2061 27.1011 52.3968 27.2854L52.4218 27.3094L57.9898 32.8784C58.1773 33.0659 58.2827 33.3202 58.2828 33.5854V41.8624C58.2828 42.1276 58.1774 42.382 57.9899 42.5695C57.8023 42.757 57.548 42.8624 57.2828 42.8624Z" fill="#3E4449"/>
<path d="M49.6239 42.7353C49.3586 42.7353 49.1043 42.6299 48.9167 42.4424C48.7292 42.2549 48.6239 42.0005 48.6239 41.7353V35.9733L44.6949 32.7513C44.5932 32.6681 44.5089 32.5656 44.4468 32.4498C44.3847 32.334 44.346 32.2071 44.333 32.0763C44.32 31.9455 44.3329 31.8135 44.371 31.6877C44.4091 31.5619 44.4715 31.4449 44.5549 31.3433C44.6381 31.2416 44.7405 31.1573 44.8563 31.0952C44.9722 31.0331 45.0991 30.9945 45.2298 30.9815C45.3606 30.9685 45.4926 30.9814 45.6184 31.0194C45.7442 31.0575 45.8612 31.12 45.9629 31.2033L50.2629 34.7203C50.3774 34.8142 50.4696 34.9323 50.5329 35.0661C50.5962 35.2 50.629 35.3462 50.6289 35.4943V41.7303C50.6295 41.862 50.6041 41.9926 50.5542 42.1145C50.5042 42.2364 50.4307 42.3472 50.3377 42.4406C50.2448 42.534 50.1343 42.6081 50.0127 42.6587C49.891 42.7093 49.7606 42.7353 49.6289 42.7353H49.6239Z" fill="#3E4449"/>
<path d="M6.72266 34.5513C6.45744 34.5513 6.20309 34.446 6.01555 34.2584C5.82801 34.0709 5.72266 33.8166 5.72266 33.5513C5.72557 31.065 6.71454 28.6814 8.47263 26.9233C10.2307 25.1652 12.6143 24.1763 15.1007 24.1733C15.3659 24.1733 15.6202 24.2787 15.8078 24.4662C15.9953 24.6538 16.1007 24.9081 16.1007 25.1733C16.1007 25.4386 15.9953 25.6929 15.8078 25.8804C15.6202 26.068 15.3659 26.1733 15.1007 26.1733C13.1445 26.1752 11.2689 26.9531 9.88567 28.3364C8.50242 29.7196 7.72451 31.5951 7.72266 33.5513C7.72266 33.8166 7.6173 34.0709 7.42976 34.2584C7.24223 34.446 6.98787 34.5513 6.72266 34.5513Z" fill="#3E4449"/>
<path d="M1.39062 34.5513C1.12541 34.5513 0.871069 34.446 0.683533 34.2584C0.495996 34.0709 0.390625 33.8165 0.390625 33.5513C0.395124 29.6515 1.94624 25.9127 4.7037 23.1551C7.46117 20.3974 11.1999 18.8461 15.0996 18.8413C15.3648 18.8413 15.6192 18.9467 15.8067 19.1342C15.9943 19.3217 16.0996 19.5761 16.0996 19.8413C16.0996 20.1065 15.9943 20.3609 15.8067 20.5484C15.6192 20.736 15.3648 20.8413 15.0996 20.8413C11.73 20.8453 8.49961 22.1857 6.11704 24.5684C3.73447 26.9512 2.39433 30.1817 2.39062 33.5513C2.39062 33.8165 2.28527 34.0709 2.09773 34.2584C1.9102 34.446 1.65584 34.5513 1.39062 34.5513Z" fill="#3E4449"/>
<path d="M15.0409 48.2104C11.3709 48.2075 7.83573 46.8271 5.13488 44.3424C5.03781 44.2539 4.95913 44.1471 4.90332 44.0282C4.84752 43.9093 4.81569 43.7806 4.80965 43.6493C4.80361 43.5181 4.82349 43.387 4.86814 43.2635C4.91279 43.1399 4.98134 43.0264 5.06987 42.9294L5.10187 42.8964L24.4449 23.5514C24.5395 23.4545 24.6533 23.3784 24.779 23.3279C24.9047 23.2775 25.0395 23.2538 25.1749 23.2584C25.31 23.2614 25.4431 23.2917 25.5662 23.3476C25.6892 23.4034 25.7997 23.4836 25.8909 23.5834C27.1923 25.0135 28.1993 26.6861 28.8543 28.5055C29.5093 30.3249 29.7994 32.2555 29.7081 34.187C29.6168 36.1185 29.1459 38.0132 28.3223 39.7627C27.4987 41.5122 26.3384 43.0823 24.9079 44.3834C22.2068 46.8378 18.6905 48.2017 15.0409 48.2104ZM7.28287 43.5414C8.60612 44.5566 10.1164 45.3012 11.7274 45.7328C13.3385 46.1643 15.0187 46.2743 16.6723 46.0564C18.3258 45.8386 19.9202 45.2972 21.3645 44.4631C22.8088 43.629 24.0747 42.5187 25.0899 41.1954C26.7912 38.9776 27.7133 36.2605 27.7133 33.4654C27.7133 30.6702 26.7912 27.9531 25.0899 25.7354L7.28287 43.5414Z" fill="#3E4449"/>
<path d="M14.4284 35.7233C14.1632 35.7232 13.9089 35.6178 13.7214 35.4303L11.3774 33.0853C10.9482 32.656 10.707 32.0738 10.707 31.4668C10.707 30.8597 10.9482 30.2775 11.3774 29.8483C11.8138 29.4327 12.3933 29.2009 12.9959 29.2009C13.5985 29.2009 14.178 29.4327 14.6144 29.8483L16.9584 32.1933C17.1459 32.3808 17.2512 32.6351 17.2512 32.9003C17.2512 33.1654 17.1459 33.4197 16.9584 33.6073L15.1364 35.4313C15.0434 35.5241 14.9329 35.5976 14.8115 35.6477C14.69 35.6978 14.5598 35.7235 14.4284 35.7233ZM12.9954 31.1773C12.9191 31.1773 12.8459 31.2074 12.7917 31.2612C12.7376 31.315 12.7069 31.388 12.7064 31.4643C12.7064 31.5016 12.7139 31.5386 12.7285 31.5729C12.7431 31.6073 12.7645 31.6384 12.7914 31.6643L14.4284 33.3023L14.8374 32.8933L13.2004 31.2563C13.1451 31.2041 13.0714 31.1757 12.9954 31.1773Z" fill="#3E4449"/>
<path d="M31.3364 57.8446H16.0234C15.7582 57.8446 15.5039 57.7392 15.3163 57.5517C15.1288 57.3641 15.0234 57.1098 15.0234 56.8446C15.0234 56.5794 15.1288 56.325 15.3163 56.1375C15.5039 55.9499 15.7582 55.8446 16.0234 55.8446H30.3364V48.9816L25.0614 43.7056C24.874 43.5181 24.7687 43.2637 24.7687 42.9986C24.7687 42.7334 24.874 42.4791 25.0614 42.2916C25.1543 42.1986 25.2646 42.1248 25.386 42.0745C25.5074 42.0242 25.6375 41.9983 25.7689 41.9983C25.9004 41.9983 26.0305 42.0242 26.1519 42.0745C26.2733 42.1248 26.3836 42.1986 26.4764 42.2916L32.0444 47.8606C32.232 48.0481 32.3374 48.3024 32.3374 48.5676V56.8446C32.3374 57.1098 32.2321 57.3641 32.0445 57.5517C31.857 57.7392 31.6017 57.8446 31.3364 57.8446Z" fill="#3E4449"/>
<path d="M23.6785 57.7177C23.4133 57.7177 23.159 57.6123 22.9714 57.4248C22.7839 57.2373 22.6785 56.9829 22.6785 56.7177V50.9517L18.7495 47.7347C18.6478 47.6515 18.5635 47.549 18.5015 47.4332C18.4394 47.3174 18.4007 47.1905 18.3877 47.0597C18.3747 46.9289 18.3876 46.7969 18.4257 46.6711C18.4637 46.5453 18.5262 46.4283 18.6095 46.3267C18.6928 46.225 18.7952 46.1407 18.911 46.0786C19.0268 46.0165 19.1538 45.9779 19.2845 45.9649C19.4153 45.9519 19.5473 45.9648 19.6731 46.0028C19.7989 46.0409 19.9159 46.1034 20.0175 46.1867L24.3175 49.7037C24.432 49.7976 24.5243 49.9157 24.5876 50.0495C24.6509 50.1834 24.6836 50.3296 24.6835 50.4777V56.7137C24.6835 56.9789 24.5782 57.2333 24.3906 57.4208C24.2031 57.6083 23.9488 57.7137 23.6835 57.7137L23.6785 57.7177Z" fill="#3E4449"/>
<path d="M12.6109 12.627C12.3948 12.6268 12.1816 12.5769 11.9879 12.481C11.7112 12.3434 11.4871 12.119 11.3499 11.842L10.2179 9.13199L7.55392 8.02199C7.51491 8.00616 7.47714 7.98744 7.44092 7.96599C7.22962 7.84568 7.05222 7.67382 6.92527 7.46643C6.79832 7.25905 6.72595 7.02289 6.71492 6.77999C6.71235 6.51981 6.77886 6.2636 6.90763 6.03751C7.0364 5.81141 7.22283 5.62352 7.44792 5.49299C7.48195 5.47341 7.51738 5.45637 7.55392 5.44199L10.2129 4.33199L11.3189 1.67599C11.3992 1.49733 11.5153 1.33701 11.6599 1.20492C11.8045 1.07283 11.9747 0.971779 12.1599 0.907991C12.3354 0.849205 12.5209 0.825657 12.7055 0.838699C12.8901 0.851741 13.0704 0.901117 13.2359 0.983992C13.5082 1.12079 13.7291 1.34172 13.8659 1.61399L15.0019 4.33199L17.6639 5.44299C17.6982 5.4578 17.7315 5.47449 17.7639 5.49299C17.9779 5.61267 18.1577 5.78495 18.2865 5.99353C18.4153 6.20212 18.4888 6.44011 18.4999 6.68499C18.5017 6.94365 18.4355 7.19822 18.3079 7.42322C18.1803 7.64822 17.9958 7.83574 17.7729 7.96699C17.7363 7.98857 17.6982 8.00761 17.6589 8.02399L14.9999 9.12399L13.8999 11.779C13.8203 11.9578 13.7049 12.1184 13.5608 12.2509C13.4166 12.3833 13.2468 12.4848 13.0619 12.549C12.9168 12.5994 12.7645 12.6258 12.6109 12.627ZM11.3219 7.42499C11.4517 7.47207 11.5703 7.54551 11.6703 7.64069C11.7703 7.73586 11.8495 7.85071 11.9029 7.97799L12.6119 9.67799L13.3179 7.97799C13.3716 7.84842 13.452 7.7316 13.5538 7.63512C13.6557 7.53864 13.7766 7.46466 13.9089 7.41799L15.5589 6.73299L13.8779 6.03299C13.7522 5.98439 13.6376 5.91088 13.5411 5.81688C13.4445 5.72288 13.3679 5.61033 13.3159 5.48599L12.6069 3.78599L11.9009 5.48599C11.8464 5.61545 11.7653 5.73205 11.6631 5.82833C11.5608 5.9246 11.4394 5.9984 11.3069 6.04499L9.65692 6.73399L11.3219 7.42499Z" fill="#3E4449"/>
</g>
</g>
</g>
<defs>
<clipPath id="clip0_8_24508">
<rect width="60.72" height="57.02" fill="white" transform="translate(0.390625 0.829834)"/>
</clipPath>
<clipPath id="clip1_8_24508">
<rect width="60.72" height="57.02" fill="white" transform="translate(0.390625 0.829834)"/>
</clipPath>
<clipPath id="clip2_8_24508">
<rect width="60.719" height="57.009" fill="white" transform="translate(0.390625 0.834961)"/>
</clipPath>
</defs>
</svg>
